%
M48
M72
T01C0.0157
T02C0.0354
T03C0.0400
T04C0.0787
T05C0.1180
%
T01
X8214Y6091
X10678Y4658
X11643Y5599
X13564Y6438
X15182Y6729
X15635Y4882
X17568Y4343
X18029Y8835
X18178Y10127
X18820Y10701
X19143Y10839
X17954Y11091
X16749Y11504
X16615Y10953
X15690Y10867
X14985Y11386
X14725Y11749
X15320Y12638
X15643Y12508
X16135Y12670
X16367Y13827
X18745Y13402
X18761Y14816
X14092Y12630
X13733Y12634
X12410Y12398
X12253Y12095
X11910Y11642
X11651Y11418
X11269Y10595
X10548Y9611
X10792Y9071
X11269Y9351
X11064Y8300
X6651Y10579
X10013Y12914
X15517Y9182
X16233Y9599
T02
X3858Y8886
X3858Y10619
T03
X2678Y910
X3678Y910
X4678Y910
X5678Y910
X6678Y910
X7678Y910
X8678Y910
X9678Y910
X10678Y910
X11678Y910
X12678Y910
X13678Y910
X14678Y910
X15678Y910
X16678Y910
X17678Y910
X18678Y910
X19678Y910
X20678Y910
X20678Y3910
X20678Y4910
X20678Y5910
X20678Y6910
X19678Y6910
X19678Y7910
X19678Y8910
X19678Y9910
X19678Y10910
X19678Y11910
X19678Y12910
X20678Y12910
X20678Y11910
X20678Y10910
X20678Y9910
X20678Y8910
X20678Y7910
X20678Y13910
X20678Y14910
X20678Y15910
X20678Y18910
X19678Y18910
X18678Y18910
X17678Y18910
X16678Y18910
X15678Y18910
X14678Y18910
X13678Y18910
X12678Y18910
X11678Y18910
X10678Y18910
X9678Y18910
X8678Y18910
X7678Y18910
X6678Y18910
X5678Y18910
X4678Y18910
X3678Y18910
X2678Y18910
X2678Y3910
X2678Y2910
T04
X2678Y17410
X20678Y17410
X20678Y2410
T05
X5894Y5535
X4713Y3685
X3531Y5535
M30
