G75*
G70*
%OFA0B0*%
%FSLAX24Y24*%
%IPPOS*%
%LPD*%
%AMOC8*
5,1,8,0,0,1.08239X$1,22.5*
%
%ADD10C,0.0000*%
%ADD11R,0.0790X0.0590*%
%ADD12R,0.0790X0.1500*%
%ADD13R,0.0984X0.0197*%
%ADD14R,0.0984X0.0787*%
%ADD15R,0.0591X0.0512*%
%ADD16R,0.0512X0.0591*%
%ADD17R,0.0630X0.0945*%
%ADD18R,0.0945X0.0630*%
%ADD19R,0.0472X0.0472*%
%ADD20R,0.0787X0.0630*%
%ADD21R,0.0580X0.0110*%
%ADD22R,0.0110X0.0580*%
%ADD23R,0.0315X0.0354*%
%ADD24R,0.0394X0.0551*%
%ADD25R,0.0700X0.2000*%
D10*
X001875Y000107D02*
X001875Y019792D01*
X021560Y019792D01*
X021560Y000107D01*
X001875Y000107D01*
X003681Y008886D02*
X003683Y008912D01*
X003689Y008938D01*
X003699Y008963D01*
X003712Y008986D01*
X003728Y009006D01*
X003748Y009024D01*
X003770Y009039D01*
X003793Y009051D01*
X003819Y009059D01*
X003845Y009063D01*
X003871Y009063D01*
X003897Y009059D01*
X003923Y009051D01*
X003947Y009039D01*
X003968Y009024D01*
X003988Y009006D01*
X004004Y008986D01*
X004017Y008963D01*
X004027Y008938D01*
X004033Y008912D01*
X004035Y008886D01*
X004033Y008860D01*
X004027Y008834D01*
X004017Y008809D01*
X004004Y008786D01*
X003988Y008766D01*
X003968Y008748D01*
X003946Y008733D01*
X003923Y008721D01*
X003897Y008713D01*
X003871Y008709D01*
X003845Y008709D01*
X003819Y008713D01*
X003793Y008721D01*
X003769Y008733D01*
X003748Y008748D01*
X003728Y008766D01*
X003712Y008786D01*
X003699Y008809D01*
X003689Y008834D01*
X003683Y008860D01*
X003681Y008886D01*
X003681Y010619D02*
X003683Y010645D01*
X003689Y010671D01*
X003699Y010696D01*
X003712Y010719D01*
X003728Y010739D01*
X003748Y010757D01*
X003770Y010772D01*
X003793Y010784D01*
X003819Y010792D01*
X003845Y010796D01*
X003871Y010796D01*
X003897Y010792D01*
X003923Y010784D01*
X003947Y010772D01*
X003968Y010757D01*
X003988Y010739D01*
X004004Y010719D01*
X004017Y010696D01*
X004027Y010671D01*
X004033Y010645D01*
X004035Y010619D01*
X004033Y010593D01*
X004027Y010567D01*
X004017Y010542D01*
X004004Y010519D01*
X003988Y010499D01*
X003968Y010481D01*
X003946Y010466D01*
X003923Y010454D01*
X003897Y010446D01*
X003871Y010442D01*
X003845Y010442D01*
X003819Y010446D01*
X003793Y010454D01*
X003769Y010466D01*
X003748Y010481D01*
X003728Y010499D01*
X003712Y010519D01*
X003699Y010542D01*
X003689Y010567D01*
X003683Y010593D01*
X003681Y010619D01*
X002284Y017410D02*
X002286Y017449D01*
X002292Y017488D01*
X002302Y017526D01*
X002315Y017563D01*
X002332Y017598D01*
X002352Y017632D01*
X002376Y017663D01*
X002403Y017692D01*
X002432Y017718D01*
X002464Y017741D01*
X002498Y017761D01*
X002534Y017777D01*
X002571Y017789D01*
X002610Y017798D01*
X002649Y017803D01*
X002688Y017804D01*
X002727Y017801D01*
X002766Y017794D01*
X002803Y017783D01*
X002840Y017769D01*
X002875Y017751D01*
X002908Y017730D01*
X002939Y017705D01*
X002967Y017678D01*
X002992Y017648D01*
X003014Y017615D01*
X003033Y017581D01*
X003048Y017545D01*
X003060Y017507D01*
X003068Y017469D01*
X003072Y017430D01*
X003072Y017390D01*
X003068Y017351D01*
X003060Y017313D01*
X003048Y017275D01*
X003033Y017239D01*
X003014Y017205D01*
X002992Y017172D01*
X002967Y017142D01*
X002939Y017115D01*
X002908Y017090D01*
X002875Y017069D01*
X002840Y017051D01*
X002803Y017037D01*
X002766Y017026D01*
X002727Y017019D01*
X002688Y017016D01*
X002649Y017017D01*
X002610Y017022D01*
X002571Y017031D01*
X002534Y017043D01*
X002498Y017059D01*
X002464Y017079D01*
X002432Y017102D01*
X002403Y017128D01*
X002376Y017157D01*
X002352Y017188D01*
X002332Y017222D01*
X002315Y017257D01*
X002302Y017294D01*
X002292Y017332D01*
X002286Y017371D01*
X002284Y017410D01*
X020284Y017410D02*
X020286Y017449D01*
X020292Y017488D01*
X020302Y017526D01*
X020315Y017563D01*
X020332Y017598D01*
X020352Y017632D01*
X020376Y017663D01*
X020403Y017692D01*
X020432Y017718D01*
X020464Y017741D01*
X020498Y017761D01*
X020534Y017777D01*
X020571Y017789D01*
X020610Y017798D01*
X020649Y017803D01*
X020688Y017804D01*
X020727Y017801D01*
X020766Y017794D01*
X020803Y017783D01*
X020840Y017769D01*
X020875Y017751D01*
X020908Y017730D01*
X020939Y017705D01*
X020967Y017678D01*
X020992Y017648D01*
X021014Y017615D01*
X021033Y017581D01*
X021048Y017545D01*
X021060Y017507D01*
X021068Y017469D01*
X021072Y017430D01*
X021072Y017390D01*
X021068Y017351D01*
X021060Y017313D01*
X021048Y017275D01*
X021033Y017239D01*
X021014Y017205D01*
X020992Y017172D01*
X020967Y017142D01*
X020939Y017115D01*
X020908Y017090D01*
X020875Y017069D01*
X020840Y017051D01*
X020803Y017037D01*
X020766Y017026D01*
X020727Y017019D01*
X020688Y017016D01*
X020649Y017017D01*
X020610Y017022D01*
X020571Y017031D01*
X020534Y017043D01*
X020498Y017059D01*
X020464Y017079D01*
X020432Y017102D01*
X020403Y017128D01*
X020376Y017157D01*
X020352Y017188D01*
X020332Y017222D01*
X020315Y017257D01*
X020302Y017294D01*
X020292Y017332D01*
X020286Y017371D01*
X020284Y017410D01*
X020284Y002410D02*
X020286Y002449D01*
X020292Y002488D01*
X020302Y002526D01*
X020315Y002563D01*
X020332Y002598D01*
X020352Y002632D01*
X020376Y002663D01*
X020403Y002692D01*
X020432Y002718D01*
X020464Y002741D01*
X020498Y002761D01*
X020534Y002777D01*
X020571Y002789D01*
X020610Y002798D01*
X020649Y002803D01*
X020688Y002804D01*
X020727Y002801D01*
X020766Y002794D01*
X020803Y002783D01*
X020840Y002769D01*
X020875Y002751D01*
X020908Y002730D01*
X020939Y002705D01*
X020967Y002678D01*
X020992Y002648D01*
X021014Y002615D01*
X021033Y002581D01*
X021048Y002545D01*
X021060Y002507D01*
X021068Y002469D01*
X021072Y002430D01*
X021072Y002390D01*
X021068Y002351D01*
X021060Y002313D01*
X021048Y002275D01*
X021033Y002239D01*
X021014Y002205D01*
X020992Y002172D01*
X020967Y002142D01*
X020939Y002115D01*
X020908Y002090D01*
X020875Y002069D01*
X020840Y002051D01*
X020803Y002037D01*
X020766Y002026D01*
X020727Y002019D01*
X020688Y002016D01*
X020649Y002017D01*
X020610Y002022D01*
X020571Y002031D01*
X020534Y002043D01*
X020498Y002059D01*
X020464Y002079D01*
X020432Y002102D01*
X020403Y002128D01*
X020376Y002157D01*
X020352Y002188D01*
X020332Y002222D01*
X020315Y002257D01*
X020302Y002294D01*
X020292Y002332D01*
X020286Y002371D01*
X020284Y002410D01*
D11*
X004918Y014520D03*
X004918Y015420D03*
X004918Y016320D03*
D12*
X002438Y015410D03*
D13*
X004843Y010382D03*
X004843Y010067D03*
X004843Y009753D03*
X004843Y009438D03*
X004843Y009123D03*
D14*
X004843Y007981D03*
X002677Y007981D03*
X002677Y011524D03*
X004843Y011524D03*
D15*
X007178Y009784D03*
X007178Y009036D03*
X008178Y009036D03*
X008178Y009784D03*
X009178Y011036D03*
X009178Y011784D03*
X011803Y010284D03*
X011803Y009536D03*
X012178Y005784D03*
X012178Y005036D03*
X012178Y004284D03*
X012178Y003536D03*
X007678Y005161D03*
X007678Y005909D03*
X007678Y007036D03*
X007678Y007784D03*
X009178Y014411D03*
X009178Y015159D03*
X017678Y015036D03*
X017678Y015784D03*
X018553Y012909D03*
X018553Y012161D03*
D16*
X013927Y014285D03*
X013179Y014285D03*
X013179Y015160D03*
X013927Y015160D03*
X010052Y009410D03*
X009304Y009410D03*
X009304Y008410D03*
X010052Y008410D03*
X013429Y007535D03*
X014177Y007535D03*
X016429Y007535D03*
X017177Y007535D03*
X017052Y005410D03*
X016304Y005410D03*
X016304Y003410D03*
X017052Y003410D03*
X015552Y003410D03*
X014804Y003410D03*
X011052Y005160D03*
X010304Y005160D03*
X009427Y005160D03*
X008679Y005160D03*
D17*
X004269Y013035D03*
X003088Y013035D03*
D18*
X006678Y014819D03*
X006678Y016001D03*
D19*
X014765Y004410D03*
X015592Y004410D03*
X016265Y004410D03*
X017092Y004410D03*
D20*
X010616Y003660D03*
X008490Y003660D03*
D21*
X012928Y009430D03*
X012928Y009630D03*
X012928Y009830D03*
X012928Y010020D03*
X012928Y010220D03*
X012928Y010420D03*
X012928Y010610D03*
X012928Y010810D03*
X012928Y011010D03*
X012928Y011210D03*
X012928Y011400D03*
X012928Y011600D03*
X012928Y011800D03*
X012928Y011990D03*
X012928Y012190D03*
X012928Y012390D03*
X017428Y012390D03*
X017428Y012190D03*
X017428Y011990D03*
X017428Y011800D03*
X017428Y011600D03*
X017428Y011400D03*
X017428Y011210D03*
X017428Y011010D03*
X017428Y010810D03*
X017428Y010610D03*
X017428Y010420D03*
X017428Y010220D03*
X017428Y010020D03*
X017428Y009830D03*
X017428Y009630D03*
X017428Y009430D03*
D22*
X016658Y008660D03*
X016458Y008660D03*
X016258Y008660D03*
X016068Y008660D03*
X015868Y008660D03*
X015668Y008660D03*
X015478Y008660D03*
X015278Y008660D03*
X015078Y008660D03*
X014878Y008660D03*
X014688Y008660D03*
X014488Y008660D03*
X014288Y008660D03*
X014098Y008660D03*
X013898Y008660D03*
X013698Y008660D03*
X013698Y013160D03*
X013898Y013160D03*
X014098Y013160D03*
X014288Y013160D03*
X014488Y013160D03*
X014688Y013160D03*
X014878Y013160D03*
X015078Y013160D03*
X015278Y013160D03*
X015478Y013160D03*
X015668Y013160D03*
X015868Y013160D03*
X016068Y013160D03*
X016258Y013160D03*
X016458Y013160D03*
X016658Y013160D03*
D23*
X007177Y013679D03*
X006429Y013679D03*
X006803Y012852D03*
X006429Y011929D03*
X007177Y011929D03*
X006803Y011102D03*
D24*
X009053Y006968D03*
X008679Y006102D03*
X009427Y006102D03*
X010304Y006102D03*
X011052Y006102D03*
X010678Y006968D03*
D25*
X010678Y011260D03*
X010678Y015060D03*
M02*
