G75*
G70*
%OFA0B0*%
%FSLAX24Y24*%
%IPPOS*%
%LPD*%
%AMOC8*
5,1,8,0,0,1.08239X$1,22.5*
%
%ADD10C,0.0000*%
%ADD11C,0.0600*%
%ADD12R,0.0790X0.0590*%
%ADD13R,0.0790X0.1500*%
%ADD14R,0.0984X0.0197*%
%ADD15R,0.0984X0.0787*%
%ADD16C,0.1700*%
%ADD17R,0.0591X0.0512*%
%ADD18R,0.0512X0.0591*%
%ADD19R,0.0630X0.0945*%
%ADD20R,0.0945X0.0630*%
%ADD21R,0.0472X0.0472*%
%ADD22R,0.0787X0.0630*%
%ADD23R,0.0580X0.0110*%
%ADD24R,0.0110X0.0580*%
%ADD25OC8,0.0600*%
%ADD26R,0.0315X0.0354*%
%ADD27R,0.0394X0.0551*%
%ADD28R,0.0700X0.2000*%
%ADD29C,0.0118*%
%ADD30C,0.0079*%
%ADD31C,0.0277*%
%ADD32C,0.0110*%
D10*
X001875Y000107D02*
X001875Y019792D01*
X021560Y019792D01*
X021560Y000107D01*
X001875Y000107D01*
X003681Y008886D02*
X003683Y008912D01*
X003689Y008938D01*
X003699Y008963D01*
X003712Y008986D01*
X003728Y009006D01*
X003748Y009024D01*
X003770Y009039D01*
X003793Y009051D01*
X003819Y009059D01*
X003845Y009063D01*
X003871Y009063D01*
X003897Y009059D01*
X003923Y009051D01*
X003947Y009039D01*
X003968Y009024D01*
X003988Y009006D01*
X004004Y008986D01*
X004017Y008963D01*
X004027Y008938D01*
X004033Y008912D01*
X004035Y008886D01*
X004033Y008860D01*
X004027Y008834D01*
X004017Y008809D01*
X004004Y008786D01*
X003988Y008766D01*
X003968Y008748D01*
X003946Y008733D01*
X003923Y008721D01*
X003897Y008713D01*
X003871Y008709D01*
X003845Y008709D01*
X003819Y008713D01*
X003793Y008721D01*
X003769Y008733D01*
X003748Y008748D01*
X003728Y008766D01*
X003712Y008786D01*
X003699Y008809D01*
X003689Y008834D01*
X003683Y008860D01*
X003681Y008886D01*
X003681Y010619D02*
X003683Y010645D01*
X003689Y010671D01*
X003699Y010696D01*
X003712Y010719D01*
X003728Y010739D01*
X003748Y010757D01*
X003770Y010772D01*
X003793Y010784D01*
X003819Y010792D01*
X003845Y010796D01*
X003871Y010796D01*
X003897Y010792D01*
X003923Y010784D01*
X003947Y010772D01*
X003968Y010757D01*
X003988Y010739D01*
X004004Y010719D01*
X004017Y010696D01*
X004027Y010671D01*
X004033Y010645D01*
X004035Y010619D01*
X004033Y010593D01*
X004027Y010567D01*
X004017Y010542D01*
X004004Y010519D01*
X003988Y010499D01*
X003968Y010481D01*
X003946Y010466D01*
X003923Y010454D01*
X003897Y010446D01*
X003871Y010442D01*
X003845Y010442D01*
X003819Y010446D01*
X003793Y010454D01*
X003769Y010466D01*
X003748Y010481D01*
X003728Y010499D01*
X003712Y010519D01*
X003699Y010542D01*
X003689Y010567D01*
X003683Y010593D01*
X003681Y010619D01*
X002284Y017410D02*
X002286Y017449D01*
X002292Y017488D01*
X002302Y017526D01*
X002315Y017563D01*
X002332Y017598D01*
X002352Y017632D01*
X002376Y017663D01*
X002403Y017692D01*
X002432Y017718D01*
X002464Y017741D01*
X002498Y017761D01*
X002534Y017777D01*
X002571Y017789D01*
X002610Y017798D01*
X002649Y017803D01*
X002688Y017804D01*
X002727Y017801D01*
X002766Y017794D01*
X002803Y017783D01*
X002840Y017769D01*
X002875Y017751D01*
X002908Y017730D01*
X002939Y017705D01*
X002967Y017678D01*
X002992Y017648D01*
X003014Y017615D01*
X003033Y017581D01*
X003048Y017545D01*
X003060Y017507D01*
X003068Y017469D01*
X003072Y017430D01*
X003072Y017390D01*
X003068Y017351D01*
X003060Y017313D01*
X003048Y017275D01*
X003033Y017239D01*
X003014Y017205D01*
X002992Y017172D01*
X002967Y017142D01*
X002939Y017115D01*
X002908Y017090D01*
X002875Y017069D01*
X002840Y017051D01*
X002803Y017037D01*
X002766Y017026D01*
X002727Y017019D01*
X002688Y017016D01*
X002649Y017017D01*
X002610Y017022D01*
X002571Y017031D01*
X002534Y017043D01*
X002498Y017059D01*
X002464Y017079D01*
X002432Y017102D01*
X002403Y017128D01*
X002376Y017157D01*
X002352Y017188D01*
X002332Y017222D01*
X002315Y017257D01*
X002302Y017294D01*
X002292Y017332D01*
X002286Y017371D01*
X002284Y017410D01*
X020284Y017410D02*
X020286Y017449D01*
X020292Y017488D01*
X020302Y017526D01*
X020315Y017563D01*
X020332Y017598D01*
X020352Y017632D01*
X020376Y017663D01*
X020403Y017692D01*
X020432Y017718D01*
X020464Y017741D01*
X020498Y017761D01*
X020534Y017777D01*
X020571Y017789D01*
X020610Y017798D01*
X020649Y017803D01*
X020688Y017804D01*
X020727Y017801D01*
X020766Y017794D01*
X020803Y017783D01*
X020840Y017769D01*
X020875Y017751D01*
X020908Y017730D01*
X020939Y017705D01*
X020967Y017678D01*
X020992Y017648D01*
X021014Y017615D01*
X021033Y017581D01*
X021048Y017545D01*
X021060Y017507D01*
X021068Y017469D01*
X021072Y017430D01*
X021072Y017390D01*
X021068Y017351D01*
X021060Y017313D01*
X021048Y017275D01*
X021033Y017239D01*
X021014Y017205D01*
X020992Y017172D01*
X020967Y017142D01*
X020939Y017115D01*
X020908Y017090D01*
X020875Y017069D01*
X020840Y017051D01*
X020803Y017037D01*
X020766Y017026D01*
X020727Y017019D01*
X020688Y017016D01*
X020649Y017017D01*
X020610Y017022D01*
X020571Y017031D01*
X020534Y017043D01*
X020498Y017059D01*
X020464Y017079D01*
X020432Y017102D01*
X020403Y017128D01*
X020376Y017157D01*
X020352Y017188D01*
X020332Y017222D01*
X020315Y017257D01*
X020302Y017294D01*
X020292Y017332D01*
X020286Y017371D01*
X020284Y017410D01*
X020284Y002410D02*
X020286Y002449D01*
X020292Y002488D01*
X020302Y002526D01*
X020315Y002563D01*
X020332Y002598D01*
X020352Y002632D01*
X020376Y002663D01*
X020403Y002692D01*
X020432Y002718D01*
X020464Y002741D01*
X020498Y002761D01*
X020534Y002777D01*
X020571Y002789D01*
X020610Y002798D01*
X020649Y002803D01*
X020688Y002804D01*
X020727Y002801D01*
X020766Y002794D01*
X020803Y002783D01*
X020840Y002769D01*
X020875Y002751D01*
X020908Y002730D01*
X020939Y002705D01*
X020967Y002678D01*
X020992Y002648D01*
X021014Y002615D01*
X021033Y002581D01*
X021048Y002545D01*
X021060Y002507D01*
X021068Y002469D01*
X021072Y002430D01*
X021072Y002390D01*
X021068Y002351D01*
X021060Y002313D01*
X021048Y002275D01*
X021033Y002239D01*
X021014Y002205D01*
X020992Y002172D01*
X020967Y002142D01*
X020939Y002115D01*
X020908Y002090D01*
X020875Y002069D01*
X020840Y002051D01*
X020803Y002037D01*
X020766Y002026D01*
X020727Y002019D01*
X020688Y002016D01*
X020649Y002017D01*
X020610Y002022D01*
X020571Y002031D01*
X020534Y002043D01*
X020498Y002059D01*
X020464Y002079D01*
X020432Y002102D01*
X020403Y002128D01*
X020376Y002157D01*
X020352Y002188D01*
X020332Y002222D01*
X020315Y002257D01*
X020302Y002294D01*
X020292Y002332D01*
X020286Y002371D01*
X020284Y002410D01*
D11*
X020678Y001210D02*
X020678Y000610D01*
X019678Y000610D02*
X019678Y001210D01*
X018678Y001210D02*
X018678Y000610D01*
X017678Y000610D02*
X017678Y001210D01*
X016678Y001210D02*
X016678Y000610D01*
X015678Y000610D02*
X015678Y001210D01*
X014678Y001210D02*
X014678Y000610D01*
X013678Y000610D02*
X013678Y001210D01*
X012678Y001210D02*
X012678Y000610D01*
X011678Y000610D02*
X011678Y001210D01*
X010678Y001210D02*
X010678Y000610D01*
X009678Y000610D02*
X009678Y001210D01*
X008678Y001210D02*
X008678Y000610D01*
X007678Y000610D02*
X007678Y001210D01*
X006678Y001210D02*
X006678Y000610D01*
X005678Y000610D02*
X005678Y001210D01*
X004678Y001210D02*
X004678Y000610D01*
X003678Y000610D02*
X003678Y001210D01*
X002678Y001210D02*
X002678Y000610D01*
X002978Y002910D02*
X002378Y002910D01*
X002378Y003910D02*
X002978Y003910D01*
X002678Y018610D02*
X002678Y019210D01*
X003678Y019210D02*
X003678Y018610D01*
X004678Y018610D02*
X004678Y019210D01*
X005678Y019210D02*
X005678Y018610D01*
X006678Y018610D02*
X006678Y019210D01*
X007678Y019210D02*
X007678Y018610D01*
X008678Y018610D02*
X008678Y019210D01*
X009678Y019210D02*
X009678Y018610D01*
X010678Y018610D02*
X010678Y019210D01*
X011678Y019210D02*
X011678Y018610D01*
X012678Y018610D02*
X012678Y019210D01*
X013678Y019210D02*
X013678Y018610D01*
X014678Y018610D02*
X014678Y019210D01*
X015678Y019210D02*
X015678Y018610D01*
X016678Y018610D02*
X016678Y019210D01*
X017678Y019210D02*
X017678Y018610D01*
X018678Y018610D02*
X018678Y019210D01*
X019678Y019210D02*
X019678Y018610D01*
X020678Y018610D02*
X020678Y019210D01*
X020978Y015910D02*
X020378Y015910D01*
X020378Y014910D02*
X020978Y014910D01*
X020978Y013910D02*
X020378Y013910D01*
X020378Y005910D02*
X020978Y005910D01*
X020978Y004910D02*
X020378Y004910D01*
X020378Y003910D02*
X020978Y003910D01*
D12*
X004918Y014520D03*
X004918Y015420D03*
X004918Y016320D03*
D13*
X002438Y015410D03*
D14*
X004843Y010382D03*
X004843Y010067D03*
X004843Y009753D03*
X004843Y009438D03*
X004843Y009123D03*
D15*
X004843Y007981D03*
X002677Y007981D03*
X002677Y011524D03*
X004843Y011524D03*
D16*
X005894Y005535D03*
X004713Y003685D03*
X003531Y005535D03*
D17*
X007178Y009036D03*
X007178Y009784D03*
X008178Y009784D03*
X008178Y009036D03*
X007678Y007784D03*
X007678Y007036D03*
X007678Y005909D03*
X007678Y005161D03*
X012178Y005036D03*
X012178Y005784D03*
X012178Y004284D03*
X012178Y003536D03*
X011803Y009536D03*
X011803Y010284D03*
X009178Y011036D03*
X009178Y011784D03*
X009178Y014411D03*
X009178Y015159D03*
X017678Y015036D03*
X017678Y015784D03*
X018553Y012909D03*
X018553Y012161D03*
D18*
X013927Y014285D03*
X013179Y014285D03*
X013179Y015160D03*
X013927Y015160D03*
X010052Y009410D03*
X009304Y009410D03*
X009304Y008410D03*
X010052Y008410D03*
X013429Y007535D03*
X014177Y007535D03*
X016429Y007535D03*
X017177Y007535D03*
X017052Y005410D03*
X016304Y005410D03*
X016304Y003410D03*
X017052Y003410D03*
X015552Y003410D03*
X014804Y003410D03*
X011052Y005160D03*
X010304Y005160D03*
X009427Y005160D03*
X008679Y005160D03*
D19*
X004269Y013035D03*
X003088Y013035D03*
D20*
X006678Y014819D03*
X006678Y016001D03*
D21*
X014765Y004410D03*
X015592Y004410D03*
X016265Y004410D03*
X017092Y004410D03*
D22*
X010616Y003660D03*
X008490Y003660D03*
D23*
X012928Y009430D03*
X012928Y009630D03*
X012928Y009830D03*
X012928Y010020D03*
X012928Y010220D03*
X012928Y010420D03*
X012928Y010610D03*
X012928Y010810D03*
X012928Y011010D03*
X012928Y011210D03*
X012928Y011400D03*
X012928Y011600D03*
X012928Y011800D03*
X012928Y011990D03*
X012928Y012190D03*
X012928Y012390D03*
X017428Y012390D03*
X017428Y012190D03*
X017428Y011990D03*
X017428Y011800D03*
X017428Y011600D03*
X017428Y011400D03*
X017428Y011210D03*
X017428Y011010D03*
X017428Y010810D03*
X017428Y010610D03*
X017428Y010420D03*
X017428Y010220D03*
X017428Y010020D03*
X017428Y009830D03*
X017428Y009630D03*
X017428Y009430D03*
D24*
X016658Y008660D03*
X016458Y008660D03*
X016258Y008660D03*
X016068Y008660D03*
X015868Y008660D03*
X015668Y008660D03*
X015478Y008660D03*
X015278Y008660D03*
X015078Y008660D03*
X014878Y008660D03*
X014688Y008660D03*
X014488Y008660D03*
X014288Y008660D03*
X014098Y008660D03*
X013898Y008660D03*
X013698Y008660D03*
X013698Y013160D03*
X013898Y013160D03*
X014098Y013160D03*
X014288Y013160D03*
X014488Y013160D03*
X014688Y013160D03*
X014878Y013160D03*
X015078Y013160D03*
X015278Y013160D03*
X015478Y013160D03*
X015668Y013160D03*
X015868Y013160D03*
X016068Y013160D03*
X016258Y013160D03*
X016458Y013160D03*
X016658Y013160D03*
D25*
X019678Y012910D03*
X019678Y011910D03*
X019678Y010910D03*
X019678Y009910D03*
X019678Y008910D03*
X019678Y007910D03*
X019678Y006910D03*
X020678Y006910D03*
X020678Y007910D03*
X020678Y008910D03*
X020678Y009910D03*
X020678Y010910D03*
X020678Y011910D03*
X020678Y012910D03*
D26*
X007177Y013679D03*
X006429Y013679D03*
X006803Y012852D03*
X006429Y011929D03*
X007177Y011929D03*
X006803Y011102D03*
D27*
X009053Y006968D03*
X008679Y006102D03*
X009427Y006102D03*
X010304Y006102D03*
X011052Y006102D03*
X010678Y006968D03*
D28*
X010678Y011260D03*
X010678Y015060D03*
D29*
X010387Y015109D01*
X010328Y015109D01*
X009473Y015109D01*
X009414Y015109D01*
X009178Y015159D01*
X009178Y014411D02*
X009414Y014214D01*
X009414Y014155D01*
X009414Y014131D01*
X010013Y012914D01*
X009414Y012064D01*
X009414Y012040D01*
X009414Y011981D01*
X009178Y011784D01*
X009414Y011148D02*
X009178Y011036D01*
X009414Y011148D02*
X009473Y011148D01*
X010328Y011148D01*
X010387Y011148D01*
X010678Y011260D01*
X011355Y011296D02*
X010969Y014036D01*
X010969Y014060D01*
X010969Y014119D01*
X010678Y015060D01*
X010452Y016216D02*
X010393Y016216D01*
X010263Y016216D01*
X007224Y015508D01*
X005313Y015508D01*
X005254Y015508D01*
X004918Y015420D01*
X004582Y015184D01*
X004523Y015184D01*
X004499Y015184D01*
X004464Y015149D01*
X003225Y013581D01*
X003225Y013507D01*
X003225Y013448D01*
X003088Y013035D01*
X002595Y012636D02*
X002595Y012489D01*
X002699Y012385D01*
X003341Y012331D01*
X003753Y012004D01*
X004657Y012385D01*
X006198Y013679D01*
X006272Y013679D01*
X006331Y013679D01*
X006429Y013679D01*
X006528Y013561D01*
X006587Y013561D01*
X006611Y013561D01*
X006946Y013374D01*
X006963Y013364D01*
X007124Y013364D01*
X007354Y013133D01*
X007374Y013006D01*
X007374Y012905D01*
X007374Y012563D01*
X007360Y012510D01*
X007126Y012276D01*
X006949Y012276D01*
X006850Y012176D01*
X006753Y012037D01*
X006655Y011940D01*
X006587Y011940D01*
X006528Y011940D01*
X006429Y011929D01*
X006507Y011614D02*
X006644Y011614D01*
X006749Y011715D01*
X006951Y011917D01*
X007020Y011917D01*
X007079Y011917D01*
X007177Y011929D01*
X007276Y012047D01*
X007335Y012047D01*
X007359Y012047D01*
X007513Y012087D01*
X007610Y012439D01*
X007610Y012911D01*
X007610Y013071D01*
X007512Y013575D01*
X007408Y013679D01*
X007335Y013679D01*
X007276Y013679D01*
X007177Y013679D01*
X007197Y013797D01*
X007197Y013856D01*
X007197Y013929D01*
X006973Y014431D01*
X006973Y014504D01*
X006973Y014564D01*
X006678Y014819D01*
X006383Y014564D01*
X006383Y014504D01*
X006383Y014431D01*
X006279Y014327D01*
X005387Y014048D01*
X005288Y014048D01*
X004608Y013448D01*
X004584Y013448D01*
X004525Y013448D01*
X004269Y013035D01*
X003753Y012004D02*
X003582Y010821D01*
X003332Y010619D01*
X003332Y008985D01*
X003588Y008591D01*
X003583Y007416D01*
X002625Y006015D01*
X002551Y005837D01*
X002551Y005233D01*
X002625Y005055D01*
X003052Y004628D01*
X003230Y004554D01*
X003833Y004554D01*
X004011Y004628D01*
X004438Y005055D01*
X004947Y006041D01*
X005387Y006481D01*
X005583Y006562D01*
X006205Y006562D01*
X006615Y006457D01*
X007034Y006334D02*
X007273Y006572D01*
X007988Y006603D01*
X008004Y006609D01*
X008044Y006609D01*
X008206Y006611D01*
X008402Y006611D01*
X008728Y006555D01*
X008791Y006535D01*
X008867Y006535D01*
X008954Y006535D02*
X008954Y006692D01*
X008954Y006752D01*
X009053Y006968D01*
X008930Y007421D02*
X008783Y007421D01*
X008244Y007241D01*
X008096Y007233D01*
X007973Y007233D01*
X007914Y007233D01*
X007678Y007036D01*
X008147Y007477D02*
X008685Y007657D01*
X010381Y007938D01*
X011064Y008300D01*
X011359Y008177D02*
X011186Y008004D01*
X010408Y007421D01*
X010304Y007317D01*
X009930Y006451D01*
X009792Y005757D01*
X009694Y005659D01*
X009610Y005632D01*
X009506Y005529D01*
X009506Y005455D01*
X009506Y005396D01*
X009427Y005160D01*
X009610Y004688D02*
X009756Y004688D01*
X009860Y004791D01*
X009871Y005470D01*
X009880Y005525D01*
X009979Y005623D01*
X010132Y005767D01*
X010166Y005802D01*
X010166Y005826D01*
X010166Y005885D01*
X010304Y006102D01*
X010488Y005630D02*
X010574Y005649D01*
X010678Y005753D01*
X010678Y006692D01*
X010678Y006752D01*
X010678Y006968D01*
X010816Y006752D01*
X010875Y006752D01*
X010899Y006752D01*
X011322Y006555D01*
X011907Y006099D01*
X011942Y006064D01*
X011942Y006040D01*
X011942Y005981D01*
X012178Y005784D01*
X012651Y005661D02*
X012666Y005202D01*
X012678Y004914D01*
X012914Y005012D02*
X012934Y004560D01*
X012914Y005012D02*
X012903Y005254D01*
X012887Y005758D01*
X012851Y006189D01*
X012851Y006196D01*
X012524Y007004D01*
X012513Y009249D01*
X012761Y009197D02*
X012760Y008001D01*
X012760Y007411D01*
X012760Y007069D01*
X013069Y006265D01*
X013069Y006232D01*
X013123Y005823D01*
X013139Y005352D01*
X013158Y004973D01*
X013375Y005449D02*
X013359Y005811D01*
X013287Y006320D01*
X012996Y007166D01*
X012996Y007313D01*
X012996Y007904D01*
X013100Y008007D01*
X013481Y008292D01*
X013429Y007535D02*
X013564Y007299D01*
X013564Y007240D01*
X013564Y006438D01*
X012632Y006106D02*
X012651Y005661D01*
X012632Y006106D02*
X012287Y006957D01*
X012277Y009151D01*
X012277Y009346D01*
X012282Y009523D01*
X012368Y009680D01*
X012368Y009687D01*
X012418Y009812D01*
X011803Y009536D02*
X011567Y009339D01*
X011567Y009280D01*
X011567Y009256D01*
X011521Y008820D01*
X011359Y008177D01*
X010992Y008590D02*
X011274Y008872D01*
X011274Y009271D01*
X011269Y009351D01*
X010946Y009812D02*
X011434Y010205D01*
X011508Y010205D01*
X011567Y010205D01*
X011803Y010284D01*
X011773Y011123D02*
X011528Y011123D01*
X011355Y011296D01*
X011773Y011123D02*
X011836Y011174D01*
X011910Y011642D02*
X011958Y012217D01*
X012115Y012521D01*
X012288Y012693D01*
X012533Y012693D01*
X012651Y012646D01*
X013466Y013461D01*
X013376Y013965D01*
X013376Y013990D01*
X013376Y014049D01*
X013179Y014285D01*
X013179Y014521D01*
X013179Y014580D01*
X013179Y014865D01*
X013179Y014924D01*
X013179Y015160D01*
X012982Y015396D01*
X012923Y015396D01*
X012899Y015396D01*
X011085Y016198D01*
X010452Y016216D01*
X010541Y016431D02*
X011192Y016396D01*
X011961Y016087D01*
X013508Y015632D01*
X013696Y015514D01*
X013730Y015480D01*
X013730Y015455D01*
X013730Y015396D01*
X013927Y015160D01*
X013927Y014924D01*
X013927Y014865D01*
X013927Y014580D01*
X013927Y014521D01*
X013927Y014285D01*
X014357Y014234D02*
X014359Y014448D01*
X014360Y014791D01*
X014360Y014938D01*
X014360Y015529D01*
X014256Y015632D01*
X013842Y015869D01*
X012029Y016311D01*
X011253Y016593D01*
X010611Y016647D01*
X010229Y016647D01*
X009235Y016716D01*
X009157Y016731D01*
X008226Y016958D01*
X007288Y017188D01*
X005382Y017660D01*
X004429Y017897D01*
X003481Y018133D01*
X002678Y018610D01*
X002678Y018910D01*
X003678Y018910D02*
X003678Y018610D01*
X004481Y018133D01*
X005429Y017897D01*
X006382Y017660D01*
X008288Y017188D01*
X009226Y016958D01*
X009259Y016952D01*
X010250Y016862D01*
X010654Y016862D01*
X011292Y016790D01*
X012097Y016534D01*
X013907Y016105D01*
X013964Y016081D01*
X014354Y015869D01*
X014596Y015626D01*
X014596Y015036D01*
X014596Y014694D01*
X014595Y014410D01*
X014590Y014187D01*
X014590Y014117D01*
X014582Y013972D01*
X014564Y013942D01*
X014564Y013832D01*
X014548Y013768D01*
X014312Y013866D02*
X014344Y013923D01*
X014344Y014033D01*
X014353Y014067D01*
X014357Y014214D01*
X014357Y014234D01*
X014312Y013866D02*
X014308Y013630D01*
X014784Y013851D02*
X014823Y014052D01*
X014823Y014126D01*
X014830Y014345D01*
X014833Y014629D01*
X014833Y015101D01*
X014833Y015691D01*
X014809Y015748D01*
X014476Y016081D01*
X014098Y016282D01*
X013954Y016341D01*
X012165Y016757D01*
X011331Y016988D01*
X010696Y017077D01*
X010271Y017077D01*
X009288Y017188D01*
X007382Y017660D01*
X006429Y017897D01*
X005481Y018133D01*
X004678Y018610D01*
X004678Y018910D01*
X005678Y018910D02*
X005678Y018610D01*
X006481Y018133D01*
X007429Y017897D01*
X008382Y017660D01*
X009335Y017424D01*
X010309Y017293D01*
X010739Y017293D01*
X011290Y017196D01*
X011370Y017185D01*
X012233Y016981D01*
X014001Y016577D01*
X014231Y016482D01*
X014609Y016282D01*
X015010Y015882D01*
X015069Y015738D01*
X015072Y014130D01*
X015304Y014034D02*
X015304Y014329D01*
X015305Y014535D01*
X015305Y015195D01*
X015305Y015785D01*
X015210Y016015D01*
X014743Y016482D01*
X014365Y016682D01*
X014048Y016814D01*
X011410Y017382D01*
X011329Y017391D01*
X010782Y017508D01*
X010352Y017508D01*
X009382Y017660D01*
X008429Y017897D01*
X007481Y018133D01*
X006678Y018610D01*
X006678Y018910D01*
X007678Y018910D02*
X007678Y018610D01*
X008481Y018133D01*
X009429Y017897D01*
X010395Y017723D01*
X010807Y017723D01*
X010841Y017716D01*
X011368Y017587D01*
X011440Y017580D01*
X011457Y017576D01*
X014105Y017046D01*
X014489Y016887D01*
X014877Y016682D01*
X015410Y016149D01*
X015541Y015832D01*
X015541Y015773D01*
X015541Y015019D01*
X015536Y014233D01*
X015773Y014135D02*
X015778Y014983D01*
X015778Y015810D01*
X015778Y015869D01*
X015773Y015889D01*
X015614Y016273D01*
X015603Y016291D01*
X015018Y016875D01*
X015001Y016887D01*
X014601Y017096D01*
X014174Y017273D01*
X014108Y017286D01*
X011459Y017777D01*
X011407Y017782D01*
X010904Y017924D01*
X010828Y017939D01*
X010438Y017939D01*
X009481Y018133D01*
X008678Y018610D01*
X008678Y018910D01*
X009678Y018910D02*
X009678Y018610D01*
X010489Y018154D01*
X010850Y018154D01*
X010967Y018131D01*
X011446Y017978D01*
X011479Y017974D01*
X014131Y017522D01*
X014243Y017500D01*
X014713Y017305D01*
X015113Y017096D01*
X015169Y017058D01*
X015786Y016441D01*
X015824Y016385D01*
X016001Y015958D01*
X016532Y014071D01*
X016769Y014169D02*
X016228Y016027D01*
X016033Y016497D01*
X015970Y016592D01*
X015319Y017242D01*
X015225Y017305D01*
X014825Y017515D01*
X014312Y017727D01*
X014154Y017758D01*
X011497Y018173D01*
X010678Y018610D01*
X010678Y018910D01*
X010541Y016431D02*
X010207Y016431D01*
X009212Y016479D01*
X005387Y016792D01*
X004597Y016792D01*
X004450Y016792D01*
X004346Y016688D01*
X003010Y014587D01*
X002359Y013679D01*
X002359Y012734D01*
X002359Y012391D01*
X002601Y012149D01*
X003243Y012095D01*
X003346Y011991D01*
X003351Y010953D01*
X002977Y010855D01*
X002977Y008611D01*
X003351Y008611D01*
X003346Y007661D01*
X003346Y007514D01*
X002385Y006175D01*
X002268Y005893D01*
X002268Y005177D01*
X002378Y003910D01*
X002678Y003910D01*
X002678Y002910D02*
X002978Y002910D01*
X003806Y004165D01*
X004233Y004591D01*
X005894Y005535D01*
X006592Y004784D02*
X005659Y003178D01*
X005219Y002738D01*
X002678Y001210D01*
X002678Y000910D01*
X003678Y000910D02*
X003678Y001210D01*
X005353Y002538D01*
X005859Y003044D01*
X006828Y004686D01*
X006944Y004959D01*
X007044Y005199D01*
X007044Y005871D01*
X007034Y006021D01*
X007034Y006309D01*
X007034Y006334D01*
X007234Y006227D02*
X007234Y006103D01*
X007243Y005910D01*
X007243Y005160D01*
X007234Y004967D01*
X007234Y004843D01*
X007321Y004756D01*
X007369Y004728D01*
X008764Y004451D01*
X009512Y004451D01*
X009854Y004451D01*
X010122Y004688D01*
X010225Y004791D01*
X010225Y004865D01*
X010225Y004924D01*
X010304Y005160D01*
X010386Y005396D01*
X010386Y005455D01*
X010386Y005528D01*
X010488Y005630D01*
X011052Y006102D02*
X011190Y005885D01*
X011249Y005885D01*
X011273Y005885D01*
X011643Y005599D01*
X011706Y005455D01*
X011824Y005267D01*
X011858Y005233D01*
X011883Y005233D01*
X011942Y005233D01*
X012178Y005036D01*
X011942Y004957D01*
X011883Y004957D01*
X011809Y004957D01*
X011706Y004853D01*
X011187Y003902D01*
X011083Y003798D01*
X011010Y003798D01*
X010951Y003798D01*
X010616Y003660D01*
X010951Y003598D01*
X011010Y003598D01*
X011883Y003598D01*
X011942Y003598D01*
X012178Y003536D01*
X012403Y003103D02*
X009481Y001687D01*
X008678Y001210D01*
X008678Y003345D01*
X008678Y003404D01*
X008490Y003660D01*
X008170Y004152D02*
X008023Y004152D01*
X004678Y001210D01*
X004678Y000910D01*
X008170Y004152D02*
X008957Y004152D01*
X010198Y003916D01*
X010222Y003916D01*
X010281Y003916D01*
X010616Y003660D01*
X010678Y004658D02*
X010855Y004840D01*
X010855Y004865D01*
X010855Y004924D01*
X011052Y005160D01*
X009610Y004688D02*
X008862Y004688D01*
X008758Y004791D01*
X008758Y004865D01*
X008758Y004924D01*
X008679Y005160D01*
X008482Y005160D01*
X008423Y005160D01*
X007973Y005160D01*
X007914Y005160D01*
X007678Y005161D01*
X007678Y005909D02*
X007914Y006091D01*
X007973Y006091D01*
X008214Y006091D01*
X008304Y006375D02*
X008096Y006375D01*
X008084Y006370D01*
X007369Y006342D01*
X007321Y006314D01*
X007234Y006227D01*
X007678Y007784D02*
X007442Y007981D01*
X007383Y007981D01*
X007358Y007981D01*
X007324Y008015D01*
X006706Y008707D01*
X006588Y009316D01*
X006824Y009553D01*
X006858Y009587D01*
X006883Y009587D01*
X006942Y009587D01*
X007178Y009784D01*
X006956Y010217D02*
X006809Y010217D01*
X005408Y010107D01*
X005335Y010107D01*
X005276Y010107D01*
X004843Y010067D01*
X004843Y009753D02*
X005276Y009713D01*
X005335Y009713D01*
X005408Y009713D01*
X006588Y009316D01*
X007178Y009036D02*
X007414Y009036D01*
X007473Y009036D01*
X007883Y009036D01*
X007942Y009036D01*
X008178Y009036D01*
X008178Y009784D02*
X008414Y009863D01*
X008473Y009863D01*
X008547Y009863D01*
X008975Y009882D01*
X009122Y009882D01*
X009633Y009882D01*
X009864Y009868D01*
X009959Y009773D01*
X009959Y009705D01*
X009959Y009646D01*
X010052Y009410D01*
X010169Y009876D02*
X009955Y010089D01*
X008712Y010367D01*
X007034Y011456D01*
X006975Y011456D01*
X006828Y011456D01*
X006725Y011417D01*
X006589Y011417D01*
X006495Y011362D01*
X006443Y011338D01*
X006100Y011338D01*
X005997Y011379D01*
X005748Y010959D01*
X005506Y010717D01*
X005310Y010540D01*
X005276Y010505D01*
X005276Y010481D01*
X005276Y010422D01*
X004843Y010382D01*
X005163Y010894D02*
X005408Y010953D01*
X005512Y011057D01*
X005622Y012342D01*
X005645Y012398D01*
X005979Y012732D01*
X006572Y013206D01*
X006719Y013206D01*
X006778Y013206D01*
X006881Y013167D01*
X007018Y013167D01*
X007098Y013086D01*
X007138Y013043D01*
X007138Y012807D01*
X007138Y012660D01*
X007131Y012604D01*
X007031Y012505D01*
X006854Y012505D01*
X006198Y012283D01*
X006094Y012179D01*
X006094Y011825D01*
X006094Y011678D01*
X006198Y011574D01*
X006257Y011574D01*
X006404Y011574D01*
X006507Y011614D01*
X005997Y011379D02*
X005858Y011580D01*
X005858Y011923D01*
X005858Y012277D01*
X006100Y012519D01*
X006621Y012734D01*
X006646Y012734D01*
X006705Y012734D01*
X006803Y012852D01*
X007513Y012087D02*
X008706Y010707D01*
X008809Y010603D01*
X010024Y010311D01*
X010064Y010294D01*
X010261Y010097D01*
X010319Y010095D01*
X010469Y010095D01*
X010946Y009812D01*
X010548Y009611D02*
X010473Y009774D01*
X010376Y009871D01*
X010226Y009871D01*
X010169Y009876D01*
X010249Y008590D02*
X010308Y008590D01*
X010992Y008590D01*
X010249Y008590D02*
X010052Y008410D01*
X009304Y008410D02*
X009107Y008292D01*
X009048Y008292D01*
X008975Y008292D01*
X007998Y007981D01*
X007973Y007981D01*
X007914Y007981D01*
X007678Y007784D01*
X008930Y007421D02*
X009323Y007421D01*
X009427Y007317D01*
X009427Y006378D01*
X009427Y006318D01*
X009427Y006102D01*
X012403Y003103D02*
X012462Y003103D01*
X012501Y002867D02*
X010481Y001687D01*
X009678Y001210D01*
X009678Y000910D01*
X008678Y000910D02*
X008678Y001210D01*
X008678Y000910D01*
X010678Y000910D02*
X010678Y001210D01*
X012599Y002630D01*
X012641Y002670D01*
X012749Y002776D01*
X012985Y002678D02*
X011678Y001210D01*
X011678Y000910D01*
X012678Y000910D02*
X012678Y001210D01*
X013292Y002682D01*
X013300Y002796D01*
X013056Y002780D02*
X012985Y002678D01*
X014261Y002599D02*
X014333Y002527D01*
X014423Y002438D01*
X015678Y001210D01*
X015678Y000910D01*
X016678Y000910D02*
X016678Y001210D01*
X014521Y002674D01*
X014430Y002760D01*
X014619Y002910D02*
X016876Y001687D01*
X017678Y001210D01*
X017678Y000910D01*
X019678Y000910D02*
X019678Y001210D01*
X017485Y005779D01*
X017381Y005882D01*
X016076Y006835D01*
X016172Y007067D02*
X017479Y006119D01*
X017721Y005876D01*
X019678Y002210D01*
X020678Y000910D01*
X020678Y003910D02*
X020378Y003910D01*
X017601Y006331D01*
X016612Y007063D01*
X016508Y007166D01*
X016508Y007240D01*
X016508Y007299D01*
X016429Y007535D01*
X016031Y007299D02*
X016031Y007830D01*
X016034Y007888D01*
X016116Y007969D01*
X016160Y008004D01*
X016165Y008004D01*
X016210Y008008D01*
X017148Y008373D02*
X016930Y008726D01*
X016891Y008863D01*
X017166Y008823D02*
X017296Y008634D01*
X017312Y008596D01*
X017312Y008586D01*
X017345Y008505D01*
X017698Y008152D01*
X019481Y006433D01*
X019876Y006433D01*
X019998Y006532D01*
X020198Y006583D01*
X020328Y006583D01*
X020095Y006296D02*
X020007Y006230D01*
X019927Y006197D01*
X019429Y006197D01*
X019350Y006230D01*
X017566Y007955D01*
X017148Y008373D01*
X017544Y008635D02*
X017828Y008351D01*
X019481Y007433D01*
X019876Y007387D01*
X020678Y006910D01*
X021265Y007249D02*
X021155Y008108D01*
X020678Y008910D01*
X019876Y009433D02*
X020155Y009712D01*
X020201Y010108D01*
X020481Y010387D01*
X020876Y010433D01*
X021155Y010712D01*
X021155Y011108D01*
X021155Y013108D01*
X020876Y013387D01*
X020181Y013433D01*
X019901Y013712D01*
X019901Y014108D01*
X019776Y017858D01*
X020678Y018610D01*
X020678Y018910D01*
X018047Y016217D02*
X014678Y018610D01*
X014678Y018910D01*
X018047Y016217D02*
X018151Y016113D01*
X019056Y014938D01*
X019276Y013615D01*
X019276Y013190D01*
X019271Y013177D01*
X019221Y013099D01*
X019221Y012721D01*
X019262Y012588D01*
X019262Y012246D01*
X019018Y011835D01*
X018919Y011735D01*
X018858Y011735D01*
X017899Y011461D01*
X018284Y011138D02*
X018506Y011360D01*
X018576Y011389D01*
X018903Y011506D01*
X019014Y011506D01*
X019260Y011724D01*
X019678Y011910D01*
X019026Y012344D02*
X019026Y012490D01*
X019005Y012669D01*
X019005Y013151D01*
X019040Y013280D01*
X019040Y013524D01*
X018867Y013697D01*
X018737Y013749D01*
X018761Y014816D01*
X018032Y015553D01*
X017998Y015587D01*
X017973Y015587D01*
X017914Y015587D01*
X017678Y015784D01*
X017678Y015036D02*
X017442Y014839D01*
X017442Y014780D01*
X017442Y014756D01*
X016891Y012961D01*
X017135Y012819D02*
X018623Y013697D01*
X018737Y013749D01*
X018745Y013402D02*
X018745Y013165D01*
X018745Y013106D01*
X018553Y012909D01*
X019026Y012344D02*
X018922Y012240D01*
X018848Y012240D01*
X018789Y012240D01*
X018553Y012161D01*
X019143Y010839D02*
X019115Y010579D01*
X018670Y009923D01*
X018382Y009634D01*
X017993Y009627D01*
X017311Y009037D02*
X017403Y008921D01*
X017493Y008765D01*
X017544Y008642D01*
X017544Y008635D01*
X017311Y009037D02*
X017273Y009075D01*
X016962Y009595D02*
X016961Y009612D01*
X016961Y009851D01*
X016926Y009936D01*
X016570Y010292D01*
X016485Y010327D01*
X016241Y010363D01*
X015861Y010377D01*
X015487Y010377D01*
X013779Y010985D01*
X013626Y011001D01*
X013399Y011004D01*
X013529Y010764D02*
X013681Y010749D01*
X015439Y010142D01*
X015814Y010142D01*
X016143Y010127D01*
X016046Y009892D02*
X016355Y009892D01*
X016527Y009720D01*
X016528Y009547D01*
X016541Y009459D01*
X016552Y009426D01*
X016568Y009410D01*
X016391Y009130D02*
X015639Y009476D01*
X015395Y009476D01*
X014151Y009130D01*
X015392Y009907D02*
X015768Y009907D01*
X016046Y009892D01*
X015392Y009907D02*
X013584Y010512D01*
X014985Y011386D02*
X015307Y011357D01*
X015979Y011357D01*
X016219Y011457D01*
X016331Y011568D01*
X016207Y011753D02*
X016096Y011642D01*
X015935Y011575D01*
X015350Y011575D01*
X015104Y011672D01*
X015021Y011672D01*
X014725Y011749D01*
X014977Y011936D02*
X014846Y012040D01*
X014206Y012103D01*
X013888Y012138D01*
X013617Y012353D01*
X013452Y012518D01*
X013452Y012751D01*
X013469Y012768D01*
X014304Y012339D02*
X014937Y012273D01*
X014947Y012269D01*
X015105Y012128D01*
X015111Y012126D01*
X015239Y012126D01*
X015329Y012089D01*
X015437Y012012D01*
X015848Y012012D01*
X015968Y012111D01*
X016255Y012229D01*
X016317Y012229D01*
X016361Y012273D01*
X016568Y012396D01*
X016737Y012497D01*
X016615Y012693D02*
X016443Y012583D01*
X016254Y012433D01*
X016239Y012418D01*
X016217Y012418D01*
X015758Y012231D01*
X015528Y012231D01*
X015457Y012281D01*
X015284Y012353D01*
X015201Y012353D01*
X015079Y012466D01*
X014718Y012690D01*
X014977Y011936D02*
X015066Y011899D01*
X015194Y011899D01*
X015200Y011896D01*
X015314Y011827D01*
X015394Y011794D01*
X015892Y011794D01*
X015972Y011827D01*
X016083Y011938D01*
X016295Y012026D01*
X016367Y012041D01*
X016416Y012061D01*
X016468Y012113D01*
X016517Y012134D01*
X016802Y012242D01*
X016832Y012268D01*
X016958Y012394D01*
X016958Y011985D02*
X016776Y011981D01*
X016567Y011945D01*
X016523Y011901D01*
X016207Y011753D01*
X016777Y013607D02*
X016813Y013643D01*
X016813Y014012D01*
X016769Y014169D01*
X015773Y014135D02*
X015682Y013770D01*
X015568Y013627D01*
X015249Y013949D02*
X015304Y014034D01*
X019201Y010108D02*
X019481Y010387D01*
X019876Y010433D01*
X020155Y010712D01*
X020201Y011108D01*
X020492Y011492D01*
X020678Y011910D01*
X019201Y010108D02*
X018029Y008835D01*
X018139Y008560D02*
X018143Y008560D01*
X019481Y009387D01*
X019876Y009433D01*
X017506Y007417D02*
X017433Y007417D01*
X017374Y007417D01*
X017177Y007535D01*
X017506Y007417D02*
X020378Y004910D01*
X020678Y004910D01*
X017568Y004343D02*
X017505Y004100D01*
X017249Y003730D01*
X017249Y003705D01*
X017249Y003646D01*
X017052Y003410D01*
X016304Y003410D02*
X016284Y003646D01*
X016284Y003705D01*
X016284Y004174D01*
X016284Y004233D01*
X016265Y004410D01*
X016574Y004823D02*
X016014Y004938D01*
X015978Y004946D01*
X015754Y005170D01*
X015623Y005217D01*
X015635Y004882D02*
X015635Y004646D01*
X015635Y004587D01*
X015592Y004410D01*
X014784Y004233D02*
X014784Y004174D01*
X014784Y003705D01*
X014784Y003646D01*
X014804Y003410D01*
X014784Y004233D02*
X014765Y004410D01*
X014434Y004796D02*
X015371Y006497D01*
X014903Y006583D02*
X014198Y004894D01*
X014162Y004739D01*
X014162Y004666D01*
X014155Y004422D01*
X016574Y004823D02*
X016880Y004705D01*
X016914Y004671D01*
X016914Y004646D01*
X016914Y004587D01*
X017092Y004410D01*
X017568Y004343D02*
X017505Y004720D01*
X017249Y005090D01*
X017249Y005115D01*
X017249Y005174D01*
X017052Y005410D01*
X016172Y007067D02*
X016114Y007098D01*
X016031Y007181D01*
X016031Y007299D01*
X008178Y009784D02*
X007942Y009981D01*
X007883Y009981D01*
X007858Y009981D01*
X007547Y010217D01*
X006956Y010217D01*
X006651Y010579D02*
X006705Y010900D01*
X006705Y010925D01*
X006705Y010984D01*
X006803Y011102D01*
X005163Y010894D02*
X004277Y010658D01*
X004173Y010456D01*
X004170Y009166D01*
X004213Y008704D01*
X003531Y005535D01*
X004409Y009162D02*
X004843Y009123D01*
X004409Y009162D02*
X004350Y009162D01*
X004277Y009162D01*
X004170Y009166D01*
X002595Y012636D02*
X002595Y013581D01*
X004464Y016049D01*
X004499Y016084D01*
X004523Y016084D01*
X004582Y016084D01*
X004918Y016320D01*
X005254Y016160D01*
X005313Y016160D01*
X006206Y016160D01*
X006265Y016160D01*
X006678Y016001D01*
X005254Y014284D02*
X004918Y014520D01*
X005254Y014284D02*
X005254Y014225D01*
X005254Y014201D01*
X005288Y014048D01*
D30*
X009304Y009410D02*
X009437Y009154D01*
X009437Y009115D01*
X009437Y009064D01*
X009509Y008991D01*
X010257Y008991D01*
X010359Y008991D01*
X010792Y009071D01*
X011001Y009240D02*
X010946Y009812D01*
X011001Y009240D02*
X011060Y009182D01*
X011060Y008961D01*
X010903Y008804D01*
X010682Y008804D01*
X010359Y008829D01*
X009442Y008829D01*
X009173Y008863D01*
X008473Y008863D01*
X008434Y008863D01*
X008178Y009036D01*
X008147Y007477D02*
X008022Y007410D01*
X007334Y007410D01*
X007265Y007341D01*
X007225Y007298D01*
X006615Y006457D01*
X006864Y005835D01*
X006864Y005235D01*
X006792Y005061D01*
X006592Y004784D01*
X008304Y006375D02*
X008466Y006338D01*
X008482Y006338D01*
X008522Y006338D01*
X008679Y006102D01*
X008867Y006535D02*
X008954Y006535D01*
X009033Y006443D01*
X009073Y005761D01*
X009165Y005669D01*
X009236Y005613D01*
X009329Y005521D01*
X009329Y005455D01*
X009329Y005416D01*
X009427Y005160D01*
X012178Y004284D02*
X012355Y004067D01*
X012355Y004028D01*
X012355Y003979D01*
X012424Y003910D01*
X012522Y003910D01*
X012592Y003841D01*
X012623Y003795D01*
X012625Y003786D01*
X012630Y003404D01*
X012630Y003274D01*
X012623Y003218D01*
X012536Y003130D01*
X012462Y003103D01*
X012614Y002941D02*
X012551Y002886D01*
X012501Y002867D01*
X012614Y002941D02*
X012813Y003140D01*
X012826Y003193D01*
X012826Y003485D01*
X012814Y003808D01*
X012814Y003864D01*
X012812Y003932D01*
X012718Y004470D01*
X012678Y004914D01*
X012934Y004560D02*
X013001Y004004D01*
X013003Y003935D01*
X013003Y003826D01*
X013021Y003555D01*
X013021Y003123D01*
X013002Y003068D01*
X012997Y003056D01*
X012902Y002961D01*
X012749Y002776D01*
X013056Y002780D02*
X013091Y002882D01*
X013158Y002949D01*
X013179Y002993D01*
X013217Y003084D01*
X013217Y003594D01*
X013192Y003860D01*
X013192Y003973D01*
X013190Y004041D01*
X013183Y004213D01*
X013158Y004973D01*
X013372Y004924D02*
X013372Y004250D01*
X013379Y004079D01*
X013400Y003571D01*
X013400Y002989D01*
X013335Y002830D01*
X013300Y002796D01*
X013609Y002821D02*
X013678Y001210D01*
X013678Y000910D01*
X014678Y000910D02*
X014678Y001210D01*
X013842Y002769D01*
X013804Y002860D01*
X013804Y003652D01*
X013757Y004257D01*
X013757Y004587D01*
X013757Y004847D01*
X013784Y005032D01*
X014489Y006754D01*
X014607Y006987D01*
X014717Y007122D01*
X014717Y007357D01*
X014717Y007909D01*
X014712Y007946D01*
X014551Y008107D01*
X014504Y008192D01*
X014488Y008347D01*
X014488Y008370D01*
X014488Y008409D01*
X014488Y008660D01*
X014288Y008660D02*
X014304Y008409D01*
X014304Y008370D01*
X014304Y008188D01*
X014310Y008161D01*
X014313Y008155D01*
X014339Y008099D01*
X014416Y008017D01*
X014553Y007880D01*
X014555Y007842D01*
X014555Y007290D01*
X014555Y007189D01*
X014462Y007084D01*
X014310Y006853D01*
X014292Y006811D01*
X013588Y005071D01*
X013564Y004886D01*
X013564Y004289D01*
X013609Y003613D01*
X013609Y002821D01*
X014000Y002899D02*
X014008Y002880D01*
X014261Y002599D01*
X014402Y002763D02*
X014196Y002969D01*
X014196Y003706D01*
X014155Y004422D01*
X013946Y004508D02*
X013946Y004335D01*
X014000Y003687D01*
X014000Y002899D01*
X014402Y002763D02*
X014430Y002760D01*
X014487Y002967D02*
X014516Y002967D01*
X014619Y002910D01*
X014487Y002967D02*
X014401Y003054D01*
X014392Y003109D01*
X014392Y003725D01*
X014374Y004110D01*
X014374Y004238D01*
X014374Y004297D01*
X014375Y004624D01*
X014375Y004651D01*
X014434Y004796D01*
X013950Y004809D02*
X013950Y004709D01*
X013946Y004508D01*
X013950Y004809D02*
X013981Y004983D01*
X014763Y006903D01*
X014879Y007055D01*
X014879Y007424D01*
X014879Y007976D01*
X014871Y008012D01*
X014704Y008192D01*
X014688Y008347D01*
X014688Y008370D01*
X014688Y008409D01*
X014688Y008660D01*
X014878Y008660D02*
X014878Y008409D01*
X014878Y008370D01*
X014878Y008347D01*
X014894Y008271D01*
X015015Y008093D01*
X015031Y008056D01*
X015041Y008019D01*
X015041Y007467D01*
X015041Y007012D01*
X015024Y006971D01*
X014933Y006832D01*
X014903Y006583D01*
X015182Y006729D02*
X015203Y006980D01*
X015203Y007500D01*
X015203Y008075D01*
X015078Y008347D01*
X015078Y008370D01*
X015078Y008409D01*
X015078Y008660D01*
X015278Y008660D02*
X015294Y008911D01*
X015294Y008950D01*
X015294Y009004D01*
X015305Y009015D01*
X015397Y009107D01*
X015517Y009182D01*
X015349Y009691D02*
X015725Y009691D01*
X016233Y009599D01*
X016568Y009410D02*
X016700Y009193D01*
X016844Y009050D01*
X016867Y008974D01*
X016867Y008907D01*
X016891Y008863D01*
X017062Y008988D02*
X017041Y009047D01*
X017014Y009120D01*
X016842Y009292D01*
X016792Y009342D01*
X016773Y009495D01*
X016757Y009510D01*
X016745Y009522D01*
X016745Y009612D01*
X016745Y009808D01*
X016742Y009813D01*
X016447Y010108D01*
X016442Y010110D01*
X016143Y010127D01*
X015799Y010604D02*
X015581Y010604D01*
X015427Y010758D01*
X015427Y010975D01*
X015581Y011129D01*
X016018Y011158D01*
X016332Y011288D01*
X016434Y011390D01*
X016749Y011504D01*
X016846Y011270D02*
X016534Y011202D01*
X016512Y011202D01*
X016436Y011139D01*
X016430Y011135D01*
X016058Y010981D01*
X015690Y010867D01*
X015799Y010604D02*
X016729Y010678D01*
X017022Y010907D01*
X017080Y010965D01*
X017122Y010994D01*
X017138Y010994D01*
X017178Y010994D01*
X017428Y011010D01*
X017428Y011210D02*
X017178Y011210D01*
X017138Y011210D01*
X017115Y011210D01*
X017033Y011208D01*
X017003Y011192D01*
X016915Y011104D01*
X016615Y010953D01*
X016846Y011270D02*
X017003Y011388D01*
X017009Y011509D01*
X017085Y011584D01*
X017115Y011600D01*
X017138Y011600D01*
X017178Y011600D01*
X017428Y011600D01*
X017428Y011800D02*
X017178Y011784D01*
X017138Y011784D01*
X017039Y011784D01*
X016742Y011760D01*
X016645Y011756D01*
X016629Y011741D01*
X016331Y011568D01*
X016958Y011985D02*
X017138Y011985D01*
X017178Y011985D01*
X017428Y011990D01*
X017428Y012190D02*
X017679Y012175D01*
X017718Y012175D01*
X018258Y012175D01*
X018297Y012175D01*
X018553Y012161D01*
X018297Y012712D02*
X018553Y012909D01*
X018297Y012712D02*
X018258Y012712D01*
X018233Y012712D01*
X017324Y012603D01*
X017324Y012445D01*
X017324Y012406D01*
X017428Y012390D01*
X017324Y012603D02*
X017117Y012592D01*
X017084Y012576D01*
X017008Y012499D01*
X016991Y012466D01*
X016958Y012394D01*
X016810Y012542D02*
X016737Y012497D01*
X016810Y012542D02*
X017041Y012773D01*
X017135Y012819D01*
X016860Y012849D02*
X016891Y012961D01*
X016860Y012849D02*
X016844Y012816D01*
X016767Y012739D01*
X016735Y012723D01*
X016668Y012713D01*
X016648Y012713D01*
X016615Y012693D01*
X016135Y012670D02*
X016085Y012805D01*
X016084Y012821D01*
X016084Y012870D01*
X016084Y012909D01*
X016068Y013160D01*
X016258Y013160D02*
X016274Y013411D01*
X016274Y013450D01*
X016274Y013586D01*
X016367Y013827D01*
X016611Y013726D02*
X016474Y013549D01*
X016458Y013473D01*
X016458Y013450D01*
X016458Y013411D01*
X016458Y013160D01*
X016658Y013160D02*
X016674Y013411D01*
X016674Y013450D01*
X016674Y013466D01*
X016777Y013607D01*
X016611Y013726D02*
X016611Y013928D01*
X016532Y014071D01*
X015868Y013160D02*
X015853Y012909D01*
X015853Y012870D01*
X015853Y012738D01*
X015848Y012723D01*
X015643Y012508D01*
X015488Y012713D02*
X015320Y012638D01*
X015488Y012713D02*
X015543Y012748D01*
X015544Y012748D01*
X015583Y012751D01*
X015653Y012821D01*
X015653Y012870D01*
X015653Y012909D01*
X015668Y013160D01*
X015478Y013160D02*
X015494Y013411D01*
X015494Y013450D01*
X015494Y013499D01*
X015495Y013515D01*
X015568Y013627D01*
X015362Y013712D02*
X015525Y013943D01*
X015536Y014233D01*
X015249Y013949D02*
X015176Y013789D01*
X015176Y013689D01*
X015094Y013549D01*
X015094Y013450D01*
X015094Y013411D01*
X015078Y013160D01*
X014878Y013160D02*
X014878Y013411D01*
X014878Y013450D01*
X014878Y013473D01*
X014905Y013627D01*
X014990Y013766D01*
X014990Y013848D01*
X015032Y014010D01*
X015036Y014038D01*
X015072Y014130D01*
X014784Y013851D02*
X014784Y013763D01*
X014759Y013681D01*
X014673Y013595D01*
X014673Y013558D01*
X014673Y013450D01*
X014673Y013411D01*
X014688Y013160D01*
X014488Y013160D02*
X014504Y013411D01*
X014504Y013450D01*
X014504Y013549D01*
X014506Y013581D01*
X014548Y013768D01*
X014308Y013630D02*
X014304Y013504D01*
X014304Y013450D01*
X014304Y013411D01*
X014288Y013160D01*
X014098Y013160D02*
X014092Y012909D01*
X014092Y012870D01*
X014092Y012630D01*
X013883Y012816D02*
X013816Y012745D01*
X013733Y012634D01*
X013816Y012516D01*
X013977Y012355D01*
X014304Y012339D01*
X014607Y012713D02*
X014515Y012805D01*
X014504Y012816D01*
X014504Y012870D01*
X014504Y012909D01*
X014488Y013160D01*
X013898Y013160D02*
X013914Y013411D01*
X013914Y013450D01*
X013914Y013990D01*
X013914Y014029D01*
X013927Y014285D01*
X013683Y013411D02*
X013643Y013411D01*
X013627Y013411D01*
X013466Y013461D01*
X013683Y013411D02*
X013698Y013160D01*
X013683Y012909D01*
X013643Y012909D01*
X013619Y012909D01*
X013469Y012768D01*
X013883Y012816D02*
X013883Y012870D01*
X013883Y012909D01*
X013898Y013160D01*
X014607Y012713D02*
X014718Y012690D01*
X015278Y013160D02*
X015278Y013411D01*
X015278Y013450D01*
X015278Y013473D01*
X015294Y013549D01*
X015362Y013712D01*
X012928Y012190D02*
X012678Y012178D01*
X012638Y012178D01*
X012573Y012178D01*
X012481Y012270D01*
X012410Y012398D01*
X012253Y012095D02*
X012539Y012006D01*
X012638Y012006D01*
X012678Y012006D01*
X012928Y011990D01*
X012928Y011800D02*
X012678Y011816D01*
X012638Y011816D01*
X012443Y011816D01*
X012364Y011753D01*
X012011Y011400D01*
X011810Y011400D01*
X011651Y011418D01*
X011836Y011174D02*
X012083Y011225D01*
X012455Y011597D01*
X012615Y011600D01*
X012638Y011600D01*
X012678Y011600D01*
X012928Y011600D01*
X012928Y011400D02*
X012678Y011400D01*
X012638Y011400D01*
X012615Y011400D01*
X012491Y011380D01*
X012158Y011083D01*
X011865Y010908D01*
X011859Y010906D01*
X011028Y010906D01*
X010989Y010906D01*
X010678Y011260D01*
X011269Y010595D02*
X011443Y010697D01*
X011898Y010709D01*
X011976Y010742D01*
X012292Y010882D01*
X012579Y011169D01*
X012622Y011194D01*
X012638Y011194D01*
X012678Y011194D01*
X012928Y011210D01*
X012928Y011010D02*
X013179Y011004D01*
X013218Y011004D01*
X013399Y011004D01*
X013317Y010794D02*
X013218Y010794D01*
X013179Y010794D01*
X012928Y010810D01*
X012928Y010610D02*
X013179Y010626D01*
X013218Y010626D01*
X013363Y010626D01*
X013440Y010551D01*
X013584Y010512D01*
X013496Y010300D02*
X015349Y009691D01*
X015478Y008660D02*
X015478Y008409D01*
X015478Y008370D01*
X015478Y008347D01*
X015412Y008213D01*
X015364Y008098D01*
X015364Y007507D01*
X015364Y006972D01*
X015412Y006857D01*
X015425Y006829D01*
X015425Y006628D01*
X015371Y006497D01*
X015589Y006897D02*
X015623Y005217D01*
X015521Y005158D01*
X015359Y004997D01*
X015198Y004711D01*
X015178Y003771D01*
X015178Y003164D01*
X015178Y003066D01*
X015178Y003049D01*
X015270Y002957D01*
X017868Y001667D01*
X018678Y001210D01*
X018678Y000910D01*
X016821Y003056D02*
X016625Y002957D01*
X016495Y002957D01*
X016042Y002957D01*
X015999Y002995D01*
X015928Y003065D01*
X015928Y003164D01*
X015858Y003235D01*
X015808Y003235D01*
X015769Y003235D01*
X015552Y003410D01*
X016821Y003056D02*
X016855Y003090D01*
X016855Y003115D01*
X016855Y003154D01*
X017052Y003410D01*
X016304Y005410D02*
X016088Y005666D01*
X016088Y005705D01*
X016088Y005722D01*
X015752Y006949D01*
X015741Y006976D01*
X015688Y007039D01*
X015688Y007441D01*
X015688Y007972D01*
X015698Y008027D01*
X015859Y008189D01*
X015868Y008347D01*
X015868Y008370D01*
X015868Y008409D01*
X015868Y008660D01*
X015668Y008660D02*
X015668Y008409D01*
X015668Y008370D01*
X015668Y008347D01*
X015646Y008240D01*
X015560Y008114D01*
X015539Y008063D01*
X015526Y008007D01*
X015526Y007475D01*
X015526Y007004D01*
X015549Y006949D01*
X015589Y006897D01*
X015850Y007106D02*
X015880Y007069D01*
X016076Y006835D01*
X015850Y007106D02*
X015850Y007374D01*
X015850Y007905D01*
X015856Y007962D01*
X016003Y008109D01*
X016039Y008158D01*
X016053Y008188D01*
X016068Y008347D01*
X016068Y008370D01*
X016068Y008409D01*
X016068Y008660D01*
X016258Y008660D02*
X016243Y008409D01*
X016243Y008370D01*
X016243Y008192D01*
X016210Y008008D01*
X016443Y007830D02*
X016443Y008370D01*
X016443Y008409D01*
X016458Y008660D01*
X016658Y008660D02*
X016674Y008524D01*
X016713Y008524D01*
X016777Y008524D01*
X016867Y008434D01*
X016980Y007855D01*
X016980Y007830D01*
X016980Y007791D01*
X017177Y007535D01*
X016429Y007535D02*
X016443Y007791D01*
X016443Y007830D01*
X016658Y008660D02*
X016643Y008911D01*
X016643Y008950D01*
X016643Y009004D01*
X016631Y009015D01*
X016539Y009107D01*
X016391Y009130D01*
X016981Y009420D02*
X016977Y009579D01*
X016962Y009595D01*
X016981Y009420D02*
X017025Y009328D01*
X017158Y009195D01*
X017273Y009075D01*
X017096Y008948D02*
X017062Y008988D01*
X017096Y008948D02*
X017166Y008823D01*
X017757Y008723D02*
X017679Y009359D01*
X017679Y009375D01*
X017679Y009414D01*
X017428Y009430D01*
X017428Y009630D02*
X017679Y009627D01*
X017718Y009627D01*
X017993Y009627D01*
X017741Y009830D02*
X018292Y009851D01*
X018454Y010012D01*
X018820Y010701D01*
X018712Y010963D02*
X019032Y011107D01*
X019114Y011107D01*
X019225Y011153D01*
X019504Y011330D01*
X019900Y011330D01*
X019931Y011343D01*
X020245Y011657D01*
X020258Y011688D01*
X020258Y012084D01*
X020678Y012910D01*
X019678Y012910D02*
X020098Y012084D01*
X020098Y011736D01*
X019852Y011490D01*
X019456Y011490D01*
X019425Y011477D01*
X019117Y011314D01*
X019076Y011297D01*
X018953Y011297D01*
X018636Y011145D01*
X018138Y010647D01*
X018008Y010538D01*
X017925Y010456D01*
X017896Y010436D01*
X017741Y010420D01*
X017718Y010420D01*
X017679Y010420D01*
X017428Y010420D01*
X017428Y010610D02*
X017679Y010610D01*
X017718Y010610D01*
X017741Y010610D01*
X017855Y010626D01*
X018062Y010830D01*
X018215Y010983D01*
X018284Y011138D01*
X017954Y011091D02*
X017876Y010929D01*
X017783Y010837D01*
X017772Y010826D01*
X017718Y010826D01*
X017679Y010826D01*
X017428Y010810D01*
X017428Y010220D02*
X017679Y010220D01*
X017718Y010220D01*
X017741Y010220D01*
X017896Y010236D01*
X017934Y010247D01*
X017953Y010255D01*
X017986Y010275D01*
X018079Y010367D01*
X018233Y010484D01*
X018712Y010963D01*
X017899Y011461D02*
X017772Y011416D01*
X017718Y011416D01*
X017679Y011416D01*
X017428Y011400D01*
X017428Y010020D02*
X017679Y010036D01*
X017718Y010036D01*
X017968Y010036D01*
X018050Y010070D01*
X018178Y010127D01*
X017741Y009830D02*
X017718Y009830D01*
X017679Y009830D01*
X017428Y009830D01*
X017757Y008723D02*
X017916Y008563D01*
X018139Y008560D01*
X020328Y006583D02*
X020504Y006490D01*
X020852Y006490D01*
X021098Y006736D01*
X021098Y007084D01*
X021058Y007163D01*
X020678Y007910D01*
X021265Y007249D02*
X021258Y006688D01*
X021245Y006657D01*
X020931Y006343D01*
X020900Y006330D01*
X020265Y006330D01*
X020095Y006296D01*
X014177Y007535D02*
X014114Y007791D01*
X014114Y007830D01*
X014114Y008370D01*
X014114Y008409D01*
X014098Y008660D01*
X014114Y008911D01*
X014114Y008950D01*
X014114Y008999D01*
X014115Y009015D01*
X014151Y009130D01*
X013376Y009911D01*
X013283Y010003D01*
X013247Y010036D01*
X013218Y010036D01*
X013179Y010036D01*
X012928Y010020D01*
X012678Y010004D01*
X012638Y010004D01*
X012543Y010004D01*
X012340Y010001D01*
X012229Y009890D01*
X012157Y009767D01*
X012123Y009733D01*
X012098Y009733D01*
X012059Y009733D01*
X011803Y009536D01*
X012418Y009812D02*
X012539Y009814D01*
X012638Y009814D01*
X012678Y009814D01*
X012928Y009830D01*
X012928Y009630D02*
X012678Y009630D01*
X012638Y009630D01*
X012615Y009630D01*
X012588Y009605D01*
X012518Y009535D01*
X012484Y009439D01*
X012484Y009311D01*
X012513Y009249D01*
X012761Y009197D02*
X012761Y009375D01*
X012761Y009414D01*
X012928Y009430D01*
X012928Y010220D02*
X012678Y010236D01*
X012638Y010236D01*
X012098Y010236D01*
X012059Y010236D01*
X011803Y010284D01*
X012928Y010420D02*
X013179Y010420D01*
X013218Y010420D01*
X013241Y010420D01*
X013272Y010404D01*
X013359Y010355D01*
X013496Y010300D01*
X013529Y010764D02*
X013317Y010794D01*
X013698Y008660D02*
X013683Y008409D01*
X013643Y008409D01*
X013627Y008409D01*
X013481Y008292D01*
X013528Y007896D02*
X013883Y008316D01*
X013898Y008347D01*
X013898Y008370D01*
X013898Y008409D01*
X013898Y008660D01*
X013528Y007896D02*
X013528Y007830D01*
X013528Y007791D01*
X013429Y007535D01*
X013375Y005449D02*
X013372Y004924D01*
D31*
X013564Y006438D03*
X015182Y006729D03*
X015635Y004882D03*
X017568Y004343D03*
X018029Y008835D03*
X018178Y010127D03*
X018820Y010701D03*
X019143Y010839D03*
X017954Y011091D03*
X016749Y011504D03*
X016615Y010953D03*
X015690Y010867D03*
X014985Y011386D03*
X014725Y011749D03*
X015320Y012638D03*
X015643Y012508D03*
X016135Y012670D03*
X016367Y013827D03*
X018745Y013402D03*
X018761Y014816D03*
X014092Y012630D03*
X013733Y012634D03*
X012410Y012398D03*
X012253Y012095D03*
X011910Y011642D03*
X011651Y011418D03*
X011269Y010595D03*
X010548Y009611D03*
X010792Y009071D03*
X011269Y009351D03*
X011064Y008300D03*
X011643Y005599D03*
X010678Y004658D03*
X008214Y006091D03*
X006651Y010579D03*
X010013Y012914D03*
X015517Y009182D03*
X016233Y009599D03*
D32*
X012928Y012390D02*
X012693Y012390D01*
X012693Y012445D01*
X012693Y012515D01*
X012651Y012646D01*
M02*
