G75*
G70*
%OFA0B0*%
%FSLAX24Y24*%
%IPPOS*%
%LPD*%
%AMOC8*
5,1,8,0,0,1.08239X$1,22.5*
%
%ADD10C,0.0000*%
%ADD11C,0.0040*%
%ADD12C,0.0030*%
%ADD13C,0.0060*%
%ADD14C,0.0080*%
%ADD15R,0.0079X0.0079*%
%ADD16C,0.0020*%
D10*
X001875Y000107D02*
X001875Y019792D01*
X021560Y019792D01*
X021560Y000107D01*
X001875Y000107D01*
X003681Y008886D02*
X003683Y008912D01*
X003689Y008938D01*
X003699Y008963D01*
X003712Y008986D01*
X003728Y009006D01*
X003748Y009024D01*
X003770Y009039D01*
X003793Y009051D01*
X003819Y009059D01*
X003845Y009063D01*
X003871Y009063D01*
X003897Y009059D01*
X003923Y009051D01*
X003947Y009039D01*
X003968Y009024D01*
X003988Y009006D01*
X004004Y008986D01*
X004017Y008963D01*
X004027Y008938D01*
X004033Y008912D01*
X004035Y008886D01*
X004033Y008860D01*
X004027Y008834D01*
X004017Y008809D01*
X004004Y008786D01*
X003988Y008766D01*
X003968Y008748D01*
X003946Y008733D01*
X003923Y008721D01*
X003897Y008713D01*
X003871Y008709D01*
X003845Y008709D01*
X003819Y008713D01*
X003793Y008721D01*
X003769Y008733D01*
X003748Y008748D01*
X003728Y008766D01*
X003712Y008786D01*
X003699Y008809D01*
X003689Y008834D01*
X003683Y008860D01*
X003681Y008886D01*
X003681Y010619D02*
X003683Y010645D01*
X003689Y010671D01*
X003699Y010696D01*
X003712Y010719D01*
X003728Y010739D01*
X003748Y010757D01*
X003770Y010772D01*
X003793Y010784D01*
X003819Y010792D01*
X003845Y010796D01*
X003871Y010796D01*
X003897Y010792D01*
X003923Y010784D01*
X003947Y010772D01*
X003968Y010757D01*
X003988Y010739D01*
X004004Y010719D01*
X004017Y010696D01*
X004027Y010671D01*
X004033Y010645D01*
X004035Y010619D01*
X004033Y010593D01*
X004027Y010567D01*
X004017Y010542D01*
X004004Y010519D01*
X003988Y010499D01*
X003968Y010481D01*
X003946Y010466D01*
X003923Y010454D01*
X003897Y010446D01*
X003871Y010442D01*
X003845Y010442D01*
X003819Y010446D01*
X003793Y010454D01*
X003769Y010466D01*
X003748Y010481D01*
X003728Y010499D01*
X003712Y010519D01*
X003699Y010542D01*
X003689Y010567D01*
X003683Y010593D01*
X003681Y010619D01*
X002284Y017410D02*
X002286Y017449D01*
X002292Y017488D01*
X002302Y017526D01*
X002315Y017563D01*
X002332Y017598D01*
X002352Y017632D01*
X002376Y017663D01*
X002403Y017692D01*
X002432Y017718D01*
X002464Y017741D01*
X002498Y017761D01*
X002534Y017777D01*
X002571Y017789D01*
X002610Y017798D01*
X002649Y017803D01*
X002688Y017804D01*
X002727Y017801D01*
X002766Y017794D01*
X002803Y017783D01*
X002840Y017769D01*
X002875Y017751D01*
X002908Y017730D01*
X002939Y017705D01*
X002967Y017678D01*
X002992Y017648D01*
X003014Y017615D01*
X003033Y017581D01*
X003048Y017545D01*
X003060Y017507D01*
X003068Y017469D01*
X003072Y017430D01*
X003072Y017390D01*
X003068Y017351D01*
X003060Y017313D01*
X003048Y017275D01*
X003033Y017239D01*
X003014Y017205D01*
X002992Y017172D01*
X002967Y017142D01*
X002939Y017115D01*
X002908Y017090D01*
X002875Y017069D01*
X002840Y017051D01*
X002803Y017037D01*
X002766Y017026D01*
X002727Y017019D01*
X002688Y017016D01*
X002649Y017017D01*
X002610Y017022D01*
X002571Y017031D01*
X002534Y017043D01*
X002498Y017059D01*
X002464Y017079D01*
X002432Y017102D01*
X002403Y017128D01*
X002376Y017157D01*
X002352Y017188D01*
X002332Y017222D01*
X002315Y017257D01*
X002302Y017294D01*
X002292Y017332D01*
X002286Y017371D01*
X002284Y017410D01*
X020284Y017410D02*
X020286Y017449D01*
X020292Y017488D01*
X020302Y017526D01*
X020315Y017563D01*
X020332Y017598D01*
X020352Y017632D01*
X020376Y017663D01*
X020403Y017692D01*
X020432Y017718D01*
X020464Y017741D01*
X020498Y017761D01*
X020534Y017777D01*
X020571Y017789D01*
X020610Y017798D01*
X020649Y017803D01*
X020688Y017804D01*
X020727Y017801D01*
X020766Y017794D01*
X020803Y017783D01*
X020840Y017769D01*
X020875Y017751D01*
X020908Y017730D01*
X020939Y017705D01*
X020967Y017678D01*
X020992Y017648D01*
X021014Y017615D01*
X021033Y017581D01*
X021048Y017545D01*
X021060Y017507D01*
X021068Y017469D01*
X021072Y017430D01*
X021072Y017390D01*
X021068Y017351D01*
X021060Y017313D01*
X021048Y017275D01*
X021033Y017239D01*
X021014Y017205D01*
X020992Y017172D01*
X020967Y017142D01*
X020939Y017115D01*
X020908Y017090D01*
X020875Y017069D01*
X020840Y017051D01*
X020803Y017037D01*
X020766Y017026D01*
X020727Y017019D01*
X020688Y017016D01*
X020649Y017017D01*
X020610Y017022D01*
X020571Y017031D01*
X020534Y017043D01*
X020498Y017059D01*
X020464Y017079D01*
X020432Y017102D01*
X020403Y017128D01*
X020376Y017157D01*
X020352Y017188D01*
X020332Y017222D01*
X020315Y017257D01*
X020302Y017294D01*
X020292Y017332D01*
X020286Y017371D01*
X020284Y017410D01*
X020284Y002410D02*
X020286Y002449D01*
X020292Y002488D01*
X020302Y002526D01*
X020315Y002563D01*
X020332Y002598D01*
X020352Y002632D01*
X020376Y002663D01*
X020403Y002692D01*
X020432Y002718D01*
X020464Y002741D01*
X020498Y002761D01*
X020534Y002777D01*
X020571Y002789D01*
X020610Y002798D01*
X020649Y002803D01*
X020688Y002804D01*
X020727Y002801D01*
X020766Y002794D01*
X020803Y002783D01*
X020840Y002769D01*
X020875Y002751D01*
X020908Y002730D01*
X020939Y002705D01*
X020967Y002678D01*
X020992Y002648D01*
X021014Y002615D01*
X021033Y002581D01*
X021048Y002545D01*
X021060Y002507D01*
X021068Y002469D01*
X021072Y002430D01*
X021072Y002390D01*
X021068Y002351D01*
X021060Y002313D01*
X021048Y002275D01*
X021033Y002239D01*
X021014Y002205D01*
X020992Y002172D01*
X020967Y002142D01*
X020939Y002115D01*
X020908Y002090D01*
X020875Y002069D01*
X020840Y002051D01*
X020803Y002037D01*
X020766Y002026D01*
X020727Y002019D01*
X020688Y002016D01*
X020649Y002017D01*
X020610Y002022D01*
X020571Y002031D01*
X020534Y002043D01*
X020498Y002059D01*
X020464Y002079D01*
X020432Y002102D01*
X020403Y002128D01*
X020376Y002157D01*
X020352Y002188D01*
X020332Y002222D01*
X020315Y002257D01*
X020302Y002294D01*
X020292Y002332D01*
X020286Y002371D01*
X020284Y002410D01*
D11*
X019724Y003680D02*
X019584Y003680D01*
X019537Y003727D01*
X019537Y003820D01*
X019584Y003867D01*
X019724Y003867D01*
X019724Y003960D02*
X019724Y003680D01*
X019430Y003680D02*
X019430Y003820D01*
X019383Y003867D01*
X019243Y003867D01*
X019243Y003680D01*
X019135Y003727D02*
X019135Y003820D01*
X019042Y003820D01*
X019135Y003727D02*
X019088Y003680D01*
X018995Y003680D01*
X018948Y003727D01*
X018948Y003914D01*
X018995Y003960D01*
X019088Y003960D01*
X019135Y003914D01*
X019088Y004680D02*
X018995Y004680D01*
X018948Y004727D01*
X019042Y004820D02*
X019088Y004820D01*
X019135Y004773D01*
X019135Y004727D01*
X019088Y004680D01*
X019088Y004820D02*
X019135Y004867D01*
X019135Y004914D01*
X019088Y004960D01*
X018995Y004960D01*
X018948Y004914D01*
X019243Y004960D02*
X019243Y004773D01*
X019336Y004680D01*
X019430Y004773D01*
X019430Y004960D01*
X019537Y004914D02*
X019584Y004960D01*
X019678Y004960D01*
X019724Y004914D01*
X019724Y004867D01*
X019678Y004820D01*
X019724Y004773D01*
X019724Y004727D01*
X019678Y004680D01*
X019584Y004680D01*
X019537Y004727D01*
X019631Y004820D02*
X019678Y004820D01*
X019626Y005680D02*
X019626Y005820D01*
X019579Y005867D01*
X019439Y005867D01*
X019439Y005680D01*
X019336Y005680D02*
X019243Y005680D01*
X019290Y005680D02*
X019290Y005867D01*
X019243Y005867D01*
X019290Y005960D02*
X019290Y006007D01*
X019135Y005960D02*
X019135Y005773D01*
X019042Y005680D01*
X018948Y005773D01*
X018948Y005960D01*
X017215Y006624D02*
X017169Y006578D01*
X017075Y006578D01*
X017028Y006624D01*
X017215Y006811D01*
X017215Y006624D01*
X017028Y006624D02*
X017028Y006811D01*
X017075Y006858D01*
X017169Y006858D01*
X017215Y006811D01*
X016921Y006578D02*
X016734Y006578D01*
X016827Y006578D02*
X016827Y006858D01*
X016734Y006764D01*
X016626Y006811D02*
X016579Y006858D01*
X016486Y006858D01*
X016439Y006811D01*
X016439Y006624D01*
X016486Y006578D01*
X016579Y006578D01*
X016626Y006624D01*
X016558Y006091D02*
X016418Y006091D01*
X016418Y005811D01*
X016418Y005904D02*
X016558Y005904D01*
X016605Y005951D01*
X016605Y006044D01*
X016558Y006091D01*
X016713Y006044D02*
X016713Y005998D01*
X016759Y005951D01*
X016853Y005951D01*
X016899Y005904D01*
X016899Y005857D01*
X016853Y005811D01*
X016759Y005811D01*
X016713Y005857D01*
X016713Y005904D01*
X016759Y005951D01*
X016853Y005951D02*
X016899Y005998D01*
X016899Y006044D01*
X016853Y006091D01*
X016759Y006091D01*
X016713Y006044D01*
X016511Y005904D02*
X016605Y005811D01*
X016599Y005012D02*
X016413Y005012D01*
X016413Y004732D01*
X016599Y004732D01*
X016707Y004732D02*
X016847Y004732D01*
X016894Y004779D01*
X016894Y004966D01*
X016847Y005012D01*
X016707Y005012D01*
X016707Y004732D01*
X016506Y004872D02*
X016413Y004872D01*
X016305Y004732D02*
X016118Y004732D01*
X016118Y005012D01*
X017002Y004919D02*
X017095Y005012D01*
X017095Y004732D01*
X017002Y004732D02*
X017189Y004732D01*
X017362Y004081D02*
X017362Y003894D01*
X017269Y003987D02*
X017456Y003987D01*
X016958Y002949D02*
X016865Y002903D01*
X016772Y002809D01*
X016912Y002809D01*
X016958Y002762D01*
X016958Y002716D01*
X016912Y002669D01*
X016818Y002669D01*
X016772Y002716D01*
X016772Y002809D01*
X016664Y002809D02*
X016617Y002762D01*
X016477Y002762D01*
X016477Y002669D02*
X016477Y002949D01*
X016617Y002949D01*
X016664Y002903D01*
X016664Y002809D01*
X016570Y002762D02*
X016664Y002669D01*
X015807Y003894D02*
X015807Y004081D01*
X015714Y003987D02*
X015901Y003987D01*
X013116Y004044D02*
X013069Y003998D01*
X013116Y004044D02*
X013116Y004138D01*
X013069Y004184D01*
X012976Y004184D01*
X012929Y004138D01*
X012929Y004091D01*
X012976Y003998D01*
X012836Y003998D01*
X012836Y004184D01*
X012836Y003796D02*
X013116Y003796D01*
X013116Y003703D02*
X013116Y003890D01*
X012929Y003703D02*
X012836Y003796D01*
X012882Y003595D02*
X012836Y003548D01*
X012836Y003455D01*
X012882Y003408D01*
X013069Y003408D01*
X013116Y003455D01*
X013116Y003548D01*
X013069Y003595D01*
X014036Y006755D02*
X014130Y006755D01*
X014177Y006801D01*
X014284Y006801D02*
X014284Y006755D01*
X014284Y006801D02*
X014471Y006988D01*
X014471Y007035D01*
X014284Y007035D01*
X014177Y006988D02*
X014130Y007035D01*
X014036Y007035D01*
X013990Y006988D01*
X013990Y006801D01*
X014036Y006755D01*
X011374Y009607D02*
X011187Y009607D01*
X011141Y009654D01*
X011141Y009747D01*
X011187Y009794D01*
X011281Y009902D02*
X011281Y010042D01*
X011328Y010089D01*
X011374Y010089D01*
X011421Y010042D01*
X011421Y009949D01*
X011374Y009902D01*
X011281Y009902D01*
X011187Y009995D01*
X011141Y010089D01*
X011374Y009794D02*
X011421Y009747D01*
X011421Y009654D01*
X011374Y009607D01*
X009958Y009897D02*
X009912Y009850D01*
X009818Y009850D01*
X009772Y009897D01*
X009772Y009990D02*
X009865Y010037D01*
X009912Y010037D01*
X009958Y009990D01*
X009958Y009897D01*
X009772Y009990D02*
X009772Y010130D01*
X009958Y010130D01*
X009664Y010084D02*
X009664Y009990D01*
X009617Y009944D01*
X009477Y009944D01*
X009570Y009944D02*
X009664Y009850D01*
X009477Y009850D02*
X009477Y010130D01*
X009617Y010130D01*
X009664Y010084D01*
X008736Y010160D02*
X008549Y010160D01*
X008736Y010347D01*
X008736Y010394D01*
X008689Y010441D01*
X008596Y010441D01*
X008549Y010394D01*
X008348Y010441D02*
X008348Y010160D01*
X008255Y010160D02*
X008441Y010160D01*
X008255Y010347D02*
X008348Y010441D01*
X008147Y010394D02*
X008100Y010441D01*
X008007Y010441D01*
X007960Y010394D01*
X007960Y010207D01*
X008007Y010160D01*
X008100Y010160D01*
X008147Y010207D01*
X008464Y011087D02*
X008651Y011087D01*
X008698Y011134D01*
X008698Y011228D01*
X008651Y011274D01*
X008698Y011382D02*
X008698Y011569D01*
X008698Y011476D02*
X008417Y011476D01*
X008511Y011382D01*
X008464Y011274D02*
X008417Y011228D01*
X008417Y011134D01*
X008464Y011087D01*
X006650Y009757D02*
X006650Y009570D01*
X006650Y009664D02*
X006370Y009664D01*
X006463Y009570D01*
X006650Y009463D02*
X006650Y009276D01*
X006650Y009369D02*
X006370Y009369D01*
X006463Y009276D01*
X006417Y009168D02*
X006370Y009121D01*
X006370Y009028D01*
X006417Y008981D01*
X006604Y008981D01*
X006650Y009028D01*
X006650Y009121D01*
X006604Y009168D01*
X008021Y008187D02*
X008301Y008187D01*
X008301Y008094D02*
X008301Y008281D01*
X008114Y008094D02*
X008021Y008187D01*
X008067Y007986D02*
X008161Y007986D01*
X008208Y007939D01*
X008208Y007799D01*
X008301Y007799D02*
X008021Y007799D01*
X008021Y007939D01*
X008067Y007986D01*
X008208Y007893D02*
X008301Y007986D01*
X009468Y007990D02*
X009468Y007710D01*
X009468Y007803D02*
X009608Y007803D01*
X009655Y007850D01*
X009655Y007943D01*
X009608Y007990D01*
X009468Y007990D01*
X009561Y007803D02*
X009655Y007710D01*
X009762Y007850D02*
X009949Y007850D01*
X009903Y007710D02*
X009903Y007990D01*
X009762Y007850D01*
X009840Y002798D02*
X009840Y002517D01*
X009747Y002517D02*
X009934Y002517D01*
X009747Y002704D02*
X009840Y002798D01*
X009639Y002751D02*
X009592Y002798D01*
X009499Y002798D01*
X009452Y002751D01*
X009452Y002704D01*
X009499Y002658D01*
X009592Y002658D01*
X009639Y002611D01*
X009639Y002564D01*
X009592Y002517D01*
X009499Y002517D01*
X009452Y002564D01*
X003479Y003161D02*
X003293Y003161D01*
X003386Y003254D02*
X003386Y003067D01*
X003349Y003532D02*
X003349Y003719D01*
X002851Y001930D02*
X002757Y001837D01*
X002650Y001884D02*
X002650Y001790D01*
X002603Y001743D01*
X002463Y001743D01*
X002463Y001650D02*
X002463Y001930D01*
X002603Y001930D01*
X002650Y001884D01*
X002851Y001930D02*
X002851Y001650D01*
X002944Y001650D02*
X002757Y001650D01*
X002308Y001697D02*
X002308Y001930D01*
X002262Y001930D02*
X002355Y001930D01*
X002308Y001697D02*
X002262Y001650D01*
X002215Y001650D01*
X002168Y001697D01*
X002461Y012910D02*
X002461Y013097D01*
X002367Y013003D02*
X002554Y013003D01*
X003224Y013675D02*
X003270Y013628D01*
X003364Y013628D01*
X003411Y013675D01*
X003518Y013628D02*
X003705Y013628D01*
X003612Y013628D02*
X003612Y013908D01*
X003518Y013815D01*
X003411Y013861D02*
X003364Y013908D01*
X003270Y013908D01*
X003224Y013861D01*
X003224Y013675D01*
X002706Y013918D02*
X002706Y014012D01*
X002706Y013965D02*
X002426Y013965D01*
X002426Y013918D02*
X002426Y014012D01*
X002473Y014115D02*
X002659Y014115D01*
X002706Y014161D01*
X002706Y014255D01*
X002659Y014301D01*
X002706Y014409D02*
X002706Y014596D01*
X002706Y014503D02*
X002426Y014503D01*
X002519Y014409D01*
X002473Y014301D02*
X002426Y014255D01*
X002426Y014161D01*
X002473Y014115D01*
X003813Y013861D02*
X003860Y013908D01*
X003953Y013908D01*
X004000Y013861D01*
X004000Y013815D01*
X003953Y013768D01*
X004000Y013721D01*
X004000Y013675D01*
X003953Y013628D01*
X003860Y013628D01*
X003813Y013675D01*
X003906Y013768D02*
X003953Y013768D01*
X006654Y016512D02*
X006654Y016699D01*
X006747Y016606D02*
X006560Y016606D01*
X007448Y016025D02*
X007588Y015885D01*
X007588Y016072D01*
X007728Y016025D02*
X007448Y016025D01*
X007728Y015778D02*
X007728Y015591D01*
X007728Y015684D02*
X007448Y015684D01*
X007541Y015591D01*
X007495Y015483D02*
X007448Y015436D01*
X007448Y015343D01*
X007495Y015296D01*
X007681Y015296D01*
X007728Y015343D01*
X007728Y015436D01*
X007681Y015483D01*
X008300Y015091D02*
X008300Y014998D01*
X008347Y014951D01*
X008347Y014843D02*
X008300Y014797D01*
X008300Y014703D01*
X008347Y014657D01*
X008534Y014657D01*
X008581Y014703D01*
X008581Y014797D01*
X008534Y014843D01*
X008581Y014951D02*
X008394Y015138D01*
X008347Y015138D01*
X008300Y015091D01*
X008581Y015138D02*
X008581Y014951D01*
X007314Y017681D02*
X007128Y017681D01*
X007314Y017868D01*
X007314Y017915D01*
X007268Y017962D01*
X007174Y017962D01*
X007128Y017915D01*
X007020Y017915D02*
X007020Y017822D01*
X006973Y017775D01*
X006833Y017775D01*
X006833Y017681D02*
X006833Y017962D01*
X006973Y017962D01*
X007020Y017915D01*
X006725Y017962D02*
X006632Y017962D01*
X006678Y017962D02*
X006678Y017728D01*
X006632Y017681D01*
X006585Y017681D01*
X006538Y017728D01*
X012660Y013818D02*
X012660Y013631D01*
X012706Y013585D01*
X012800Y013585D01*
X012847Y013631D01*
X012954Y013725D02*
X013141Y013725D01*
X013095Y013585D02*
X013095Y013865D01*
X012954Y013725D01*
X012847Y013818D02*
X012800Y013865D01*
X012706Y013865D01*
X012660Y013818D01*
X016997Y015130D02*
X016997Y015270D01*
X017044Y015317D01*
X017137Y015317D01*
X017184Y015270D01*
X017184Y015130D01*
X017277Y015130D02*
X016997Y015130D01*
X017184Y015223D02*
X017277Y015317D01*
X017277Y015425D02*
X017231Y015425D01*
X017044Y015612D01*
X016997Y015612D01*
X016997Y015425D01*
X018948Y015727D02*
X018995Y015680D01*
X019088Y015680D01*
X019135Y015727D01*
X019135Y015820D01*
X019042Y015820D01*
X019135Y015914D02*
X019088Y015960D01*
X018995Y015960D01*
X018948Y015914D01*
X018948Y015727D01*
X019243Y015680D02*
X019243Y015867D01*
X019383Y015867D01*
X019430Y015820D01*
X019430Y015680D01*
X019537Y015727D02*
X019537Y015820D01*
X019584Y015867D01*
X019724Y015867D01*
X019724Y015960D02*
X019724Y015680D01*
X019584Y015680D01*
X019537Y015727D01*
X019584Y014960D02*
X019678Y014960D01*
X019724Y014914D01*
X019724Y014867D01*
X019678Y014820D01*
X019724Y014773D01*
X019724Y014727D01*
X019678Y014680D01*
X019584Y014680D01*
X019537Y014727D01*
X019430Y014773D02*
X019430Y014960D01*
X019537Y014914D02*
X019584Y014960D01*
X019631Y014820D02*
X019678Y014820D01*
X019430Y014773D02*
X019336Y014680D01*
X019243Y014773D01*
X019243Y014960D01*
X019135Y014914D02*
X019135Y014867D01*
X019088Y014820D01*
X019135Y014773D01*
X019135Y014727D01*
X019088Y014680D01*
X018995Y014680D01*
X018948Y014727D01*
X019042Y014820D02*
X019088Y014820D01*
X019135Y014914D02*
X019088Y014960D01*
X018995Y014960D01*
X018948Y014914D01*
X018948Y013960D02*
X018948Y013773D01*
X019042Y013680D01*
X019135Y013773D01*
X019135Y013960D01*
X019243Y013867D02*
X019290Y013867D01*
X019290Y013680D01*
X019336Y013680D02*
X019243Y013680D01*
X019439Y013680D02*
X019439Y013867D01*
X019579Y013867D01*
X019626Y013820D01*
X019626Y013680D01*
X019290Y013960D02*
X019290Y014007D01*
X018125Y012731D02*
X018032Y012731D01*
X017985Y012684D01*
X017985Y012637D01*
X018032Y012544D01*
X017892Y012544D01*
X017892Y012731D01*
X018125Y012731D02*
X018172Y012684D01*
X018172Y012591D01*
X018125Y012544D01*
X018125Y012436D02*
X018172Y012389D01*
X018172Y012296D01*
X018125Y012249D01*
X017939Y012249D01*
X017892Y012296D01*
X017892Y012389D01*
X017939Y012436D01*
D12*
X014274Y011479D02*
X014080Y011479D01*
X014177Y011479D02*
X014177Y011769D01*
X014080Y011672D01*
X013979Y011769D02*
X013979Y011527D01*
X013931Y011479D01*
X013834Y011479D01*
X013786Y011527D01*
X013786Y011769D01*
X012487Y012473D02*
X012173Y012787D01*
X012173Y012630D02*
X012487Y012630D01*
X012487Y012787D02*
X012173Y012473D01*
X012330Y012473D02*
X012330Y012787D01*
X011985Y014836D02*
X011791Y014836D01*
X011743Y014884D01*
X011743Y014981D01*
X011791Y015029D01*
X011985Y015029D01*
X012033Y014981D01*
X012033Y014884D01*
X011985Y014836D01*
X011936Y014932D02*
X012033Y015029D01*
X011985Y015130D02*
X011888Y015130D01*
X011888Y015275D01*
X011936Y015324D01*
X011985Y015324D01*
X012033Y015275D01*
X012033Y015179D01*
X011985Y015130D01*
X011888Y015130D02*
X011791Y015227D01*
X011743Y015324D01*
X013265Y015586D02*
X013313Y015537D01*
X013410Y015537D01*
X013458Y015586D01*
X013560Y015586D02*
X013608Y015537D01*
X013705Y015537D01*
X013753Y015586D01*
X013753Y015634D01*
X013705Y015682D01*
X013656Y015682D01*
X013705Y015682D02*
X013753Y015731D01*
X013753Y015779D01*
X013705Y015827D01*
X013608Y015827D01*
X013560Y015779D01*
X013458Y015779D02*
X013410Y015827D01*
X013313Y015827D01*
X013265Y015779D01*
X013265Y015586D01*
X007593Y012846D02*
X007400Y012846D01*
X007400Y012701D01*
X007496Y012749D01*
X007545Y012749D01*
X007593Y012701D01*
X007593Y012604D01*
X007545Y012556D01*
X007448Y012556D01*
X007400Y012604D01*
X007299Y012604D02*
X007299Y012797D01*
X007250Y012846D01*
X007153Y012846D01*
X007105Y012797D01*
X007105Y012604D01*
X007153Y012556D01*
X007250Y012556D01*
X007299Y012604D01*
X007299Y012556D02*
X007202Y012652D01*
X007211Y011116D02*
X007114Y011116D01*
X007066Y011067D01*
X007066Y010874D01*
X007114Y010825D01*
X007211Y010825D01*
X007259Y010874D01*
X007259Y011067D01*
X007211Y011116D01*
X007360Y011067D02*
X007409Y011116D01*
X007505Y011116D01*
X007554Y011067D01*
X007554Y011019D01*
X007360Y010825D01*
X007554Y010825D01*
X007259Y010825D02*
X007162Y010922D01*
X008767Y007640D02*
X008863Y007640D01*
X008912Y007592D01*
X008912Y007398D01*
X008863Y007350D01*
X008767Y007350D01*
X008718Y007398D01*
X008718Y007592D01*
X008767Y007640D01*
X008815Y007447D02*
X008912Y007350D01*
X009013Y007495D02*
X009206Y007495D01*
X009158Y007350D02*
X009158Y007640D01*
X009013Y007495D01*
X010343Y007398D02*
X010392Y007350D01*
X010488Y007350D01*
X010537Y007398D01*
X010537Y007592D01*
X010488Y007640D01*
X010392Y007640D01*
X010343Y007592D01*
X010343Y007398D01*
X010440Y007447D02*
X010537Y007350D01*
X010638Y007350D02*
X010831Y007350D01*
X010735Y007350D02*
X010735Y007640D01*
X010638Y007543D01*
X012554Y005704D02*
X012844Y005704D01*
X012844Y005800D02*
X012844Y005607D01*
X012844Y005506D02*
X012844Y005312D01*
X012844Y005409D02*
X012554Y005409D01*
X012651Y005312D01*
X012699Y005211D02*
X012748Y005163D01*
X012748Y005018D01*
X012844Y005018D02*
X012554Y005018D01*
X012554Y005163D01*
X012602Y005211D01*
X012699Y005211D01*
X012748Y005114D02*
X012844Y005211D01*
X012651Y005607D02*
X012554Y005704D01*
X011128Y004736D02*
X011128Y004542D01*
X011079Y004494D01*
X010982Y004494D01*
X010934Y004542D01*
X011128Y004736D01*
X011079Y004784D01*
X010982Y004784D01*
X010934Y004736D01*
X010934Y004542D01*
X010833Y004494D02*
X010639Y004494D01*
X010736Y004494D02*
X010736Y004784D01*
X010639Y004687D01*
X010538Y004639D02*
X010490Y004591D01*
X010345Y004591D01*
X010441Y004591D02*
X010538Y004494D01*
X010538Y004639D02*
X010538Y004736D01*
X010490Y004784D01*
X010345Y004784D01*
X010345Y004494D01*
X009346Y004562D02*
X009346Y004755D01*
X009297Y004804D01*
X009201Y004804D01*
X009152Y004755D01*
X009152Y004707D01*
X009201Y004659D01*
X009346Y004659D01*
X009346Y004562D02*
X009297Y004514D01*
X009201Y004514D01*
X009152Y004562D01*
X009051Y004514D02*
X008954Y004610D01*
X009003Y004610D02*
X008858Y004610D01*
X008858Y004514D02*
X008858Y004804D01*
X009003Y004804D01*
X009051Y004755D01*
X009051Y004659D01*
X009003Y004610D01*
X007282Y005250D02*
X006992Y005250D01*
X006992Y005395D01*
X007040Y005444D01*
X007137Y005444D01*
X007186Y005395D01*
X007186Y005250D01*
X007186Y005347D02*
X007282Y005444D01*
X007234Y005545D02*
X007282Y005593D01*
X007282Y005690D01*
X007234Y005738D01*
X007186Y005738D01*
X007137Y005690D01*
X007137Y005641D01*
X007137Y005690D02*
X007089Y005738D01*
X007040Y005738D01*
X006992Y005690D01*
X006992Y005593D01*
X007040Y005545D01*
X014455Y005096D02*
X014455Y004806D01*
X014649Y004806D01*
X014750Y004806D02*
X014944Y004806D01*
X015045Y004806D02*
X015045Y005096D01*
X015190Y005096D01*
X015238Y005048D01*
X015238Y004854D01*
X015190Y004806D01*
X015045Y004806D01*
X014847Y004951D02*
X014750Y004951D01*
X014750Y005096D02*
X014750Y004806D01*
X014750Y005096D02*
X014944Y005096D01*
X015339Y005048D02*
X015388Y005096D01*
X015485Y005096D01*
X015533Y005048D01*
X015533Y004999D01*
X015339Y004806D01*
X015533Y004806D01*
X015294Y002895D02*
X015197Y002895D01*
X015148Y002847D01*
X015047Y002847D02*
X015047Y002750D01*
X014999Y002702D01*
X014854Y002702D01*
X014951Y002702D02*
X015047Y002605D01*
X015148Y002605D02*
X015342Y002798D01*
X015342Y002847D01*
X015294Y002895D01*
X015047Y002847D02*
X014999Y002895D01*
X014854Y002895D01*
X014854Y002605D01*
X015148Y002605D02*
X015342Y002605D01*
X016818Y002042D02*
X016818Y001848D01*
X016867Y001800D01*
X016963Y001800D01*
X017012Y001848D01*
X017012Y002042D01*
X016963Y002090D01*
X016867Y002090D01*
X016818Y002042D01*
X017113Y001993D02*
X017113Y001800D01*
X017113Y001897D02*
X017210Y001993D01*
X017258Y001993D01*
X017358Y001945D02*
X017407Y001993D01*
X017552Y001993D01*
X017552Y002090D02*
X017552Y001800D01*
X017407Y001800D01*
X017358Y001848D01*
X017358Y001945D01*
X017653Y001945D02*
X017701Y001993D01*
X017798Y001993D01*
X017846Y001945D01*
X017846Y001897D01*
X017653Y001897D01*
X017653Y001945D02*
X017653Y001848D01*
X017701Y001800D01*
X017798Y001800D01*
X017948Y001800D02*
X017948Y001993D01*
X017948Y001897D02*
X018044Y001993D01*
X018093Y001993D01*
X018193Y001993D02*
X018193Y001945D01*
X018242Y001945D01*
X018242Y001993D01*
X018193Y001993D01*
X018193Y001848D02*
X018193Y001800D01*
X018242Y001800D01*
X018242Y001848D01*
X018193Y001848D01*
X018635Y001848D02*
X018684Y001800D01*
X018780Y001800D01*
X018829Y001848D01*
X018829Y001945D01*
X018780Y001993D01*
X018732Y001993D01*
X018635Y001945D01*
X018635Y002090D01*
X018829Y002090D01*
X018930Y002042D02*
X018930Y001848D01*
X019123Y002042D01*
X019123Y001848D01*
X019075Y001800D01*
X018978Y001800D01*
X018930Y001848D01*
X018930Y002042D02*
X018978Y002090D01*
X019075Y002090D01*
X019123Y002042D01*
X019224Y001945D02*
X019418Y001945D01*
X019519Y001897D02*
X019567Y001945D01*
X019664Y001945D01*
X019713Y001897D01*
X019713Y001848D01*
X019664Y001800D01*
X019567Y001800D01*
X019519Y001848D01*
X019519Y001897D01*
X019567Y001945D02*
X019519Y001993D01*
X019519Y002042D01*
X019567Y002090D01*
X019664Y002090D01*
X019713Y002042D01*
X019713Y001993D01*
X019664Y001945D01*
X019814Y001848D02*
X019814Y001800D01*
X019814Y001848D02*
X020007Y002042D01*
X020007Y002090D01*
X019814Y002090D01*
X019370Y002090D02*
X019370Y001800D01*
X019224Y001945D02*
X019370Y002090D01*
X018865Y006425D02*
X018913Y006473D01*
X018913Y006522D01*
X018865Y006570D01*
X018623Y006570D01*
X018623Y006522D02*
X018623Y006618D01*
X018623Y006720D02*
X018623Y006865D01*
X018671Y006913D01*
X018768Y006913D01*
X018816Y006865D01*
X018816Y006720D01*
X018913Y006720D02*
X018623Y006720D01*
X018623Y007014D02*
X018768Y007014D01*
X018720Y007111D01*
X018720Y007159D01*
X018768Y007208D01*
X018865Y007208D01*
X018913Y007159D01*
X018913Y007063D01*
X018865Y007014D01*
X018623Y007014D02*
X018623Y007208D01*
D13*
X019178Y007160D02*
X019178Y006660D01*
X019428Y006410D01*
X020928Y006410D01*
X021178Y006660D01*
X021178Y007160D01*
X020928Y007410D01*
X019428Y007410D01*
X019178Y007660D01*
X019178Y008160D01*
X019428Y008410D01*
X020928Y008410D01*
X021178Y008660D01*
X021178Y009160D01*
X020928Y009410D01*
X019428Y009410D01*
X019178Y009660D01*
X019178Y010160D01*
X019428Y010410D01*
X020928Y010410D01*
X021178Y010660D01*
X021178Y011160D01*
X020928Y011410D01*
X019428Y011410D01*
X019178Y011660D01*
X019178Y012160D01*
X019428Y012410D01*
X019178Y012660D01*
X019178Y013160D01*
X019428Y013410D01*
X020928Y013410D01*
X021178Y013160D01*
X021178Y012660D01*
X020928Y012410D01*
X019428Y012410D01*
X019428Y011410D02*
X019178Y011160D01*
X019178Y010660D01*
X019428Y010410D01*
X019428Y009410D02*
X019178Y009160D01*
X019178Y008660D01*
X019428Y008410D01*
X019428Y007410D02*
X019178Y007160D01*
X020178Y006160D02*
X020178Y005660D01*
X020428Y005410D01*
X020178Y005160D01*
X020178Y004660D01*
X020428Y004410D01*
X020178Y004160D01*
X020178Y003660D01*
X020428Y003410D01*
X020928Y003410D01*
X021178Y003660D01*
X021178Y004160D01*
X020928Y004410D01*
X020428Y004410D01*
X020928Y004410D02*
X021178Y004660D01*
X021178Y005160D01*
X020928Y005410D01*
X020428Y005410D01*
X020928Y005410D02*
X021178Y005660D01*
X021178Y006160D01*
X020928Y006410D01*
X020428Y006410D01*
X020178Y006160D01*
X020928Y007410D02*
X021178Y007660D01*
X021178Y008160D01*
X020928Y008410D01*
X020928Y009410D02*
X021178Y009660D01*
X021178Y010160D01*
X020928Y010410D01*
X020928Y011410D02*
X021178Y011660D01*
X021178Y012160D01*
X020928Y012410D01*
X020928Y013410D02*
X020428Y013410D01*
X020178Y013660D01*
X020178Y014160D01*
X020428Y014410D01*
X020178Y014660D01*
X020178Y015160D01*
X020428Y015410D01*
X020178Y015660D01*
X020178Y016160D01*
X020428Y016410D01*
X020928Y016410D01*
X021178Y016160D01*
X021178Y015660D01*
X020928Y015410D01*
X021178Y015160D01*
X021178Y014660D01*
X020928Y014410D01*
X021178Y014160D01*
X021178Y013660D01*
X020928Y013410D01*
X020928Y014410D02*
X020428Y014410D01*
X020428Y015410D02*
X020928Y015410D01*
X020928Y018410D02*
X020428Y018410D01*
X020178Y018660D01*
X019928Y018410D01*
X019428Y018410D01*
X019178Y018660D01*
X018928Y018410D01*
X018428Y018410D01*
X018178Y018660D01*
X017928Y018410D01*
X017428Y018410D01*
X017178Y018660D01*
X016928Y018410D01*
X016428Y018410D01*
X016178Y018660D01*
X015928Y018410D01*
X015428Y018410D01*
X015178Y018660D01*
X014928Y018410D01*
X014428Y018410D01*
X014178Y018660D01*
X013928Y018410D01*
X013428Y018410D01*
X013178Y018660D01*
X012928Y018410D01*
X012428Y018410D01*
X012178Y018660D01*
X011928Y018410D01*
X011428Y018410D01*
X011178Y018660D01*
X010928Y018410D01*
X010428Y018410D01*
X010178Y018660D01*
X009928Y018410D01*
X009428Y018410D01*
X009178Y018660D01*
X008928Y018410D01*
X008428Y018410D01*
X008178Y018660D01*
X007928Y018410D01*
X007428Y018410D01*
X007178Y018660D01*
X006928Y018410D01*
X006428Y018410D01*
X006178Y018660D01*
X005928Y018410D01*
X005428Y018410D01*
X005178Y018660D01*
X004928Y018410D01*
X004428Y018410D01*
X004178Y018660D01*
X003928Y018410D01*
X003428Y018410D01*
X003178Y018660D01*
X002928Y018410D01*
X002428Y018410D01*
X002178Y018660D01*
X002178Y019160D01*
X002428Y019410D01*
X002928Y019410D01*
X003178Y019160D01*
X003428Y019410D01*
X003928Y019410D01*
X004178Y019160D01*
X004178Y018660D01*
X004178Y019160D02*
X004428Y019410D01*
X004928Y019410D01*
X005178Y019160D01*
X005428Y019410D01*
X005928Y019410D01*
X006178Y019160D01*
X006428Y019410D01*
X006928Y019410D01*
X007178Y019160D01*
X007178Y018660D01*
X007178Y019160D02*
X007428Y019410D01*
X007928Y019410D01*
X008178Y019160D01*
X008428Y019410D01*
X008928Y019410D01*
X009178Y019160D01*
X009428Y019410D01*
X009928Y019410D01*
X010178Y019160D01*
X010178Y018660D01*
X010178Y019160D02*
X010428Y019410D01*
X010928Y019410D01*
X011178Y019160D01*
X011428Y019410D01*
X011928Y019410D01*
X012178Y019160D01*
X012428Y019410D01*
X012928Y019410D01*
X013178Y019160D01*
X013178Y018660D01*
X013178Y019160D02*
X013428Y019410D01*
X013928Y019410D01*
X014178Y019160D01*
X014428Y019410D01*
X014928Y019410D01*
X015178Y019160D01*
X015428Y019410D01*
X015928Y019410D01*
X016178Y019160D01*
X016178Y018660D01*
X016178Y019160D02*
X016428Y019410D01*
X016928Y019410D01*
X017178Y019160D01*
X017428Y019410D01*
X017928Y019410D01*
X018178Y019160D01*
X018428Y019410D01*
X018928Y019410D01*
X019178Y019160D01*
X019178Y018660D01*
X019178Y019160D02*
X019428Y019410D01*
X019928Y019410D01*
X020178Y019160D01*
X020428Y019410D01*
X020928Y019410D01*
X021178Y019160D01*
X021178Y018660D01*
X020928Y018410D01*
X020178Y018660D02*
X020178Y019160D01*
X018178Y019160D02*
X018178Y018660D01*
X017178Y018660D02*
X017178Y019160D01*
X015178Y019160D02*
X015178Y018660D01*
X014178Y018660D02*
X014178Y019160D01*
X012178Y019160D02*
X012178Y018660D01*
X011178Y018660D02*
X011178Y019160D01*
X009178Y019160D02*
X009178Y018660D01*
X008178Y018660D02*
X008178Y019160D01*
X006178Y019160D02*
X006178Y018660D01*
X005178Y018660D02*
X005178Y019160D01*
X003178Y019160D02*
X003178Y018660D01*
X002997Y016640D02*
X002997Y014180D01*
X004359Y014180D01*
X004359Y016640D01*
X002997Y016640D01*
X009728Y015310D02*
X009728Y011010D01*
X009730Y010993D01*
X009734Y010976D01*
X009741Y010960D01*
X009751Y010946D01*
X009764Y010933D01*
X009778Y010923D01*
X009794Y010916D01*
X009811Y010912D01*
X009828Y010910D01*
X010228Y010910D01*
X011128Y010910D02*
X011528Y010910D01*
X011545Y010912D01*
X011562Y010916D01*
X011578Y010923D01*
X011592Y010933D01*
X011605Y010946D01*
X011615Y010960D01*
X011622Y010976D01*
X011626Y010993D01*
X011628Y011010D01*
X011628Y015310D01*
X011626Y015327D01*
X011622Y015344D01*
X011615Y015360D01*
X011605Y015374D01*
X011592Y015387D01*
X011578Y015397D01*
X011562Y015404D01*
X011545Y015408D01*
X011528Y015410D01*
X011128Y015410D01*
X010228Y015410D02*
X009828Y015410D01*
X009811Y015408D01*
X009794Y015404D01*
X009778Y015397D01*
X009764Y015387D01*
X009751Y015374D01*
X009741Y015360D01*
X009734Y015344D01*
X009730Y015327D01*
X009728Y015310D01*
X010428Y013410D02*
X010678Y013410D01*
X010928Y013410D01*
X010928Y013260D02*
X010928Y013060D01*
X010428Y013060D01*
X010428Y013260D01*
X010928Y013260D01*
X010928Y012910D02*
X010678Y012910D01*
X010428Y012910D01*
X012108Y010610D02*
X012508Y010610D01*
X013168Y009250D02*
X013168Y008900D01*
X013518Y008900D01*
X014298Y008230D02*
X014298Y007830D01*
X016268Y007830D02*
X016268Y008230D01*
X016838Y008900D02*
X017188Y008900D01*
X017188Y009250D01*
X017848Y010810D02*
X018248Y010810D01*
X017188Y012570D02*
X017188Y012920D01*
X016838Y012920D01*
X016458Y013590D02*
X016458Y013980D01*
X014488Y013970D02*
X014488Y013570D01*
X013518Y012920D02*
X013168Y012920D01*
X013168Y012570D01*
X013298Y012540D02*
X013548Y012790D01*
X003178Y004160D02*
X003178Y003660D01*
X002928Y003410D01*
X003178Y003160D01*
X003178Y002660D01*
X002928Y002410D01*
X002428Y002410D01*
X002178Y002660D01*
X002178Y003160D01*
X002428Y003410D01*
X002178Y003660D01*
X002178Y004160D01*
X002428Y004410D01*
X002928Y004410D01*
X003178Y004160D01*
X002928Y003410D02*
X002428Y003410D01*
X002428Y001410D02*
X002178Y001160D01*
X002178Y000660D01*
X002428Y000410D01*
X002928Y000410D01*
X003178Y000660D01*
X003428Y000410D01*
X003928Y000410D01*
X004178Y000660D01*
X004178Y001160D01*
X003928Y001410D01*
X003428Y001410D01*
X003178Y001160D01*
X003178Y000660D01*
X003178Y001160D02*
X002928Y001410D01*
X002428Y001410D01*
X004178Y001160D02*
X004428Y001410D01*
X004928Y001410D01*
X005178Y001160D01*
X005428Y001410D01*
X005928Y001410D01*
X006178Y001160D01*
X006428Y001410D01*
X006928Y001410D01*
X007178Y001160D01*
X007178Y000660D01*
X006928Y000410D01*
X006428Y000410D01*
X006178Y000660D01*
X005928Y000410D01*
X005428Y000410D01*
X005178Y000660D01*
X004928Y000410D01*
X004428Y000410D01*
X004178Y000660D01*
X005178Y000660D02*
X005178Y001160D01*
X006178Y001160D02*
X006178Y000660D01*
X007178Y000660D02*
X007428Y000410D01*
X007928Y000410D01*
X008178Y000660D01*
X008428Y000410D01*
X008928Y000410D01*
X009178Y000660D01*
X009428Y000410D01*
X009928Y000410D01*
X010178Y000660D01*
X010178Y001160D01*
X009928Y001410D01*
X009428Y001410D01*
X009178Y001160D01*
X009178Y000660D01*
X009178Y001160D02*
X008928Y001410D01*
X008428Y001410D01*
X008178Y001160D01*
X008178Y000660D01*
X008178Y001160D02*
X007928Y001410D01*
X007428Y001410D01*
X007178Y001160D01*
X010178Y001160D02*
X010428Y001410D01*
X010928Y001410D01*
X011178Y001160D01*
X011428Y001410D01*
X011928Y001410D01*
X012178Y001160D01*
X012428Y001410D01*
X012928Y001410D01*
X013178Y001160D01*
X013178Y000660D01*
X012928Y000410D01*
X012428Y000410D01*
X012178Y000660D01*
X011928Y000410D01*
X011428Y000410D01*
X011178Y000660D01*
X010928Y000410D01*
X010428Y000410D01*
X010178Y000660D01*
X011178Y000660D02*
X011178Y001160D01*
X012178Y001160D02*
X012178Y000660D01*
X013178Y000660D02*
X013428Y000410D01*
X013928Y000410D01*
X014178Y000660D01*
X014428Y000410D01*
X014928Y000410D01*
X015178Y000660D01*
X015428Y000410D01*
X015928Y000410D01*
X016178Y000660D01*
X016178Y001160D01*
X015928Y001410D01*
X015428Y001410D01*
X015178Y001160D01*
X015178Y000660D01*
X015178Y001160D02*
X014928Y001410D01*
X014428Y001410D01*
X014178Y001160D01*
X014178Y000660D01*
X014178Y001160D02*
X013928Y001410D01*
X013428Y001410D01*
X013178Y001160D01*
X016178Y001160D02*
X016428Y001410D01*
X016928Y001410D01*
X017178Y001160D01*
X017428Y001410D01*
X017928Y001410D01*
X018178Y001160D01*
X018428Y001410D01*
X018928Y001410D01*
X019178Y001160D01*
X019178Y000660D01*
X018928Y000410D01*
X018428Y000410D01*
X018178Y000660D01*
X017928Y000410D01*
X017428Y000410D01*
X017178Y000660D01*
X016928Y000410D01*
X016428Y000410D01*
X016178Y000660D01*
X017178Y000660D02*
X017178Y001160D01*
X018178Y001160D02*
X018178Y000660D01*
X019178Y000660D02*
X019428Y000410D01*
X019928Y000410D01*
X020178Y000660D01*
X020428Y000410D01*
X020928Y000410D01*
X021178Y000660D01*
X021178Y001160D01*
X020928Y001410D01*
X020428Y001410D01*
X020178Y001160D01*
X020178Y000660D01*
X020178Y001160D02*
X019928Y001410D01*
X019428Y001410D01*
X019178Y001160D01*
D14*
X010734Y002971D02*
X008372Y002971D01*
X008372Y003168D01*
X009061Y003365D02*
X010045Y003365D01*
X010045Y003955D02*
X009081Y003955D01*
X008372Y004152D02*
X008372Y004349D01*
X010734Y004349D01*
X010734Y004152D01*
X010734Y003168D02*
X010734Y002971D01*
X005894Y003763D02*
X005618Y003763D01*
X005894Y003763D02*
X005894Y004590D01*
X005894Y006480D02*
X005894Y007307D01*
X001681Y007307D01*
X001681Y003763D01*
X003768Y003763D01*
X004173Y008256D02*
X003346Y008256D01*
X005157Y008532D02*
X005157Y008886D01*
X005157Y010619D02*
X005157Y010973D01*
X004173Y011249D02*
X003346Y011249D01*
X006252Y011259D02*
X006252Y011574D01*
X006252Y011259D02*
X006488Y011259D01*
X007118Y011259D02*
X007354Y011259D01*
X007354Y011574D01*
X007354Y013009D02*
X007118Y013009D01*
X007354Y013009D02*
X007354Y013324D01*
X006488Y013009D02*
X006252Y013009D01*
X006252Y013324D01*
D15*
X015139Y004410D03*
X016639Y004410D03*
D16*
X011478Y011810D02*
X011478Y014510D01*
X011178Y014510D02*
X011178Y011810D01*
X011177Y011772D01*
X011172Y011735D01*
X011165Y011698D01*
X011156Y011662D01*
X011143Y011626D01*
X011128Y011592D01*
X011478Y011810D02*
X011476Y011754D01*
X011470Y011699D01*
X011461Y011644D01*
X011447Y011590D01*
X011430Y011537D01*
X011409Y011486D01*
X011385Y011436D01*
X011357Y011388D01*
X011326Y011341D01*
X011292Y011298D01*
X011255Y011256D01*
X011215Y011217D01*
X011173Y011181D01*
X011128Y011149D01*
X010228Y011592D02*
X010213Y011626D01*
X010200Y011662D01*
X010191Y011698D01*
X010184Y011735D01*
X010179Y011772D01*
X010178Y011810D01*
X010178Y014510D01*
X009878Y014510D02*
X009878Y011810D01*
X009880Y011754D01*
X009886Y011699D01*
X009895Y011644D01*
X009909Y011590D01*
X009926Y011537D01*
X009947Y011486D01*
X009971Y011436D01*
X009999Y011388D01*
X010030Y011341D01*
X010064Y011297D01*
X010101Y011256D01*
X010141Y011217D01*
X010183Y011181D01*
X010228Y011149D01*
X010678Y012710D02*
X010678Y012910D01*
X010678Y013410D02*
X010678Y013610D01*
X011478Y014510D02*
X011476Y014566D01*
X011470Y014621D01*
X011461Y014676D01*
X011447Y014730D01*
X011430Y014783D01*
X011409Y014834D01*
X011385Y014884D01*
X011357Y014932D01*
X011326Y014979D01*
X011292Y015023D01*
X011255Y015064D01*
X011215Y015103D01*
X011173Y015139D01*
X011128Y015171D01*
X010228Y015171D02*
X010183Y015139D01*
X010141Y015103D01*
X010101Y015064D01*
X010064Y015022D01*
X010030Y014979D01*
X009999Y014932D01*
X009971Y014884D01*
X009947Y014834D01*
X009926Y014783D01*
X009909Y014730D01*
X009895Y014676D01*
X009886Y014621D01*
X009880Y014566D01*
X009878Y014510D01*
X010178Y014510D02*
X010179Y014548D01*
X010184Y014585D01*
X010191Y014622D01*
X010200Y014658D01*
X010213Y014694D01*
X010228Y014728D01*
X011128Y014728D02*
X011143Y014694D01*
X011156Y014658D01*
X011165Y014622D01*
X011172Y014585D01*
X011177Y014548D01*
X011178Y014510D01*
M02*
