G75*
G70*
%OFA0B0*%
%FSLAX24Y24*%
%IPPOS*%
%LPD*%
%AMOC8*
5,1,8,0,0,1.08239X$1,22.5*
%
%ADD10C,0.0000*%
%ADD11C,0.0040*%
D10*
X001875Y000107D02*
X001875Y019792D01*
X021560Y019792D01*
X021560Y000107D01*
X001875Y000107D01*
X003681Y008886D02*
X003683Y008912D01*
X003689Y008938D01*
X003699Y008963D01*
X003712Y008986D01*
X003728Y009006D01*
X003748Y009024D01*
X003770Y009039D01*
X003793Y009051D01*
X003819Y009059D01*
X003845Y009063D01*
X003871Y009063D01*
X003897Y009059D01*
X003923Y009051D01*
X003947Y009039D01*
X003968Y009024D01*
X003988Y009006D01*
X004004Y008986D01*
X004017Y008963D01*
X004027Y008938D01*
X004033Y008912D01*
X004035Y008886D01*
X004033Y008860D01*
X004027Y008834D01*
X004017Y008809D01*
X004004Y008786D01*
X003988Y008766D01*
X003968Y008748D01*
X003946Y008733D01*
X003923Y008721D01*
X003897Y008713D01*
X003871Y008709D01*
X003845Y008709D01*
X003819Y008713D01*
X003793Y008721D01*
X003769Y008733D01*
X003748Y008748D01*
X003728Y008766D01*
X003712Y008786D01*
X003699Y008809D01*
X003689Y008834D01*
X003683Y008860D01*
X003681Y008886D01*
X003681Y010619D02*
X003683Y010645D01*
X003689Y010671D01*
X003699Y010696D01*
X003712Y010719D01*
X003728Y010739D01*
X003748Y010757D01*
X003770Y010772D01*
X003793Y010784D01*
X003819Y010792D01*
X003845Y010796D01*
X003871Y010796D01*
X003897Y010792D01*
X003923Y010784D01*
X003947Y010772D01*
X003968Y010757D01*
X003988Y010739D01*
X004004Y010719D01*
X004017Y010696D01*
X004027Y010671D01*
X004033Y010645D01*
X004035Y010619D01*
X004033Y010593D01*
X004027Y010567D01*
X004017Y010542D01*
X004004Y010519D01*
X003988Y010499D01*
X003968Y010481D01*
X003946Y010466D01*
X003923Y010454D01*
X003897Y010446D01*
X003871Y010442D01*
X003845Y010442D01*
X003819Y010446D01*
X003793Y010454D01*
X003769Y010466D01*
X003748Y010481D01*
X003728Y010499D01*
X003712Y010519D01*
X003699Y010542D01*
X003689Y010567D01*
X003683Y010593D01*
X003681Y010619D01*
X002284Y017410D02*
X002286Y017449D01*
X002292Y017488D01*
X002302Y017526D01*
X002315Y017563D01*
X002332Y017598D01*
X002352Y017632D01*
X002376Y017663D01*
X002403Y017692D01*
X002432Y017718D01*
X002464Y017741D01*
X002498Y017761D01*
X002534Y017777D01*
X002571Y017789D01*
X002610Y017798D01*
X002649Y017803D01*
X002688Y017804D01*
X002727Y017801D01*
X002766Y017794D01*
X002803Y017783D01*
X002840Y017769D01*
X002875Y017751D01*
X002908Y017730D01*
X002939Y017705D01*
X002967Y017678D01*
X002992Y017648D01*
X003014Y017615D01*
X003033Y017581D01*
X003048Y017545D01*
X003060Y017507D01*
X003068Y017469D01*
X003072Y017430D01*
X003072Y017390D01*
X003068Y017351D01*
X003060Y017313D01*
X003048Y017275D01*
X003033Y017239D01*
X003014Y017205D01*
X002992Y017172D01*
X002967Y017142D01*
X002939Y017115D01*
X002908Y017090D01*
X002875Y017069D01*
X002840Y017051D01*
X002803Y017037D01*
X002766Y017026D01*
X002727Y017019D01*
X002688Y017016D01*
X002649Y017017D01*
X002610Y017022D01*
X002571Y017031D01*
X002534Y017043D01*
X002498Y017059D01*
X002464Y017079D01*
X002432Y017102D01*
X002403Y017128D01*
X002376Y017157D01*
X002352Y017188D01*
X002332Y017222D01*
X002315Y017257D01*
X002302Y017294D01*
X002292Y017332D01*
X002286Y017371D01*
X002284Y017410D01*
X020284Y017410D02*
X020286Y017449D01*
X020292Y017488D01*
X020302Y017526D01*
X020315Y017563D01*
X020332Y017598D01*
X020352Y017632D01*
X020376Y017663D01*
X020403Y017692D01*
X020432Y017718D01*
X020464Y017741D01*
X020498Y017761D01*
X020534Y017777D01*
X020571Y017789D01*
X020610Y017798D01*
X020649Y017803D01*
X020688Y017804D01*
X020727Y017801D01*
X020766Y017794D01*
X020803Y017783D01*
X020840Y017769D01*
X020875Y017751D01*
X020908Y017730D01*
X020939Y017705D01*
X020967Y017678D01*
X020992Y017648D01*
X021014Y017615D01*
X021033Y017581D01*
X021048Y017545D01*
X021060Y017507D01*
X021068Y017469D01*
X021072Y017430D01*
X021072Y017390D01*
X021068Y017351D01*
X021060Y017313D01*
X021048Y017275D01*
X021033Y017239D01*
X021014Y017205D01*
X020992Y017172D01*
X020967Y017142D01*
X020939Y017115D01*
X020908Y017090D01*
X020875Y017069D01*
X020840Y017051D01*
X020803Y017037D01*
X020766Y017026D01*
X020727Y017019D01*
X020688Y017016D01*
X020649Y017017D01*
X020610Y017022D01*
X020571Y017031D01*
X020534Y017043D01*
X020498Y017059D01*
X020464Y017079D01*
X020432Y017102D01*
X020403Y017128D01*
X020376Y017157D01*
X020352Y017188D01*
X020332Y017222D01*
X020315Y017257D01*
X020302Y017294D01*
X020292Y017332D01*
X020286Y017371D01*
X020284Y017410D01*
X020284Y002410D02*
X020286Y002449D01*
X020292Y002488D01*
X020302Y002526D01*
X020315Y002563D01*
X020332Y002598D01*
X020352Y002632D01*
X020376Y002663D01*
X020403Y002692D01*
X020432Y002718D01*
X020464Y002741D01*
X020498Y002761D01*
X020534Y002777D01*
X020571Y002789D01*
X020610Y002798D01*
X020649Y002803D01*
X020688Y002804D01*
X020727Y002801D01*
X020766Y002794D01*
X020803Y002783D01*
X020840Y002769D01*
X020875Y002751D01*
X020908Y002730D01*
X020939Y002705D01*
X020967Y002678D01*
X020992Y002648D01*
X021014Y002615D01*
X021033Y002581D01*
X021048Y002545D01*
X021060Y002507D01*
X021068Y002469D01*
X021072Y002430D01*
X021072Y002390D01*
X021068Y002351D01*
X021060Y002313D01*
X021048Y002275D01*
X021033Y002239D01*
X021014Y002205D01*
X020992Y002172D01*
X020967Y002142D01*
X020939Y002115D01*
X020908Y002090D01*
X020875Y002069D01*
X020840Y002051D01*
X020803Y002037D01*
X020766Y002026D01*
X020727Y002019D01*
X020688Y002016D01*
X020649Y002017D01*
X020610Y002022D01*
X020571Y002031D01*
X020534Y002043D01*
X020498Y002059D01*
X020464Y002079D01*
X020432Y002102D01*
X020403Y002128D01*
X020376Y002157D01*
X020352Y002188D01*
X020332Y002222D01*
X020315Y002257D01*
X020302Y002294D01*
X020292Y002332D01*
X020286Y002371D01*
X020284Y002410D01*
D11*
X019908Y002392D02*
X019908Y002251D01*
X019628Y002251D01*
X019722Y002251D02*
X019722Y002392D01*
X019768Y002438D01*
X019862Y002438D01*
X019908Y002392D01*
X019908Y002546D02*
X019908Y002686D01*
X019862Y002733D01*
X019815Y002733D01*
X019768Y002686D01*
X019768Y002546D01*
X019628Y002546D02*
X019628Y002686D01*
X019675Y002733D01*
X019722Y002733D01*
X019768Y002686D01*
X019815Y002841D02*
X019908Y002934D01*
X019628Y002934D01*
X019628Y002841D02*
X019628Y003028D01*
X019675Y003135D02*
X019862Y003322D01*
X019675Y003322D01*
X019628Y003275D01*
X019628Y003182D01*
X019675Y003135D01*
X019862Y003135D01*
X019908Y003182D01*
X019908Y003275D01*
X019862Y003322D01*
X019745Y003860D02*
X019652Y003860D01*
X019605Y003907D01*
X019605Y004000D01*
X019699Y004000D01*
X019792Y003907D02*
X019745Y003860D01*
X019792Y003907D02*
X019792Y004094D01*
X019745Y004140D01*
X019652Y004140D01*
X019605Y004094D01*
X019497Y004140D02*
X019497Y003860D01*
X019311Y003860D02*
X019311Y004140D01*
X019203Y004140D02*
X019063Y004140D01*
X019016Y004094D01*
X019016Y003907D01*
X019063Y003860D01*
X019203Y003860D01*
X019203Y004140D01*
X019497Y004140D02*
X019311Y003860D01*
X019272Y004680D02*
X019319Y004727D01*
X019272Y004680D02*
X019179Y004680D01*
X019132Y004727D01*
X019132Y004773D01*
X019179Y004820D01*
X019225Y004820D01*
X019179Y004820D02*
X019132Y004867D01*
X019132Y004914D01*
X019179Y004960D01*
X019272Y004960D01*
X019319Y004914D01*
X019427Y004960D02*
X019427Y004773D01*
X019520Y004680D01*
X019613Y004773D01*
X019613Y004960D01*
X019721Y004914D02*
X019721Y004867D01*
X019768Y004820D01*
X019721Y004773D01*
X019721Y004727D01*
X019768Y004680D01*
X019861Y004680D01*
X019908Y004727D01*
X019815Y004820D02*
X019768Y004820D01*
X019721Y004914D02*
X019768Y004960D01*
X019861Y004960D01*
X019908Y004914D01*
X019815Y005680D02*
X019721Y005773D01*
X019721Y005960D01*
X019613Y005867D02*
X019567Y005867D01*
X019567Y005680D01*
X019613Y005680D02*
X019520Y005680D01*
X019417Y005680D02*
X019417Y005867D01*
X019277Y005867D01*
X019230Y005820D01*
X019230Y005680D01*
X019567Y005960D02*
X019567Y006007D01*
X019908Y005960D02*
X019908Y005773D01*
X019815Y005680D01*
X019020Y006761D02*
X019020Y007041D01*
X018880Y007041D01*
X018834Y006994D01*
X018834Y006901D01*
X018880Y006854D01*
X019020Y006854D01*
X018726Y006807D02*
X018726Y006994D01*
X018679Y007041D01*
X018586Y007041D01*
X018539Y006994D01*
X018431Y006994D02*
X018431Y006807D01*
X018244Y006994D01*
X018244Y006807D01*
X018291Y006761D01*
X018384Y006761D01*
X018431Y006807D01*
X018539Y006807D02*
X018586Y006761D01*
X018679Y006761D01*
X018726Y006807D01*
X018431Y006994D02*
X018384Y007041D01*
X018291Y007041D01*
X018244Y006994D01*
X017842Y006761D02*
X017655Y007041D01*
X017252Y007041D02*
X017252Y006761D01*
X017252Y006854D02*
X017112Y006854D01*
X017066Y006901D01*
X017066Y006994D01*
X017112Y007041D01*
X017252Y007041D01*
X016958Y007041D02*
X016818Y007041D01*
X016771Y006994D01*
X016771Y006807D01*
X016818Y006761D01*
X016958Y006761D01*
X016958Y007041D01*
X016663Y006994D02*
X016616Y007041D01*
X016523Y007041D01*
X016476Y006994D01*
X016476Y006948D01*
X016663Y006761D01*
X016476Y006761D01*
X016516Y007784D02*
X016703Y007784D01*
X016609Y007784D02*
X016609Y008065D01*
X016703Y007971D01*
X016810Y008018D02*
X016857Y008065D01*
X016950Y008065D01*
X016997Y008018D01*
X016997Y007831D01*
X016950Y007784D01*
X016857Y007784D01*
X016810Y007831D01*
X017105Y007924D02*
X017105Y008018D01*
X017152Y008065D01*
X017292Y008065D01*
X017292Y007784D01*
X017292Y007878D02*
X017152Y007878D01*
X017105Y007924D01*
X017694Y008065D02*
X017881Y007784D01*
X018284Y007784D02*
X018470Y007784D01*
X018377Y007784D02*
X018377Y008065D01*
X018470Y007971D01*
X018578Y008018D02*
X018625Y008065D01*
X018718Y008065D01*
X018765Y008018D01*
X018765Y007831D01*
X018718Y007784D01*
X018625Y007784D01*
X018578Y007831D01*
X018873Y007924D02*
X018873Y008018D01*
X018920Y008065D01*
X019060Y008065D01*
X019060Y007784D01*
X019060Y007878D02*
X018920Y007878D01*
X018873Y007924D01*
X018718Y008769D02*
X018625Y008769D01*
X018578Y008815D01*
X018470Y008769D02*
X018284Y008955D01*
X018284Y009002D01*
X018330Y009049D01*
X018424Y009049D01*
X018470Y009002D01*
X018578Y009002D02*
X018625Y009049D01*
X018718Y009049D01*
X018765Y009002D01*
X018765Y008815D01*
X018718Y008769D01*
X018873Y008909D02*
X018920Y008862D01*
X019060Y008862D01*
X019060Y008769D02*
X019060Y009049D01*
X018920Y009049D01*
X018873Y009002D01*
X018873Y008909D01*
X018470Y008769D02*
X018284Y008769D01*
X017881Y008769D02*
X017694Y009049D01*
X017292Y009049D02*
X017292Y008769D01*
X017292Y008862D02*
X017152Y008862D01*
X017105Y008909D01*
X017105Y009002D01*
X017152Y009049D01*
X017292Y009049D01*
X016997Y009002D02*
X016997Y008815D01*
X016950Y008769D01*
X016857Y008769D01*
X016810Y008815D01*
X016703Y008769D02*
X016516Y008769D01*
X016609Y008769D02*
X016609Y009049D01*
X016703Y008955D01*
X016810Y009002D02*
X016857Y009049D01*
X016950Y009049D01*
X016997Y009002D01*
X016408Y008955D02*
X016314Y009049D01*
X016314Y008769D01*
X016221Y008769D02*
X016408Y008769D01*
X016361Y008065D02*
X016268Y008065D01*
X016221Y008018D01*
X016221Y007971D01*
X016408Y007784D01*
X016221Y007784D01*
X016408Y008018D02*
X016361Y008065D01*
X016381Y009792D02*
X016287Y009792D01*
X016241Y009839D01*
X016241Y010026D01*
X016428Y009839D01*
X016381Y009792D01*
X016428Y009839D02*
X016428Y010026D01*
X016381Y010072D01*
X016287Y010072D01*
X016241Y010026D01*
X016535Y009792D02*
X016722Y009792D01*
X016629Y009792D02*
X016629Y010072D01*
X016722Y009979D01*
X016830Y010026D02*
X016877Y010072D01*
X016970Y010072D01*
X017017Y010026D01*
X017017Y009839D01*
X016970Y009792D01*
X016877Y009792D01*
X016830Y009839D01*
X017125Y009932D02*
X017125Y010026D01*
X017171Y010072D01*
X017311Y010072D01*
X017311Y009792D01*
X017311Y009886D02*
X017171Y009886D01*
X017125Y009932D01*
X017714Y010072D02*
X017901Y009792D01*
X018303Y009839D02*
X018350Y009792D01*
X018443Y009792D01*
X018490Y009839D01*
X018598Y009839D02*
X018645Y009792D01*
X018738Y009792D01*
X018785Y009839D01*
X018785Y010026D01*
X018738Y010072D01*
X018645Y010072D01*
X018598Y010026D01*
X018490Y010026D02*
X018443Y010072D01*
X018350Y010072D01*
X018303Y010026D01*
X018303Y009979D01*
X018350Y009932D01*
X018303Y009886D01*
X018303Y009839D01*
X018350Y009932D02*
X018397Y009932D01*
X018893Y009932D02*
X018939Y009886D01*
X019079Y009886D01*
X019079Y009792D02*
X019079Y010072D01*
X018939Y010072D01*
X018893Y010026D01*
X018893Y009932D01*
X018797Y010757D02*
X018704Y010757D01*
X018657Y010803D01*
X018549Y010897D02*
X018362Y010897D01*
X018409Y010757D02*
X018409Y011037D01*
X018549Y010897D01*
X018657Y010990D02*
X018704Y011037D01*
X018797Y011037D01*
X018844Y010990D01*
X018844Y010803D01*
X018797Y010757D01*
X018952Y010897D02*
X018952Y010990D01*
X018998Y011037D01*
X019138Y011037D01*
X019138Y010757D01*
X019138Y010850D02*
X018998Y010850D01*
X018952Y010897D01*
X018797Y011780D02*
X018704Y011780D01*
X018657Y011827D01*
X018549Y011827D02*
X018502Y011780D01*
X018409Y011780D01*
X018362Y011827D01*
X018362Y011921D01*
X018409Y011967D01*
X018456Y011967D01*
X018549Y011921D01*
X018549Y012061D01*
X018362Y012061D01*
X018657Y012014D02*
X018704Y012061D01*
X018797Y012061D01*
X018844Y012014D01*
X018844Y011827D01*
X018797Y011780D01*
X018952Y011921D02*
X018952Y012014D01*
X018998Y012061D01*
X019138Y012061D01*
X019138Y011780D01*
X019138Y011874D02*
X018998Y011874D01*
X018952Y011921D01*
X018836Y012706D02*
X018743Y012706D01*
X018696Y012752D01*
X018589Y012752D02*
X018542Y012706D01*
X018448Y012706D01*
X018402Y012752D01*
X018402Y012799D01*
X018448Y012846D01*
X018589Y012846D01*
X018589Y012752D01*
X018589Y012846D02*
X018495Y012939D01*
X018402Y012986D01*
X018696Y012939D02*
X018743Y012986D01*
X018836Y012986D01*
X018883Y012939D01*
X018883Y012752D01*
X018836Y012706D01*
X018991Y012846D02*
X019038Y012799D01*
X019178Y012799D01*
X019178Y012706D02*
X019178Y012986D01*
X019038Y012986D01*
X018991Y012939D01*
X018991Y012846D01*
X019230Y013680D02*
X019230Y013820D01*
X019277Y013867D01*
X019417Y013867D01*
X019417Y013680D01*
X019520Y013680D02*
X019613Y013680D01*
X019567Y013680D02*
X019567Y013867D01*
X019613Y013867D01*
X019567Y013960D02*
X019567Y014007D01*
X019721Y013960D02*
X019721Y013773D01*
X019815Y013680D01*
X019908Y013773D01*
X019908Y013960D01*
X019861Y014680D02*
X019768Y014680D01*
X019721Y014727D01*
X019721Y014773D01*
X019768Y014820D01*
X019815Y014820D01*
X019768Y014820D02*
X019721Y014867D01*
X019721Y014914D01*
X019768Y014960D01*
X019861Y014960D01*
X019908Y014914D01*
X019908Y014727D02*
X019861Y014680D01*
X019613Y014773D02*
X019520Y014680D01*
X019427Y014773D01*
X019427Y014960D01*
X019319Y014914D02*
X019272Y014960D01*
X019179Y014960D01*
X019132Y014914D01*
X019132Y014867D01*
X019179Y014820D01*
X019132Y014773D01*
X019132Y014727D01*
X019179Y014680D01*
X019272Y014680D01*
X019319Y014727D01*
X019225Y014820D02*
X019179Y014820D01*
X019613Y014773D02*
X019613Y014960D01*
X019652Y015860D02*
X019605Y015907D01*
X019605Y016000D01*
X019699Y016000D01*
X019792Y015907D02*
X019745Y015860D01*
X019652Y015860D01*
X019792Y015907D02*
X019792Y016094D01*
X019745Y016140D01*
X019652Y016140D01*
X019605Y016094D01*
X019497Y016140D02*
X019497Y015860D01*
X019311Y015860D02*
X019311Y016140D01*
X019203Y016140D02*
X019063Y016140D01*
X019016Y016094D01*
X019016Y015907D01*
X019063Y015860D01*
X019203Y015860D01*
X019203Y016140D01*
X019497Y016140D02*
X019311Y015860D01*
X019628Y016707D02*
X019908Y016707D01*
X019908Y016847D01*
X019862Y016894D01*
X019768Y016894D01*
X019722Y016847D01*
X019722Y016707D01*
X019768Y017001D02*
X019768Y017142D01*
X019722Y017188D01*
X019675Y017188D01*
X019628Y017142D01*
X019628Y017001D01*
X019908Y017001D01*
X019908Y017142D01*
X019862Y017188D01*
X019815Y017188D01*
X019768Y017142D01*
X019815Y017296D02*
X019908Y017389D01*
X019628Y017389D01*
X019628Y017296D02*
X019628Y017483D01*
X019675Y017591D02*
X019628Y017637D01*
X019628Y017731D01*
X019675Y017778D01*
X019722Y017778D01*
X019768Y017731D01*
X019768Y017684D01*
X019768Y017731D02*
X019815Y017778D01*
X019862Y017778D01*
X019908Y017731D01*
X019908Y017637D01*
X019862Y017591D01*
X019862Y017885D02*
X019675Y018072D01*
X019675Y017979D02*
X019862Y017979D01*
X019862Y018072D02*
X019675Y017885D01*
X019768Y017885D02*
X019768Y018072D01*
X018908Y017731D02*
X018768Y017591D01*
X018768Y017778D01*
X018768Y017885D02*
X018768Y018072D01*
X018675Y018072D02*
X018862Y017885D01*
X018862Y017979D02*
X018675Y017979D01*
X018675Y017885D02*
X018862Y018072D01*
X018908Y017731D02*
X018628Y017731D01*
X018628Y017483D02*
X018628Y017296D01*
X018628Y017389D02*
X018908Y017389D01*
X018815Y017296D01*
X018815Y017188D02*
X018768Y017142D01*
X018768Y017001D01*
X018768Y016894D02*
X018722Y016847D01*
X018722Y016707D01*
X018628Y016707D02*
X018908Y016707D01*
X018908Y016847D01*
X018862Y016894D01*
X018768Y016894D01*
X018628Y017001D02*
X018628Y017142D01*
X018675Y017188D01*
X018722Y017188D01*
X018768Y017142D01*
X018815Y017188D02*
X018862Y017188D01*
X018908Y017142D01*
X018908Y017001D01*
X018628Y017001D01*
X017908Y017095D02*
X017628Y017095D01*
X017628Y017188D02*
X017628Y017001D01*
X017675Y016894D02*
X017628Y016847D01*
X017628Y016707D01*
X017908Y016707D01*
X017908Y016847D01*
X017862Y016894D01*
X017815Y016894D01*
X017768Y016847D01*
X017768Y016707D01*
X017768Y016599D02*
X017722Y016552D01*
X017722Y016412D01*
X017628Y016412D02*
X017908Y016412D01*
X017908Y016552D01*
X017862Y016599D01*
X017768Y016599D01*
X017768Y016847D02*
X017722Y016894D01*
X017675Y016894D01*
X017815Y017001D02*
X017908Y017095D01*
X017908Y017296D02*
X017768Y017296D01*
X017815Y017389D01*
X017815Y017436D01*
X017768Y017483D01*
X017675Y017483D01*
X017628Y017436D01*
X017628Y017343D01*
X017675Y017296D01*
X017908Y017296D02*
X017908Y017483D01*
X017862Y017885D02*
X017675Y018072D01*
X017675Y017979D02*
X017862Y017979D01*
X017862Y018072D02*
X017675Y017885D01*
X017768Y017885D02*
X017768Y018072D01*
X016862Y018072D02*
X016675Y017885D01*
X016768Y017885D02*
X016768Y018072D01*
X016675Y018072D02*
X016862Y017885D01*
X016862Y017979D02*
X016675Y017979D01*
X016675Y017483D02*
X016628Y017436D01*
X016628Y017343D01*
X016675Y017296D01*
X016722Y017296D01*
X016768Y017343D01*
X016768Y017436D01*
X016722Y017483D01*
X016675Y017483D01*
X016768Y017436D02*
X016815Y017483D01*
X016862Y017483D01*
X016908Y017436D01*
X016908Y017343D01*
X016862Y017296D01*
X016815Y017296D01*
X016768Y017343D01*
X016768Y017188D02*
X016768Y017001D01*
X016815Y017001D02*
X016908Y017095D01*
X016815Y017188D01*
X016628Y017188D01*
X016628Y017001D02*
X016815Y017001D01*
X016862Y016894D02*
X016768Y016894D01*
X016722Y016847D01*
X016722Y016707D01*
X016628Y016707D02*
X016908Y016707D01*
X016908Y016847D01*
X016862Y016894D01*
X015908Y016847D02*
X015908Y016707D01*
X015628Y016707D01*
X015722Y016707D02*
X015722Y016847D01*
X015768Y016894D01*
X015862Y016894D01*
X015908Y016847D01*
X015815Y017001D02*
X015908Y017095D01*
X015815Y017188D01*
X015628Y017188D01*
X015675Y017296D02*
X015628Y017343D01*
X015628Y017436D01*
X015675Y017483D01*
X015862Y017483D01*
X015908Y017436D01*
X015908Y017343D01*
X015862Y017296D01*
X015815Y017296D01*
X015768Y017343D01*
X015768Y017483D01*
X015768Y017188D02*
X015768Y017001D01*
X015815Y017001D02*
X015628Y017001D01*
X014908Y017095D02*
X014628Y017095D01*
X014628Y017188D02*
X014628Y017001D01*
X014628Y016894D02*
X014815Y016894D01*
X014908Y016800D01*
X014815Y016707D01*
X014628Y016707D01*
X014768Y016707D02*
X014768Y016894D01*
X014815Y017001D02*
X014908Y017095D01*
X014862Y017296D02*
X014675Y017296D01*
X014862Y017483D01*
X014675Y017483D01*
X014628Y017436D01*
X014628Y017343D01*
X014675Y017296D01*
X014862Y017296D02*
X014908Y017343D01*
X014908Y017436D01*
X014862Y017483D01*
X014862Y017885D02*
X014675Y018072D01*
X014675Y017979D02*
X014862Y017979D01*
X014862Y018072D02*
X014675Y017885D01*
X014768Y017885D02*
X014768Y018072D01*
X013908Y017389D02*
X013628Y017389D01*
X013628Y017296D02*
X013628Y017483D01*
X013815Y017296D02*
X013908Y017389D01*
X013908Y017095D02*
X013628Y017095D01*
X013628Y017188D02*
X013628Y017001D01*
X013628Y016894D02*
X013815Y016894D01*
X013908Y016800D01*
X013815Y016707D01*
X013628Y016707D01*
X013768Y016707D02*
X013768Y016894D01*
X013815Y017001D02*
X013908Y017095D01*
X013862Y016599D02*
X013768Y016599D01*
X013722Y016552D01*
X013722Y016412D01*
X013628Y016412D02*
X013908Y016412D01*
X013908Y016552D01*
X013862Y016599D01*
X013908Y016010D02*
X013628Y015823D01*
X013628Y015420D02*
X013908Y015233D01*
X013862Y015126D02*
X013908Y015079D01*
X013908Y014939D01*
X013628Y014939D01*
X013722Y014939D02*
X013722Y015079D01*
X013768Y015126D01*
X013862Y015126D01*
X013722Y015032D02*
X013628Y015126D01*
X013628Y015233D02*
X013908Y015420D01*
X013908Y014536D02*
X013628Y014536D01*
X013908Y014350D01*
X013628Y014350D01*
X013628Y014242D02*
X013815Y014242D01*
X013908Y014148D01*
X013815Y014055D01*
X013628Y014055D01*
X013675Y013947D02*
X013628Y013900D01*
X013628Y013807D01*
X013675Y013760D01*
X013862Y013760D01*
X013908Y013807D01*
X013908Y013900D01*
X013862Y013947D01*
X013768Y014055D02*
X013768Y014242D01*
X012908Y014148D02*
X012815Y014242D01*
X012628Y014242D01*
X012628Y014350D02*
X012908Y014350D01*
X012628Y014536D01*
X012908Y014536D01*
X012768Y014242D02*
X012768Y014055D01*
X012815Y014055D02*
X012908Y014148D01*
X012815Y014055D02*
X012628Y014055D01*
X012675Y013947D02*
X012628Y013900D01*
X012628Y013807D01*
X012675Y013760D01*
X012862Y013760D01*
X012908Y013807D01*
X012908Y013900D01*
X012862Y013947D01*
X012908Y013358D02*
X012628Y013171D01*
X012768Y012768D02*
X012768Y012582D01*
X012722Y012474D02*
X012675Y012474D01*
X012628Y012427D01*
X012628Y012287D01*
X012908Y012287D01*
X012908Y012427D01*
X012862Y012474D01*
X012815Y012474D01*
X012768Y012427D01*
X012768Y012287D01*
X012722Y012179D02*
X012675Y012179D01*
X012628Y012132D01*
X012628Y012039D01*
X012675Y011992D01*
X012768Y012039D02*
X012768Y012132D01*
X012722Y012179D01*
X012862Y012179D02*
X012908Y012132D01*
X012908Y012039D01*
X012862Y011992D01*
X012815Y011992D01*
X012768Y012039D01*
X012675Y011884D02*
X012908Y011884D01*
X012908Y011698D02*
X012675Y011698D01*
X012628Y011744D01*
X012628Y011838D01*
X012675Y011884D01*
X012768Y012427D02*
X012722Y012474D01*
X012675Y012675D02*
X012862Y012675D01*
X013628Y012427D02*
X013628Y012287D01*
X013908Y012287D01*
X013908Y012427D01*
X013862Y012474D01*
X013815Y012474D01*
X013768Y012427D01*
X013768Y012287D01*
X013722Y012179D02*
X013675Y012179D01*
X013628Y012132D01*
X013628Y012039D01*
X013675Y011992D01*
X013768Y012039D02*
X013768Y012132D01*
X013722Y012179D01*
X013862Y012179D02*
X013908Y012132D01*
X013908Y012039D01*
X013862Y011992D01*
X013815Y011992D01*
X013768Y012039D01*
X013675Y011884D02*
X013908Y011884D01*
X013908Y011698D02*
X013675Y011698D01*
X013628Y011744D01*
X013628Y011838D01*
X013675Y011884D01*
X013628Y012427D02*
X013675Y012474D01*
X013722Y012474D01*
X013768Y012427D01*
X013768Y012582D02*
X013768Y012768D01*
X013628Y013171D02*
X013908Y013358D01*
X012908Y014939D02*
X012908Y015126D01*
X012908Y015032D02*
X012628Y015032D01*
X012628Y015233D02*
X012908Y015420D01*
X012908Y015233D02*
X012628Y015420D01*
X012628Y015823D02*
X012908Y016010D01*
X012908Y016412D02*
X012628Y016412D01*
X012722Y016412D02*
X012722Y016552D01*
X012768Y016599D01*
X012862Y016599D01*
X012908Y016552D01*
X012908Y016412D01*
X012815Y016707D02*
X012908Y016800D01*
X012815Y016894D01*
X012628Y016894D01*
X012628Y017001D02*
X012628Y017188D01*
X012628Y017095D02*
X012908Y017095D01*
X012815Y017001D01*
X012768Y016894D02*
X012768Y016707D01*
X012815Y016707D02*
X012628Y016707D01*
X012628Y017296D02*
X012815Y017483D01*
X012862Y017483D01*
X012908Y017436D01*
X012908Y017343D01*
X012862Y017296D01*
X012628Y017296D02*
X012628Y017483D01*
X012675Y017885D02*
X012862Y018072D01*
X012862Y017979D02*
X012675Y017979D01*
X012675Y018072D02*
X012862Y017885D01*
X012768Y017885D02*
X012768Y018072D01*
X011862Y018072D02*
X011675Y017885D01*
X011768Y017885D02*
X011768Y018072D01*
X011675Y018072D02*
X011862Y017885D01*
X011862Y017979D02*
X011675Y017979D01*
X011675Y017483D02*
X011628Y017436D01*
X011628Y017343D01*
X011675Y017296D01*
X011628Y017188D02*
X011628Y017001D01*
X011628Y017095D02*
X011908Y017095D01*
X011815Y017001D01*
X011815Y016894D02*
X011628Y016894D01*
X011768Y016894D02*
X011768Y016707D01*
X011815Y016707D02*
X011908Y016800D01*
X011815Y016894D01*
X011815Y016707D02*
X011628Y016707D01*
X011768Y016599D02*
X011722Y016552D01*
X011722Y016412D01*
X011628Y016412D02*
X011908Y016412D01*
X011908Y016552D01*
X011862Y016599D01*
X011768Y016599D01*
X011908Y016010D02*
X011628Y015823D01*
X011675Y015420D02*
X011862Y015420D01*
X011908Y015374D01*
X011908Y015280D01*
X011862Y015233D01*
X011675Y015233D01*
X011628Y015280D01*
X011628Y015374D01*
X011675Y015420D01*
X011628Y015130D02*
X011628Y015037D01*
X011628Y015084D02*
X011908Y015084D01*
X011908Y015130D02*
X011908Y015037D01*
X011862Y014929D02*
X011908Y014883D01*
X011908Y014742D01*
X011628Y014742D01*
X011628Y014883D01*
X011675Y014929D01*
X011862Y014929D01*
X011908Y014635D02*
X011628Y014635D01*
X011722Y014541D01*
X011628Y014448D01*
X011908Y014448D01*
X011862Y014340D02*
X011908Y014293D01*
X011908Y014200D01*
X011862Y014153D01*
X011815Y014153D01*
X011768Y014200D01*
X011768Y014293D01*
X011722Y014340D01*
X011675Y014340D01*
X011628Y014293D01*
X011628Y014200D01*
X011675Y014153D01*
X010908Y014195D02*
X010908Y014102D01*
X010862Y014055D01*
X010815Y014055D01*
X010768Y014102D01*
X010768Y014195D01*
X010722Y014242D01*
X010675Y014242D01*
X010628Y014195D01*
X010628Y014102D01*
X010675Y014055D01*
X010862Y014242D02*
X010908Y014195D01*
X010908Y014350D02*
X010628Y014350D01*
X010722Y014443D01*
X010628Y014536D01*
X010908Y014536D01*
X010862Y014644D02*
X010908Y014691D01*
X010908Y014784D01*
X010862Y014831D01*
X010908Y014939D02*
X010628Y014939D01*
X010628Y015126D01*
X010628Y015233D02*
X010908Y015233D01*
X010768Y015280D02*
X010628Y015420D01*
X010722Y015233D02*
X010908Y015420D01*
X010628Y015823D02*
X010908Y016010D01*
X010908Y016412D02*
X010628Y016412D01*
X010722Y016412D02*
X010722Y016552D01*
X010768Y016599D01*
X010862Y016599D01*
X010908Y016552D01*
X010908Y016412D01*
X010815Y016707D02*
X010908Y016800D01*
X010815Y016894D01*
X010628Y016894D01*
X010628Y017001D02*
X010628Y017188D01*
X010628Y017095D02*
X010908Y017095D01*
X010815Y017001D01*
X010768Y016894D02*
X010768Y016707D01*
X010815Y016707D02*
X010628Y016707D01*
X010768Y017296D02*
X010768Y017483D01*
X010628Y017436D02*
X010908Y017436D01*
X010768Y017296D01*
X010768Y017885D02*
X010768Y018072D01*
X010675Y018072D02*
X010862Y017885D01*
X010862Y017979D02*
X010675Y017979D01*
X010675Y017885D02*
X010862Y018072D01*
X009862Y018072D02*
X009675Y017885D01*
X009768Y017885D02*
X009768Y018072D01*
X009675Y018072D02*
X009862Y017885D01*
X009862Y017979D02*
X009675Y017979D01*
X009675Y017483D02*
X009628Y017436D01*
X009628Y017343D01*
X009675Y017296D01*
X009768Y017296D02*
X009815Y017389D01*
X009815Y017436D01*
X009768Y017483D01*
X009675Y017483D01*
X009768Y017296D02*
X009908Y017296D01*
X009908Y017483D01*
X009628Y017188D02*
X009628Y017001D01*
X009628Y017095D02*
X009908Y017095D01*
X009815Y017001D01*
X009815Y016894D02*
X009628Y016894D01*
X009768Y016894D02*
X009768Y016707D01*
X009815Y016707D02*
X009628Y016707D01*
X009768Y016599D02*
X009722Y016552D01*
X009722Y016412D01*
X009628Y016412D02*
X009908Y016412D01*
X009908Y016552D01*
X009862Y016599D01*
X009768Y016599D01*
X009815Y016707D02*
X009908Y016800D01*
X009815Y016894D01*
X008908Y016847D02*
X008908Y016707D01*
X008628Y016707D01*
X008722Y016707D02*
X008722Y016847D01*
X008768Y016894D01*
X008862Y016894D01*
X008908Y016847D01*
X008908Y017001D02*
X008628Y017001D01*
X008628Y017142D01*
X008675Y017188D01*
X008722Y017188D01*
X008768Y017142D01*
X008768Y017001D01*
X008908Y017001D02*
X008908Y017142D01*
X008862Y017188D01*
X008815Y017188D01*
X008768Y017142D01*
X008675Y017296D02*
X008628Y017343D01*
X008628Y017436D01*
X008675Y017483D01*
X008722Y017483D01*
X008768Y017436D01*
X008768Y017389D01*
X008768Y017436D02*
X008815Y017483D01*
X008862Y017483D01*
X008908Y017436D01*
X008908Y017343D01*
X008862Y017296D01*
X008862Y017885D02*
X008675Y018072D01*
X008675Y017979D02*
X008862Y017979D01*
X008862Y018072D02*
X008675Y017885D01*
X008768Y017885D02*
X008768Y018072D01*
X007862Y018072D02*
X007675Y017885D01*
X007768Y017885D02*
X007768Y018072D01*
X007675Y018072D02*
X007862Y017885D01*
X007862Y017979D02*
X007675Y017979D01*
X007768Y017483D02*
X007768Y017296D01*
X007908Y017436D01*
X007628Y017436D01*
X007675Y017188D02*
X007628Y017142D01*
X007628Y017001D01*
X007908Y017001D01*
X007908Y017142D01*
X007862Y017188D01*
X007815Y017188D01*
X007768Y017142D01*
X007768Y017001D01*
X007768Y016894D02*
X007722Y016847D01*
X007722Y016707D01*
X007628Y016707D02*
X007908Y016707D01*
X007908Y016847D01*
X007862Y016894D01*
X007768Y016894D01*
X007768Y017142D02*
X007722Y017188D01*
X007675Y017188D01*
X006908Y017296D02*
X006908Y017436D01*
X006862Y017483D01*
X006768Y017483D01*
X006722Y017436D01*
X006722Y017296D01*
X006628Y017296D02*
X006908Y017296D01*
X006908Y017591D02*
X006628Y017591D01*
X006628Y017731D01*
X006675Y017778D01*
X006722Y017778D01*
X006768Y017731D01*
X006768Y017591D01*
X006768Y017731D02*
X006815Y017778D01*
X006862Y017778D01*
X006908Y017731D01*
X006908Y017591D01*
X006908Y017885D02*
X006768Y017885D01*
X006815Y017979D01*
X006815Y018025D01*
X006768Y018072D01*
X006675Y018072D01*
X006628Y018025D01*
X006628Y017932D01*
X006675Y017885D01*
X006908Y017885D02*
X006908Y018072D01*
X005908Y017483D02*
X005862Y017389D01*
X005768Y017296D01*
X005768Y017436D01*
X005722Y017483D01*
X005675Y017483D01*
X005628Y017436D01*
X005628Y017343D01*
X005675Y017296D01*
X005768Y017296D01*
X005722Y017188D02*
X005675Y017188D01*
X005628Y017142D01*
X005628Y017001D01*
X005908Y017001D01*
X005908Y017142D01*
X005862Y017188D01*
X005815Y017188D01*
X005768Y017142D01*
X005768Y017001D01*
X005768Y016894D02*
X005722Y016847D01*
X005722Y016707D01*
X005628Y016707D02*
X005908Y016707D01*
X005908Y016847D01*
X005862Y016894D01*
X005768Y016894D01*
X005768Y017142D02*
X005722Y017188D01*
X005768Y017885D02*
X005768Y018072D01*
X005675Y018072D02*
X005862Y017885D01*
X005862Y017979D02*
X005675Y017979D01*
X005675Y017885D02*
X005862Y018072D01*
X004862Y018072D02*
X004675Y017885D01*
X004768Y017885D02*
X004768Y018072D01*
X004675Y018072D02*
X004862Y017885D01*
X004862Y017979D02*
X004675Y017979D01*
X004862Y017483D02*
X004675Y017296D01*
X004628Y017296D01*
X004675Y017188D02*
X004628Y017142D01*
X004628Y017001D01*
X004908Y017001D01*
X004908Y017142D01*
X004862Y017188D01*
X004815Y017188D01*
X004768Y017142D01*
X004768Y017001D01*
X004768Y016894D02*
X004722Y016847D01*
X004722Y016707D01*
X004628Y016707D02*
X004908Y016707D01*
X004908Y016847D01*
X004862Y016894D01*
X004768Y016894D01*
X004768Y017142D02*
X004722Y017188D01*
X004675Y017188D01*
X004908Y017296D02*
X004908Y017483D01*
X004862Y017483D01*
X003908Y017436D02*
X003862Y017483D01*
X003675Y017483D01*
X003628Y017436D01*
X003628Y017343D01*
X003675Y017296D01*
X003862Y017296D01*
X003908Y017343D01*
X003908Y017436D01*
X003908Y017591D02*
X003908Y017778D01*
X003908Y017684D02*
X003628Y017684D01*
X003675Y017885D02*
X003862Y018072D01*
X003675Y018072D01*
X003628Y018025D01*
X003628Y017932D01*
X003675Y017885D01*
X003862Y017885D01*
X003908Y017932D01*
X003908Y018025D01*
X003862Y018072D01*
X003362Y018072D02*
X003175Y017885D01*
X003268Y017885D02*
X003268Y018072D01*
X003175Y018072D02*
X003362Y017885D01*
X003362Y017979D02*
X003175Y017979D01*
X003175Y017483D02*
X003128Y017436D01*
X003128Y017343D01*
X003175Y017296D01*
X003222Y017296D01*
X003268Y017343D01*
X003268Y017436D01*
X003222Y017483D01*
X003175Y017483D01*
X003268Y017436D02*
X003315Y017483D01*
X003362Y017483D01*
X003408Y017436D01*
X003408Y017343D01*
X003362Y017296D01*
X003315Y017296D01*
X003268Y017343D01*
X003222Y017188D02*
X003175Y017188D01*
X003128Y017142D01*
X003128Y017001D01*
X003408Y017001D01*
X003408Y017142D01*
X003362Y017188D01*
X003315Y017188D01*
X003268Y017142D01*
X003268Y017001D01*
X003268Y016894D02*
X003222Y016847D01*
X003222Y016707D01*
X003128Y016707D02*
X003408Y016707D01*
X003408Y016847D01*
X003362Y016894D01*
X003268Y016894D01*
X003628Y016847D02*
X003628Y016707D01*
X003908Y016707D01*
X003908Y016847D01*
X003862Y016894D01*
X003815Y016894D01*
X003768Y016847D01*
X003768Y016707D01*
X003768Y016847D02*
X003722Y016894D01*
X003675Y016894D01*
X003628Y016847D01*
X003675Y017001D02*
X003628Y017048D01*
X003628Y017142D01*
X003675Y017188D01*
X003862Y017188D01*
X003908Y017142D01*
X003908Y017048D01*
X003862Y017001D01*
X003675Y017001D01*
X003268Y017142D02*
X003222Y017188D01*
X008628Y016117D02*
X008908Y016304D01*
X008862Y015715D02*
X008675Y015715D01*
X008628Y015668D01*
X008628Y015575D01*
X008675Y015528D01*
X008862Y015528D01*
X008908Y015575D01*
X008908Y015668D01*
X008862Y015715D01*
X008908Y015420D02*
X008628Y015420D01*
X008722Y015327D01*
X008628Y015233D01*
X008908Y015233D01*
X008862Y015126D02*
X008908Y015079D01*
X008908Y014986D01*
X008862Y014939D01*
X008815Y014939D01*
X008768Y014986D01*
X008768Y015079D01*
X008722Y015126D01*
X008675Y015126D01*
X008628Y015079D01*
X008628Y014986D01*
X008675Y014939D01*
X008628Y014831D02*
X008628Y014644D01*
X008908Y014644D01*
X008908Y014831D01*
X008768Y014738D02*
X008768Y014644D01*
X008675Y014536D02*
X008628Y014490D01*
X008628Y014396D01*
X008675Y014350D01*
X008862Y014350D01*
X008908Y014396D01*
X008908Y014490D01*
X008862Y014536D01*
X008815Y014242D02*
X008628Y014242D01*
X008768Y014242D02*
X008768Y014055D01*
X008815Y014055D02*
X008908Y014148D01*
X008815Y014242D01*
X008815Y014055D02*
X008628Y014055D01*
X008628Y013947D02*
X008722Y013854D01*
X008722Y013900D02*
X008722Y013760D01*
X008628Y013760D02*
X008908Y013760D01*
X008908Y013900D01*
X008862Y013947D01*
X008768Y013947D01*
X008722Y013900D01*
X008908Y013652D02*
X008908Y013466D01*
X008908Y013559D02*
X008628Y013559D01*
X010628Y014691D02*
X010628Y014784D01*
X010675Y014831D01*
X010628Y014691D02*
X010675Y014644D01*
X010862Y014644D01*
X011862Y017296D02*
X011908Y017343D01*
X011908Y017436D01*
X011862Y017483D01*
X011815Y017483D01*
X011768Y017436D01*
X011722Y017483D01*
X011675Y017483D01*
X011768Y017436D02*
X011768Y017389D01*
X013675Y017885D02*
X013862Y018072D01*
X013862Y017979D02*
X013675Y017979D01*
X013675Y018072D02*
X013862Y017885D01*
X013768Y017885D02*
X013768Y018072D01*
X014768Y016599D02*
X014722Y016552D01*
X014722Y016412D01*
X014628Y016412D02*
X014908Y016412D01*
X014908Y016552D01*
X014862Y016599D01*
X014768Y016599D01*
X015675Y017885D02*
X015862Y018072D01*
X015862Y017979D02*
X015675Y017979D01*
X015675Y018072D02*
X015862Y017885D01*
X015768Y017885D02*
X015768Y018072D01*
X016634Y012986D02*
X016634Y012939D01*
X016821Y012752D01*
X016821Y012706D01*
X016928Y012752D02*
X016975Y012706D01*
X017069Y012706D01*
X017115Y012752D01*
X017115Y012939D01*
X017069Y012986D01*
X016975Y012986D01*
X016928Y012939D01*
X016821Y012986D02*
X016634Y012986D01*
X017223Y012939D02*
X017223Y012846D01*
X017270Y012799D01*
X017410Y012799D01*
X017410Y012706D02*
X017410Y012986D01*
X017270Y012986D01*
X017223Y012939D01*
X017812Y012986D02*
X017999Y012706D01*
X017773Y012061D02*
X017960Y011780D01*
X017371Y011780D02*
X017371Y012061D01*
X017230Y012061D01*
X017184Y012014D01*
X017184Y011921D01*
X017230Y011874D01*
X017371Y011874D01*
X017076Y011827D02*
X017076Y012014D01*
X017029Y012061D01*
X016936Y012061D01*
X016889Y012014D01*
X016781Y012014D02*
X016781Y011967D01*
X016735Y011921D01*
X016641Y011921D01*
X016594Y011874D01*
X016594Y011827D01*
X016641Y011780D01*
X016735Y011780D01*
X016781Y011827D01*
X016781Y011874D01*
X016735Y011921D01*
X016641Y011921D02*
X016594Y011967D01*
X016594Y012014D01*
X016641Y012061D01*
X016735Y012061D01*
X016781Y012014D01*
X016889Y011827D02*
X016936Y011780D01*
X017029Y011780D01*
X017076Y011827D01*
X017029Y011037D02*
X016936Y011037D01*
X016889Y010990D01*
X016781Y010990D02*
X016781Y010944D01*
X016735Y010897D01*
X016594Y010897D01*
X016594Y010990D02*
X016594Y010803D01*
X016641Y010757D01*
X016735Y010757D01*
X016781Y010803D01*
X016889Y010803D02*
X016936Y010757D01*
X017029Y010757D01*
X017076Y010803D01*
X017076Y010990D01*
X017029Y011037D01*
X017184Y010990D02*
X017184Y010897D01*
X017230Y010850D01*
X017371Y010850D01*
X017371Y010757D02*
X017371Y011037D01*
X017230Y011037D01*
X017184Y010990D01*
X016781Y010990D02*
X016735Y011037D01*
X016641Y011037D01*
X016594Y010990D01*
X017773Y011037D02*
X017960Y010757D01*
X021128Y016707D02*
X021408Y016707D01*
X021408Y016847D01*
X021362Y016894D01*
X021268Y016894D01*
X021222Y016847D01*
X021222Y016707D01*
X021268Y017001D02*
X021268Y017142D01*
X021222Y017188D01*
X021175Y017188D01*
X021128Y017142D01*
X021128Y017001D01*
X021408Y017001D01*
X021408Y017142D01*
X021362Y017188D01*
X021315Y017188D01*
X021268Y017142D01*
X021315Y017296D02*
X021408Y017389D01*
X021128Y017389D01*
X021128Y017296D02*
X021128Y017483D01*
X021128Y017591D02*
X021315Y017778D01*
X021362Y017778D01*
X021408Y017731D01*
X021408Y017637D01*
X021362Y017591D01*
X021128Y017591D02*
X021128Y017778D01*
X021175Y017885D02*
X021362Y018072D01*
X021362Y017979D02*
X021175Y017979D01*
X021175Y018072D02*
X021362Y017885D01*
X021268Y017885D02*
X021268Y018072D01*
X008908Y003572D02*
X008908Y003385D01*
X008908Y003479D02*
X008628Y003479D01*
X008628Y003278D02*
X008628Y003091D01*
X008908Y003091D01*
X008908Y003278D01*
X008768Y003184D02*
X008768Y003091D01*
X008722Y002983D02*
X008675Y002983D01*
X008628Y002936D01*
X008628Y002843D01*
X008675Y002796D01*
X008768Y002843D02*
X008768Y002936D01*
X008722Y002983D01*
X008862Y002983D02*
X008908Y002936D01*
X008908Y002843D01*
X008862Y002796D01*
X008815Y002796D01*
X008768Y002843D01*
X008628Y002688D02*
X008628Y002501D01*
X008908Y002501D01*
X008908Y002688D01*
X008768Y002595D02*
X008768Y002501D01*
X008768Y002394D02*
X008722Y002347D01*
X008722Y002207D01*
X008722Y002300D02*
X008628Y002394D01*
X008768Y002394D02*
X008862Y002394D01*
X008908Y002347D01*
X008908Y002207D01*
X008628Y002207D01*
X008065Y002142D02*
X008018Y002188D01*
X007925Y002188D01*
X007878Y002142D01*
X007878Y002001D01*
X007785Y002001D02*
X008065Y002001D01*
X008065Y002142D01*
X008018Y002296D02*
X007925Y002296D01*
X007878Y002343D01*
X007878Y002483D01*
X007878Y002591D02*
X007878Y002778D01*
X007878Y002684D02*
X008158Y002684D01*
X008065Y002591D01*
X008065Y002483D02*
X008065Y002343D01*
X008018Y002296D01*
X008018Y002885D02*
X008065Y002979D01*
X008065Y003025D01*
X008018Y003072D01*
X007925Y003072D01*
X007878Y003025D01*
X007878Y002932D01*
X007925Y002885D01*
X008018Y002885D02*
X008158Y002885D01*
X008158Y003072D01*
X006908Y003025D02*
X006768Y002885D01*
X006768Y003072D01*
X006628Y003025D02*
X006908Y003025D01*
X006908Y002684D02*
X006628Y002684D01*
X006628Y002591D02*
X006628Y002778D01*
X006815Y002591D02*
X006908Y002684D01*
X006815Y002483D02*
X006815Y002343D01*
X006768Y002296D01*
X006675Y002296D01*
X006628Y002343D01*
X006628Y002483D01*
X006675Y002188D02*
X006628Y002142D01*
X006628Y002001D01*
X006535Y002001D02*
X006815Y002001D01*
X006815Y002142D01*
X006768Y002188D01*
X006675Y002188D01*
X006065Y002142D02*
X006018Y002188D01*
X005925Y002188D01*
X005878Y002142D01*
X005878Y002001D01*
X005785Y002001D02*
X006065Y002001D01*
X006065Y002142D01*
X006018Y002296D02*
X005925Y002296D01*
X005878Y002343D01*
X005878Y002483D01*
X005878Y002591D02*
X005878Y002778D01*
X005878Y002684D02*
X006158Y002684D01*
X006065Y002591D01*
X006065Y002483D02*
X006065Y002343D01*
X006018Y002296D01*
X005925Y002885D02*
X005878Y002932D01*
X005878Y003025D01*
X005925Y003072D01*
X005972Y003072D01*
X006018Y003025D01*
X006018Y002979D01*
X006018Y003025D02*
X006065Y003072D01*
X006112Y003072D01*
X006158Y003025D01*
X006158Y002932D01*
X006112Y002885D01*
X004868Y002587D02*
X004868Y002446D01*
X004588Y002446D01*
X004588Y002587D01*
X004635Y002633D01*
X004821Y002633D01*
X004868Y002587D01*
X004868Y002339D02*
X004588Y002339D01*
X004868Y002152D01*
X004588Y002152D01*
X004635Y002044D02*
X004728Y002044D01*
X004728Y001951D01*
X004635Y002044D02*
X004588Y001997D01*
X004588Y001904D01*
X004635Y001857D01*
X004821Y001857D01*
X004868Y001904D01*
X004868Y001997D01*
X004821Y002044D01*
X003658Y002091D02*
X003472Y002091D01*
X003378Y002184D01*
X003472Y002278D01*
X003658Y002278D01*
X003612Y002385D02*
X003658Y002432D01*
X003658Y002525D01*
X003612Y002572D01*
X003565Y002572D01*
X003518Y002525D01*
X003472Y002572D01*
X003425Y002572D01*
X003378Y002525D01*
X003378Y002432D01*
X003425Y002385D01*
X003518Y002479D02*
X003518Y002525D01*
X003472Y001983D02*
X003425Y001983D01*
X003378Y001936D01*
X003378Y001843D01*
X003425Y001796D01*
X003518Y001889D02*
X003518Y001936D01*
X003472Y001983D01*
X003518Y001936D02*
X003565Y001983D01*
X003612Y001983D01*
X003658Y001936D01*
X003658Y001843D01*
X003612Y001796D01*
X002908Y001894D02*
X002722Y001894D01*
X002628Y001988D01*
X002722Y002081D01*
X002908Y002081D01*
X002815Y002189D02*
X002815Y002236D01*
X002628Y002236D01*
X002628Y002282D02*
X002628Y002189D01*
X002628Y002385D02*
X002815Y002385D01*
X002815Y002525D01*
X002768Y002572D01*
X002628Y002572D01*
X002908Y002236D02*
X002955Y002236D01*
X009628Y002341D02*
X009815Y002341D01*
X009908Y002434D01*
X009815Y002528D01*
X009628Y002528D01*
X009675Y002635D02*
X009862Y002822D01*
X009675Y002822D01*
X009628Y002775D01*
X009628Y002682D01*
X009675Y002635D01*
X009862Y002635D01*
X009908Y002682D01*
X009908Y002775D01*
X009862Y002822D01*
X009768Y002528D02*
X009768Y002341D01*
X009768Y002233D02*
X009722Y002186D01*
X009722Y002046D01*
X009628Y002046D02*
X009908Y002046D01*
X009908Y002186D01*
X009862Y002233D01*
X009768Y002233D01*
X010628Y002341D02*
X010815Y002341D01*
X010908Y002434D01*
X010815Y002528D01*
X010628Y002528D01*
X010628Y002635D02*
X010628Y002822D01*
X010628Y002729D02*
X010908Y002729D01*
X010815Y002635D01*
X010768Y002528D02*
X010768Y002341D01*
X010768Y002233D02*
X010722Y002186D01*
X010722Y002046D01*
X010628Y002046D02*
X010908Y002046D01*
X010908Y002186D01*
X010862Y002233D01*
X010768Y002233D01*
X011628Y002341D02*
X011815Y002341D01*
X011908Y002434D01*
X011815Y002528D01*
X011628Y002528D01*
X011628Y002635D02*
X011815Y002822D01*
X011862Y002822D01*
X011908Y002775D01*
X011908Y002682D01*
X011862Y002635D01*
X011768Y002528D02*
X011768Y002341D01*
X011768Y002233D02*
X011722Y002186D01*
X011722Y002046D01*
X011628Y002046D02*
X011908Y002046D01*
X011908Y002186D01*
X011862Y002233D01*
X011768Y002233D01*
X011628Y002635D02*
X011628Y002822D01*
X012628Y002775D02*
X012628Y002682D01*
X012675Y002635D01*
X012628Y002528D02*
X012815Y002528D01*
X012908Y002434D01*
X012815Y002341D01*
X012628Y002341D01*
X012768Y002341D02*
X012768Y002528D01*
X012862Y002635D02*
X012908Y002682D01*
X012908Y002775D01*
X012862Y002822D01*
X012815Y002822D01*
X012768Y002775D01*
X012722Y002822D01*
X012675Y002822D01*
X012628Y002775D01*
X012768Y002775D02*
X012768Y002729D01*
X012768Y002233D02*
X012722Y002186D01*
X012722Y002046D01*
X012628Y002046D02*
X012908Y002046D01*
X012908Y002186D01*
X012862Y002233D01*
X012768Y002233D01*
X013628Y002341D02*
X013815Y002341D01*
X013908Y002434D01*
X013815Y002528D01*
X013628Y002528D01*
X013768Y002528D02*
X013768Y002341D01*
X013768Y002233D02*
X013722Y002186D01*
X013722Y002046D01*
X013628Y002046D02*
X013908Y002046D01*
X013908Y002186D01*
X013862Y002233D01*
X013768Y002233D01*
X013768Y002635D02*
X013768Y002822D01*
X013628Y002775D02*
X013908Y002775D01*
X013768Y002635D01*
X014628Y002682D02*
X014675Y002635D01*
X014628Y002682D02*
X014628Y002775D01*
X014675Y002822D01*
X014768Y002822D01*
X014815Y002775D01*
X014815Y002729D01*
X014768Y002635D01*
X014908Y002635D01*
X014908Y002822D01*
X014815Y002528D02*
X014628Y002528D01*
X014768Y002528D02*
X014768Y002341D01*
X014815Y002341D02*
X014628Y002341D01*
X014768Y002233D02*
X014722Y002186D01*
X014722Y002046D01*
X014628Y002046D02*
X014908Y002046D01*
X014908Y002186D01*
X014862Y002233D01*
X014768Y002233D01*
X014815Y002341D02*
X014908Y002434D01*
X014815Y002528D01*
X015628Y002528D02*
X015815Y002528D01*
X015908Y002434D01*
X015815Y002341D01*
X015628Y002341D01*
X015768Y002341D02*
X015768Y002528D01*
X015768Y002635D02*
X015768Y002775D01*
X015722Y002822D01*
X015675Y002822D01*
X015628Y002775D01*
X015628Y002682D01*
X015675Y002635D01*
X015768Y002635D01*
X015862Y002729D01*
X015908Y002822D01*
X015862Y002233D02*
X015768Y002233D01*
X015722Y002186D01*
X015722Y002046D01*
X015628Y002046D02*
X015908Y002046D01*
X015908Y002186D01*
X015862Y002233D01*
X016628Y002341D02*
X016815Y002341D01*
X016908Y002434D01*
X016815Y002528D01*
X016628Y002528D01*
X016628Y002635D02*
X016675Y002635D01*
X016862Y002822D01*
X016908Y002822D01*
X016908Y002635D01*
X016768Y002528D02*
X016768Y002341D01*
X016768Y002233D02*
X016722Y002186D01*
X016722Y002046D01*
X016628Y002046D02*
X016908Y002046D01*
X016908Y002186D01*
X016862Y002233D01*
X016768Y002233D01*
X017628Y002341D02*
X017628Y002481D01*
X017675Y002528D01*
X017722Y002528D01*
X017768Y002481D01*
X017768Y002341D01*
X017768Y002233D02*
X017722Y002186D01*
X017722Y002046D01*
X017628Y002046D02*
X017908Y002046D01*
X017908Y002186D01*
X017862Y002233D01*
X017768Y002233D01*
X017628Y002341D02*
X017908Y002341D01*
X017908Y002481D01*
X017862Y002528D01*
X017815Y002528D01*
X017768Y002481D01*
X017675Y002635D02*
X017862Y002822D01*
X017675Y002822D01*
X017628Y002775D01*
X017628Y002682D01*
X017675Y002635D01*
X017862Y002635D01*
X017908Y002682D01*
X017908Y002775D01*
X017862Y002822D01*
X018628Y002822D02*
X018628Y002635D01*
X018628Y002729D02*
X018908Y002729D01*
X018815Y002635D01*
X018815Y002528D02*
X018768Y002481D01*
X018768Y002341D01*
X018768Y002233D02*
X018722Y002186D01*
X018722Y002046D01*
X018628Y002046D02*
X018908Y002046D01*
X018908Y002186D01*
X018862Y002233D01*
X018768Y002233D01*
X018628Y002341D02*
X018628Y002481D01*
X018675Y002528D01*
X018722Y002528D01*
X018768Y002481D01*
X018815Y002528D02*
X018862Y002528D01*
X018908Y002481D01*
X018908Y002341D01*
X018628Y002341D01*
X019628Y002546D02*
X019908Y002546D01*
X019862Y002144D02*
X019675Y001957D01*
X019675Y002050D02*
X019862Y002050D01*
X019862Y001957D02*
X019675Y002144D01*
X019768Y002144D02*
X019768Y001957D01*
X021128Y002251D02*
X021408Y002251D01*
X021408Y002392D01*
X021362Y002438D01*
X021268Y002438D01*
X021222Y002392D01*
X021222Y002251D01*
X021268Y002144D02*
X021268Y001957D01*
X021175Y001957D02*
X021362Y002144D01*
X021362Y002050D02*
X021175Y002050D01*
X021175Y002144D02*
X021362Y001957D01*
X021408Y002546D02*
X021128Y002546D01*
X021128Y002686D01*
X021175Y002733D01*
X021222Y002733D01*
X021268Y002686D01*
X021268Y002546D01*
X021268Y002686D02*
X021315Y002733D01*
X021362Y002733D01*
X021408Y002686D01*
X021408Y002546D01*
X021315Y002841D02*
X021408Y002934D01*
X021128Y002934D01*
X021128Y002841D02*
X021128Y003028D01*
X021128Y003135D02*
X021128Y003322D01*
X021128Y003229D02*
X021408Y003229D01*
X021315Y003135D01*
M02*
