%
M48
M72
T01C0.0157
T02C0.0354
T03C0.0400
T04C0.1180
%
T01
X4591Y10571
X5858Y12048
X9831Y11079
X10539Y11016
X11110Y12863
X14260Y10508
X14756Y10611
X15657Y10690
X16185Y11052
X16843Y10705
X16610Y9764
X17268Y9831
X18555Y10308
X17260Y11540
X17178Y12272
X16994Y12619
X16667Y12072
X14748Y13213
X17776Y8485
X17740Y8056
X16677Y8272
X15256Y8335
X15224Y7749
X14516Y8166
X12047Y6331
X10972Y7276
X17016Y6056
X17217Y5402
X7740Y16216
T02
X2858Y10619
X2858Y8886
T03
X1303Y910
X2303Y910
X3303Y910
X4303Y910
X5303Y910
X6303Y910
X7303Y910
X8303Y910
X9303Y910
X10303Y910
X11303Y910
X12303Y910
X13303Y910
X14303Y910
X15303Y910
X16303Y910
X17303Y910
X18303Y910
X19303Y910
X19303Y3910
X19303Y4910
X19303Y5910
X19303Y13910
X19303Y14910
X19303Y15910
X19303Y18910
X18303Y18910
X17303Y18910
X16303Y18910
X15303Y18910
X14303Y18910
X13303Y18910
X12303Y18910
X11303Y18910
X10303Y18910
X9303Y18910
X8303Y18910
X7303Y18910
X6303Y18910
X5303Y18910
X4303Y18910
X3303Y18910
X2303Y18910
X1303Y18910
T04
X3531Y4910
X4713Y3060
X5894Y4910
M30
