G75*
G70*
%OFA0B0*%
%FSLAX24Y24*%
%IPPOS*%
%LPD*%
%AMOC8*
5,1,8,0,0,1.08239X$1,22.5*
%
%ADD10C,0.0000*%
%ADD11C,0.0600*%
%ADD12C,0.1700*%
%ADD13C,0.0157*%
%ADD14C,0.0277*%
D10*
X000500Y000107D02*
X000500Y019792D01*
X020185Y019792D01*
X020185Y000107D01*
X000500Y000107D01*
X002681Y008886D02*
X002683Y008912D01*
X002689Y008938D01*
X002699Y008963D01*
X002712Y008986D01*
X002728Y009006D01*
X002748Y009024D01*
X002770Y009039D01*
X002793Y009051D01*
X002819Y009059D01*
X002845Y009063D01*
X002871Y009063D01*
X002897Y009059D01*
X002923Y009051D01*
X002947Y009039D01*
X002968Y009024D01*
X002988Y009006D01*
X003004Y008986D01*
X003017Y008963D01*
X003027Y008938D01*
X003033Y008912D01*
X003035Y008886D01*
X003033Y008860D01*
X003027Y008834D01*
X003017Y008809D01*
X003004Y008786D01*
X002988Y008766D01*
X002968Y008748D01*
X002946Y008733D01*
X002923Y008721D01*
X002897Y008713D01*
X002871Y008709D01*
X002845Y008709D01*
X002819Y008713D01*
X002793Y008721D01*
X002769Y008733D01*
X002748Y008748D01*
X002728Y008766D01*
X002712Y008786D01*
X002699Y008809D01*
X002689Y008834D01*
X002683Y008860D01*
X002681Y008886D01*
X002681Y010619D02*
X002683Y010645D01*
X002689Y010671D01*
X002699Y010696D01*
X002712Y010719D01*
X002728Y010739D01*
X002748Y010757D01*
X002770Y010772D01*
X002793Y010784D01*
X002819Y010792D01*
X002845Y010796D01*
X002871Y010796D01*
X002897Y010792D01*
X002923Y010784D01*
X002947Y010772D01*
X002968Y010757D01*
X002988Y010739D01*
X003004Y010719D01*
X003017Y010696D01*
X003027Y010671D01*
X003033Y010645D01*
X003035Y010619D01*
X003033Y010593D01*
X003027Y010567D01*
X003017Y010542D01*
X003004Y010519D01*
X002988Y010499D01*
X002968Y010481D01*
X002946Y010466D01*
X002923Y010454D01*
X002897Y010446D01*
X002871Y010442D01*
X002845Y010442D01*
X002819Y010446D01*
X002793Y010454D01*
X002769Y010466D01*
X002748Y010481D01*
X002728Y010499D01*
X002712Y010519D01*
X002699Y010542D01*
X002689Y010567D01*
X002683Y010593D01*
X002681Y010619D01*
D11*
X002303Y018610D02*
X002303Y019210D01*
X001303Y019210D02*
X001303Y018610D01*
X003303Y018610D02*
X003303Y019210D01*
X004303Y019210D02*
X004303Y018610D01*
X005303Y018610D02*
X005303Y019210D01*
X006303Y019210D02*
X006303Y018610D01*
X007303Y018610D02*
X007303Y019210D01*
X008303Y019210D02*
X008303Y018610D01*
X009303Y018610D02*
X009303Y019210D01*
X010303Y019210D02*
X010303Y018610D01*
X011303Y018610D02*
X011303Y019210D01*
X012303Y019210D02*
X012303Y018610D01*
X013303Y018610D02*
X013303Y019210D01*
X014303Y019210D02*
X014303Y018610D01*
X015303Y018610D02*
X015303Y019210D01*
X016303Y019210D02*
X016303Y018610D01*
X017303Y018610D02*
X017303Y019210D01*
X018303Y019210D02*
X018303Y018610D01*
X019303Y018610D02*
X019303Y019210D01*
X019603Y015910D02*
X019003Y015910D01*
X019003Y014910D02*
X019603Y014910D01*
X019603Y013910D02*
X019003Y013910D01*
X019003Y005910D02*
X019603Y005910D01*
X019603Y004910D02*
X019003Y004910D01*
X019003Y003910D02*
X019603Y003910D01*
X019303Y001210D02*
X019303Y000610D01*
X018303Y000610D02*
X018303Y001210D01*
X017303Y001210D02*
X017303Y000610D01*
X016303Y000610D02*
X016303Y001210D01*
X015303Y001210D02*
X015303Y000610D01*
X014303Y000610D02*
X014303Y001210D01*
X013303Y001210D02*
X013303Y000610D01*
X012303Y000610D02*
X012303Y001210D01*
X011303Y001210D02*
X011303Y000610D01*
X010303Y000610D02*
X010303Y001210D01*
X009303Y001210D02*
X009303Y000610D01*
X008303Y000610D02*
X008303Y001210D01*
X007303Y001210D02*
X007303Y000610D01*
X006303Y000610D02*
X006303Y001210D01*
X005303Y001210D02*
X005303Y000610D01*
X004303Y000610D02*
X004303Y001210D01*
X003303Y001210D02*
X003303Y000610D01*
X002303Y000610D02*
X002303Y001210D01*
X001303Y001210D02*
X001303Y000610D01*
D12*
X004713Y003060D03*
X005894Y004910D03*
X003531Y004910D03*
D13*
X003303Y001210D01*
X003303Y000910D01*
X002303Y000910D02*
X002303Y001210D01*
X002445Y005233D01*
X002535Y005450D01*
X002992Y005906D01*
X006402Y008638D01*
X005858Y012048D01*
X005504Y012195D02*
X004945Y010425D01*
X002268Y005628D01*
X002130Y005296D01*
X001303Y001210D01*
X001303Y000910D01*
X007303Y000910D02*
X007303Y001210D01*
X014614Y010362D01*
X014756Y010611D01*
X014609Y010965D02*
X015260Y011615D01*
X014748Y013213D01*
X014601Y013567D02*
X014394Y013360D01*
X010972Y007276D01*
X011119Y006922D02*
X011327Y007129D01*
X014260Y010508D01*
X014402Y010758D01*
X014609Y010965D01*
X015260Y011615D02*
X016332Y011406D01*
X016539Y011199D01*
X016539Y010905D01*
X016488Y010852D01*
X016488Y010559D01*
X016610Y009764D01*
X016939Y009628D02*
X015899Y008032D01*
X015579Y007602D01*
X015371Y007394D01*
X008303Y001210D01*
X008303Y000910D01*
X009303Y000910D02*
X009303Y001210D01*
X015528Y007106D01*
X015867Y007445D01*
X016677Y008272D01*
X017031Y008374D02*
X017031Y008125D01*
X010303Y001210D01*
X010303Y000910D01*
X011303Y000910D02*
X011303Y001210D01*
X017320Y007969D01*
X017346Y008032D01*
X017425Y008242D01*
X017776Y008485D01*
X017740Y008056D02*
X017343Y006330D01*
X017343Y005920D01*
X017151Y005729D01*
X017081Y005729D01*
X016890Y005537D01*
X013303Y001210D01*
X013303Y000910D01*
X012303Y000910D02*
X012303Y001210D01*
X016587Y005697D01*
X016922Y006032D01*
X016980Y006056D01*
X017016Y006056D01*
X017631Y005827D02*
X017561Y005304D01*
X017561Y005259D01*
X015303Y001210D01*
X015303Y000910D01*
X014303Y000910D02*
X014303Y001210D01*
X017217Y005402D01*
X017631Y005827D02*
X017631Y006290D01*
X018055Y007988D01*
X018150Y008968D01*
X018150Y009261D01*
X017260Y011540D01*
X017178Y012272D02*
X018909Y010454D01*
X018909Y010161D01*
X018780Y008812D01*
X018685Y007832D01*
X018206Y006175D01*
X018206Y005712D01*
X018171Y005182D01*
X018171Y005105D01*
X018152Y004186D01*
X018152Y003634D01*
X018303Y001210D01*
X018303Y000910D01*
X019303Y000910D02*
X019303Y001210D01*
X018467Y003697D01*
X018467Y004123D01*
X018477Y005045D01*
X018477Y005122D01*
X018494Y005655D01*
X018494Y006118D01*
X019000Y007769D01*
X019224Y010068D01*
X019224Y010548D01*
X019198Y010611D01*
X017587Y012416D01*
X017384Y012619D01*
X016994Y012619D01*
X016667Y012072D02*
X014895Y013567D01*
X014601Y013567D01*
X014444Y013856D02*
X010686Y010662D01*
X010393Y010662D01*
X009684Y010725D01*
X006005Y012402D01*
X005711Y012402D01*
X005504Y012195D01*
X005189Y012288D02*
X005215Y012351D01*
X007740Y016216D01*
X010756Y013010D02*
X012303Y018610D01*
X012303Y018910D01*
X011303Y018910D02*
X011303Y018610D01*
X009831Y011079D01*
X010539Y011016D02*
X010756Y013010D01*
X011110Y012863D02*
X014445Y014197D01*
X019003Y015910D01*
X019303Y015910D01*
X019303Y013910D02*
X019003Y013910D01*
X014508Y013882D01*
X014444Y013856D01*
X016185Y011052D02*
X015610Y008188D01*
X015224Y007749D01*
X015256Y008335D02*
X015657Y010690D01*
X016843Y010705D02*
X016939Y009901D01*
X016939Y009628D01*
X017268Y009527D02*
X017031Y008374D01*
X017268Y009527D02*
X017268Y009831D01*
X018555Y010308D02*
X018465Y008875D01*
X018370Y007894D01*
X017919Y006233D01*
X017919Y005769D01*
X017866Y005243D01*
X017866Y005166D01*
X016303Y001210D01*
X016303Y000910D01*
X019303Y005910D02*
X019539Y005910D01*
X019539Y013910D01*
X019303Y013910D01*
X014516Y008166D02*
X012047Y006331D01*
X011119Y006922D02*
X010826Y006922D01*
X006402Y008638D01*
X004591Y010571D02*
X005189Y012288D01*
D14*
X005858Y012048D03*
X004591Y010571D03*
X009831Y011079D03*
X010539Y011016D03*
X011110Y012863D03*
X014260Y010508D03*
X014756Y010611D03*
X015657Y010690D03*
X016185Y011052D03*
X016843Y010705D03*
X016610Y009764D03*
X017268Y009831D03*
X018555Y010308D03*
X017260Y011540D03*
X017178Y012272D03*
X016994Y012619D03*
X016667Y012072D03*
X014748Y013213D03*
X017776Y008485D03*
X017740Y008056D03*
X016677Y008272D03*
X015256Y008335D03*
X015224Y007749D03*
X014516Y008166D03*
X012047Y006331D03*
X010972Y007276D03*
X017016Y006056D03*
X017217Y005402D03*
X007740Y016216D03*
M02*
