G75*
G70*
%OFA0B0*%
%FSLAX24Y24*%
%IPPOS*%
%LPD*%
%AMOC8*
5,1,8,0,0,1.08239X$1,22.5*
%
%ADD10C,0.0000*%
%ADD11C,0.0040*%
D10*
X000500Y000107D02*
X000500Y019792D01*
X020185Y019792D01*
X020185Y000107D01*
X000500Y000107D01*
X002681Y008886D02*
X002683Y008912D01*
X002689Y008938D01*
X002699Y008963D01*
X002712Y008986D01*
X002728Y009006D01*
X002748Y009024D01*
X002770Y009039D01*
X002793Y009051D01*
X002819Y009059D01*
X002845Y009063D01*
X002871Y009063D01*
X002897Y009059D01*
X002923Y009051D01*
X002947Y009039D01*
X002968Y009024D01*
X002988Y009006D01*
X003004Y008986D01*
X003017Y008963D01*
X003027Y008938D01*
X003033Y008912D01*
X003035Y008886D01*
X003033Y008860D01*
X003027Y008834D01*
X003017Y008809D01*
X003004Y008786D01*
X002988Y008766D01*
X002968Y008748D01*
X002946Y008733D01*
X002923Y008721D01*
X002897Y008713D01*
X002871Y008709D01*
X002845Y008709D01*
X002819Y008713D01*
X002793Y008721D01*
X002769Y008733D01*
X002748Y008748D01*
X002728Y008766D01*
X002712Y008786D01*
X002699Y008809D01*
X002689Y008834D01*
X002683Y008860D01*
X002681Y008886D01*
X002681Y010619D02*
X002683Y010645D01*
X002689Y010671D01*
X002699Y010696D01*
X002712Y010719D01*
X002728Y010739D01*
X002748Y010757D01*
X002770Y010772D01*
X002793Y010784D01*
X002819Y010792D01*
X002845Y010796D01*
X002871Y010796D01*
X002897Y010792D01*
X002923Y010784D01*
X002947Y010772D01*
X002968Y010757D01*
X002988Y010739D01*
X003004Y010719D01*
X003017Y010696D01*
X003027Y010671D01*
X003033Y010645D01*
X003035Y010619D01*
X003033Y010593D01*
X003027Y010567D01*
X003017Y010542D01*
X003004Y010519D01*
X002988Y010499D01*
X002968Y010481D01*
X002946Y010466D01*
X002923Y010454D01*
X002897Y010446D01*
X002871Y010442D01*
X002845Y010442D01*
X002819Y010446D01*
X002793Y010454D01*
X002769Y010466D01*
X002748Y010481D01*
X002728Y010499D01*
X002712Y010519D01*
X002699Y010542D01*
X002689Y010567D01*
X002683Y010593D01*
X002681Y010619D01*
D11*
X007179Y012498D02*
X007533Y012498D01*
X007533Y012380D02*
X007533Y012616D01*
X007533Y012742D02*
X007533Y012919D01*
X007474Y012978D01*
X007356Y012978D01*
X007297Y012919D01*
X007297Y012742D01*
X007179Y012742D02*
X007533Y012742D01*
X007415Y013105D02*
X007533Y013223D01*
X007415Y013341D01*
X007179Y013341D01*
X007238Y013467D02*
X007179Y013526D01*
X007179Y013644D01*
X007238Y013703D01*
X007179Y013830D02*
X007179Y014066D01*
X007238Y014192D02*
X007179Y014251D01*
X007179Y014369D01*
X007238Y014428D01*
X007297Y014428D01*
X007356Y014369D01*
X007356Y014251D01*
X007415Y014192D01*
X007474Y014192D01*
X007533Y014251D01*
X007533Y014369D01*
X007474Y014428D01*
X007533Y014555D02*
X007179Y014555D01*
X007297Y014673D01*
X007179Y014791D01*
X007533Y014791D01*
X007474Y014917D02*
X007533Y014976D01*
X007533Y015094D01*
X007474Y015153D01*
X007238Y015153D01*
X007179Y015094D01*
X007179Y014976D01*
X007238Y014917D01*
X007474Y014917D01*
X007179Y015642D02*
X007533Y015878D01*
X007533Y016367D02*
X007179Y016367D01*
X007297Y016367D02*
X007297Y016544D01*
X007356Y016603D01*
X007474Y016603D01*
X007533Y016544D01*
X007533Y016367D01*
X007533Y016730D02*
X007179Y016730D01*
X007179Y016907D01*
X007238Y016966D01*
X007297Y016966D01*
X007356Y016907D01*
X007356Y016730D01*
X007356Y016907D02*
X007415Y016966D01*
X007474Y016966D01*
X007533Y016907D01*
X007533Y016730D01*
X007474Y017092D02*
X007533Y017151D01*
X007533Y017269D01*
X007474Y017328D01*
X007415Y017328D01*
X007356Y017269D01*
X007297Y017328D01*
X007238Y017328D01*
X007179Y017269D01*
X007179Y017151D01*
X007238Y017092D01*
X007356Y017210D02*
X007356Y017269D01*
X007356Y017817D02*
X007356Y018053D01*
X007238Y018053D02*
X007474Y017817D01*
X007474Y017935D02*
X007238Y017935D01*
X007238Y017817D02*
X007474Y018053D01*
X008238Y018053D02*
X008474Y017817D01*
X008356Y017817D02*
X008356Y018053D01*
X008474Y018053D02*
X008238Y017817D01*
X008238Y017935D02*
X008474Y017935D01*
X008533Y017328D02*
X008533Y017092D01*
X008356Y017092D01*
X008415Y017210D01*
X008415Y017269D01*
X008356Y017328D01*
X008238Y017328D01*
X008179Y017269D01*
X008179Y017151D01*
X008238Y017092D01*
X008179Y016966D02*
X008179Y016730D01*
X008179Y016848D02*
X008533Y016848D01*
X008415Y016730D01*
X008415Y016603D02*
X008179Y016603D01*
X008356Y016603D02*
X008356Y016367D01*
X008415Y016367D02*
X008533Y016485D01*
X008415Y016603D01*
X008415Y016367D02*
X008179Y016367D01*
X008356Y016241D02*
X008297Y016182D01*
X008297Y016005D01*
X008179Y016005D02*
X008533Y016005D01*
X008533Y016182D01*
X008474Y016241D01*
X008356Y016241D01*
X009179Y016367D02*
X009415Y016367D01*
X009533Y016485D01*
X009415Y016603D01*
X009179Y016603D01*
X009179Y016730D02*
X009179Y016966D01*
X009179Y016848D02*
X009533Y016848D01*
X009415Y016730D01*
X009356Y016603D02*
X009356Y016367D01*
X009356Y016241D02*
X009297Y016182D01*
X009297Y016005D01*
X009179Y016005D02*
X009533Y016005D01*
X009533Y016182D01*
X009474Y016241D01*
X009356Y016241D01*
X009533Y015516D02*
X009179Y015280D01*
X009179Y014791D02*
X009356Y014614D01*
X009297Y014555D02*
X009533Y014791D01*
X009533Y014555D02*
X009179Y014555D01*
X009179Y014428D02*
X009179Y014192D01*
X009533Y014192D01*
X009474Y014066D02*
X009533Y014007D01*
X009533Y013889D01*
X009474Y013830D01*
X009238Y013830D01*
X009179Y013889D01*
X009179Y014007D01*
X009238Y014066D01*
X009179Y013703D02*
X009533Y013703D01*
X009533Y013467D02*
X009179Y013467D01*
X009297Y013585D01*
X009179Y013703D01*
X009238Y013341D02*
X009179Y013282D01*
X009179Y013164D01*
X009238Y013105D01*
X009356Y013164D02*
X009356Y013282D01*
X009297Y013341D01*
X009238Y013341D01*
X009356Y013164D02*
X009415Y013105D01*
X009474Y013105D01*
X009533Y013164D01*
X009533Y013282D01*
X009474Y013341D01*
X010179Y013285D02*
X010238Y013226D01*
X010179Y013285D02*
X010179Y013403D01*
X010238Y013462D01*
X010297Y013462D01*
X010356Y013403D01*
X010356Y013285D01*
X010415Y013226D01*
X010474Y013226D01*
X010533Y013285D01*
X010533Y013403D01*
X010474Y013462D01*
X010533Y013588D02*
X010179Y013588D01*
X010297Y013706D01*
X010179Y013824D01*
X010533Y013824D01*
X010533Y013951D02*
X010179Y013951D01*
X010179Y014128D01*
X010238Y014187D01*
X010474Y014187D01*
X010533Y014128D01*
X010533Y013951D01*
X010533Y014313D02*
X010533Y014431D01*
X010533Y014372D02*
X010179Y014372D01*
X010179Y014313D02*
X010179Y014431D01*
X010238Y014555D02*
X010179Y014614D01*
X010179Y014732D01*
X010238Y014791D01*
X010474Y014791D01*
X010533Y014732D01*
X010533Y014614D01*
X010474Y014555D01*
X010238Y014555D01*
X010179Y015280D02*
X010533Y015516D01*
X010533Y016005D02*
X010179Y016005D01*
X010297Y016005D02*
X010297Y016182D01*
X010356Y016241D01*
X010474Y016241D01*
X010533Y016182D01*
X010533Y016005D01*
X010415Y016367D02*
X010179Y016367D01*
X010356Y016367D02*
X010356Y016603D01*
X010415Y016603D02*
X010179Y016603D01*
X010179Y016730D02*
X010179Y016966D01*
X010179Y016848D02*
X010533Y016848D01*
X010415Y016730D01*
X010415Y016603D02*
X010533Y016485D01*
X010415Y016367D01*
X010474Y017092D02*
X010533Y017151D01*
X010533Y017269D01*
X010474Y017328D01*
X010415Y017328D01*
X010356Y017269D01*
X010297Y017328D01*
X010238Y017328D01*
X010179Y017269D01*
X010179Y017151D01*
X010238Y017092D01*
X010356Y017210D02*
X010356Y017269D01*
X010356Y017817D02*
X010356Y018053D01*
X010238Y018053D02*
X010474Y017817D01*
X010474Y017935D02*
X010238Y017935D01*
X010238Y017817D02*
X010474Y018053D01*
X011238Y018053D02*
X011474Y017817D01*
X011356Y017817D02*
X011356Y018053D01*
X011474Y018053D02*
X011238Y017817D01*
X011238Y017935D02*
X011474Y017935D01*
X011474Y017328D02*
X011533Y017269D01*
X011533Y017151D01*
X011474Y017092D01*
X011415Y017328D02*
X011179Y017092D01*
X011179Y017328D01*
X011415Y017328D02*
X011474Y017328D01*
X011179Y016966D02*
X011179Y016730D01*
X011179Y016848D02*
X011533Y016848D01*
X011415Y016730D01*
X011415Y016603D02*
X011179Y016603D01*
X011356Y016603D02*
X011356Y016367D01*
X011415Y016367D02*
X011179Y016367D01*
X011356Y016241D02*
X011297Y016182D01*
X011297Y016005D01*
X011179Y016005D02*
X011533Y016005D01*
X011533Y016182D01*
X011474Y016241D01*
X011356Y016241D01*
X011415Y016367D02*
X011533Y016485D01*
X011415Y016603D01*
X012179Y016603D02*
X012415Y016603D01*
X012533Y016485D01*
X012415Y016367D01*
X012179Y016367D01*
X012356Y016367D02*
X012356Y016603D01*
X012415Y016730D02*
X012533Y016848D01*
X012179Y016848D01*
X012179Y016730D02*
X012179Y016966D01*
X012179Y017092D02*
X012179Y017328D01*
X012179Y017210D02*
X012533Y017210D01*
X012415Y017092D01*
X013179Y017151D02*
X013238Y017092D01*
X013474Y017328D01*
X013238Y017328D01*
X013179Y017269D01*
X013179Y017151D01*
X013238Y017092D02*
X013474Y017092D01*
X013533Y017151D01*
X013533Y017269D01*
X013474Y017328D01*
X013179Y016966D02*
X013179Y016730D01*
X013179Y016848D02*
X013533Y016848D01*
X013415Y016730D01*
X013415Y016603D02*
X013179Y016603D01*
X013356Y016603D02*
X013356Y016367D01*
X013415Y016367D02*
X013179Y016367D01*
X013356Y016241D02*
X013297Y016182D01*
X013297Y016005D01*
X013179Y016005D02*
X013533Y016005D01*
X013533Y016182D01*
X013474Y016241D01*
X013356Y016241D01*
X013415Y016367D02*
X013533Y016485D01*
X013415Y016603D01*
X014179Y016730D02*
X014415Y016730D01*
X014533Y016848D01*
X014415Y016966D01*
X014179Y016966D01*
X014238Y017092D02*
X014179Y017151D01*
X014179Y017269D01*
X014238Y017328D01*
X014474Y017328D01*
X014533Y017269D01*
X014533Y017151D01*
X014474Y017092D01*
X014415Y017092D01*
X014356Y017151D01*
X014356Y017328D01*
X014356Y016966D02*
X014356Y016730D01*
X014356Y016603D02*
X014297Y016544D01*
X014297Y016367D01*
X014179Y016367D02*
X014533Y016367D01*
X014533Y016544D01*
X014474Y016603D01*
X014356Y016603D01*
X015179Y016730D02*
X015415Y016730D01*
X015533Y016848D01*
X015415Y016966D01*
X015179Y016966D01*
X015238Y017092D02*
X015179Y017151D01*
X015179Y017269D01*
X015238Y017328D01*
X015297Y017328D01*
X015356Y017269D01*
X015356Y017151D01*
X015415Y017092D01*
X015474Y017092D01*
X015533Y017151D01*
X015533Y017269D01*
X015474Y017328D01*
X015415Y017328D01*
X015356Y017269D01*
X015356Y017151D02*
X015297Y017092D01*
X015238Y017092D01*
X015356Y016966D02*
X015356Y016730D01*
X015356Y016603D02*
X015297Y016544D01*
X015297Y016367D01*
X015179Y016367D02*
X015533Y016367D01*
X015533Y016544D01*
X015474Y016603D01*
X015356Y016603D01*
X016179Y016544D02*
X016179Y016367D01*
X016533Y016367D01*
X016533Y016544D01*
X016474Y016603D01*
X016415Y016603D01*
X016356Y016544D01*
X016356Y016367D01*
X016356Y016241D02*
X016297Y016182D01*
X016297Y016005D01*
X016179Y016005D02*
X016533Y016005D01*
X016533Y016182D01*
X016474Y016241D01*
X016356Y016241D01*
X016356Y016544D02*
X016297Y016603D01*
X016238Y016603D01*
X016179Y016544D01*
X016179Y016730D02*
X016179Y016966D01*
X016179Y016848D02*
X016533Y016848D01*
X016415Y016730D01*
X016356Y017092D02*
X016415Y017210D01*
X016415Y017269D01*
X016356Y017328D01*
X016238Y017328D01*
X016179Y017269D01*
X016179Y017151D01*
X016238Y017092D01*
X016356Y017092D02*
X016533Y017092D01*
X016533Y017328D01*
X016474Y017817D02*
X016238Y018053D01*
X016238Y017935D02*
X016474Y017935D01*
X016474Y018053D02*
X016238Y017817D01*
X016356Y017817D02*
X016356Y018053D01*
X015474Y018053D02*
X015238Y017817D01*
X015356Y017817D02*
X015356Y018053D01*
X015238Y018053D02*
X015474Y017817D01*
X015474Y017935D02*
X015238Y017935D01*
X014474Y017935D02*
X014238Y017935D01*
X014238Y017817D02*
X014474Y018053D01*
X014356Y018053D02*
X014356Y017817D01*
X014474Y017817D02*
X014238Y018053D01*
X013474Y018053D02*
X013238Y017817D01*
X013356Y017817D02*
X013356Y018053D01*
X013238Y018053D02*
X013474Y017817D01*
X013474Y017935D02*
X013238Y017935D01*
X012474Y017935D02*
X012238Y017935D01*
X012238Y017817D02*
X012474Y018053D01*
X012356Y018053D02*
X012356Y017817D01*
X012474Y017817D02*
X012238Y018053D01*
X012356Y016241D02*
X012297Y016182D01*
X012297Y016005D01*
X012179Y016005D02*
X012533Y016005D01*
X012533Y016182D01*
X012474Y016241D01*
X012356Y016241D01*
X012533Y015516D02*
X012179Y015280D01*
X012179Y014791D02*
X012533Y014555D01*
X012474Y014428D02*
X012356Y014428D01*
X012297Y014369D01*
X012297Y014192D01*
X012179Y014192D02*
X012533Y014192D01*
X012533Y014369D01*
X012474Y014428D01*
X012297Y014310D02*
X012179Y014428D01*
X012179Y014555D02*
X012533Y014791D01*
X011533Y014791D02*
X011179Y014555D01*
X011179Y014791D02*
X011533Y014555D01*
X011533Y014428D02*
X011533Y014192D01*
X011533Y014310D02*
X011179Y014310D01*
X011179Y013703D02*
X011533Y013703D01*
X011533Y013467D02*
X011179Y013467D01*
X011179Y013341D02*
X011415Y013341D01*
X011533Y013223D01*
X011415Y013105D01*
X011179Y013105D01*
X011238Y012978D02*
X011179Y012919D01*
X011179Y012801D01*
X011238Y012742D01*
X011474Y012742D01*
X011533Y012801D01*
X011533Y012919D01*
X011474Y012978D01*
X011356Y013105D02*
X011356Y013341D01*
X011533Y013467D02*
X011179Y013703D01*
X012179Y013703D02*
X012533Y013703D01*
X012533Y013467D02*
X012179Y013467D01*
X012179Y013341D02*
X012415Y013341D01*
X012533Y013223D01*
X012415Y013105D01*
X012179Y013105D01*
X012238Y012978D02*
X012179Y012919D01*
X012179Y012801D01*
X012238Y012742D01*
X012474Y012742D01*
X012533Y012801D01*
X012533Y012919D01*
X012474Y012978D01*
X012356Y013105D02*
X012356Y013341D01*
X012533Y013467D02*
X012179Y013703D01*
X012533Y012253D02*
X012179Y012017D01*
X012356Y011528D02*
X012356Y011292D01*
X012297Y011166D02*
X012238Y011166D01*
X012179Y011107D01*
X012179Y010930D01*
X012533Y010930D01*
X012533Y011107D01*
X012474Y011166D01*
X012415Y011166D01*
X012356Y011107D01*
X012356Y010930D01*
X012297Y010803D02*
X012238Y010803D01*
X012179Y010744D01*
X012179Y010626D01*
X012238Y010567D01*
X012238Y010441D02*
X012533Y010441D01*
X012474Y010567D02*
X012415Y010567D01*
X012356Y010626D01*
X012356Y010744D01*
X012297Y010803D01*
X012474Y010803D02*
X012533Y010744D01*
X012533Y010626D01*
X012474Y010567D01*
X012238Y010441D02*
X012179Y010382D01*
X012179Y010264D01*
X012238Y010205D01*
X012533Y010205D01*
X012356Y011107D02*
X012297Y011166D01*
X011533Y011107D02*
X011533Y010930D01*
X011179Y010930D01*
X011179Y011107D01*
X011238Y011166D01*
X011297Y011166D01*
X011356Y011107D01*
X011356Y010930D01*
X011297Y010803D02*
X011238Y010803D01*
X011179Y010744D01*
X011179Y010626D01*
X011238Y010567D01*
X011238Y010441D02*
X011533Y010441D01*
X011474Y010567D02*
X011415Y010567D01*
X011356Y010626D01*
X011356Y010744D01*
X011297Y010803D01*
X011474Y010803D02*
X011533Y010744D01*
X011533Y010626D01*
X011474Y010567D01*
X011238Y010441D02*
X011179Y010382D01*
X011179Y010264D01*
X011238Y010205D01*
X011533Y010205D01*
X011533Y011107D02*
X011474Y011166D01*
X011415Y011166D01*
X011356Y011107D01*
X011356Y011292D02*
X011356Y011528D01*
X011474Y011410D02*
X011238Y011410D01*
X011179Y012017D02*
X011533Y012253D01*
X011179Y015280D02*
X011533Y015516D01*
X009533Y017269D02*
X009356Y017092D01*
X009356Y017328D01*
X009179Y017269D02*
X009533Y017269D01*
X009474Y017817D02*
X009238Y018053D01*
X009238Y017935D02*
X009474Y017935D01*
X009474Y018053D02*
X009238Y017817D01*
X009356Y017817D02*
X009356Y018053D01*
X006533Y017269D02*
X006356Y017092D01*
X006356Y017328D01*
X006179Y017269D02*
X006533Y017269D01*
X006474Y016966D02*
X006415Y016966D01*
X006356Y016907D01*
X006356Y016730D01*
X006356Y016603D02*
X006297Y016544D01*
X006297Y016367D01*
X006179Y016367D02*
X006533Y016367D01*
X006533Y016544D01*
X006474Y016603D01*
X006356Y016603D01*
X006179Y016730D02*
X006179Y016907D01*
X006238Y016966D01*
X006297Y016966D01*
X006356Y016907D01*
X006474Y016966D02*
X006533Y016907D01*
X006533Y016730D01*
X006179Y016730D01*
X005533Y017092D02*
X005533Y017269D01*
X005474Y017328D01*
X005356Y017328D01*
X005297Y017269D01*
X005297Y017092D01*
X005179Y017092D02*
X005533Y017092D01*
X005533Y017455D02*
X005179Y017455D01*
X005179Y017632D01*
X005238Y017691D01*
X005297Y017691D01*
X005356Y017632D01*
X005356Y017455D01*
X005356Y017632D02*
X005415Y017691D01*
X005474Y017691D01*
X005533Y017632D01*
X005533Y017455D01*
X005533Y017817D02*
X005356Y017817D01*
X005415Y017935D01*
X005415Y017994D01*
X005356Y018053D01*
X005238Y018053D01*
X005179Y017994D01*
X005179Y017876D01*
X005238Y017817D01*
X005533Y017817D02*
X005533Y018053D01*
X006238Y018053D02*
X006474Y017817D01*
X006356Y017817D02*
X006356Y018053D01*
X006474Y018053D02*
X006238Y017817D01*
X006238Y017935D02*
X006474Y017935D01*
X004474Y017935D02*
X004238Y017935D01*
X004238Y017817D02*
X004474Y018053D01*
X004356Y018053D02*
X004356Y017817D01*
X004474Y017817D02*
X004238Y018053D01*
X004238Y017328D02*
X004297Y017328D01*
X004356Y017269D01*
X004356Y017092D01*
X004238Y017092D01*
X004179Y017151D01*
X004179Y017269D01*
X004238Y017328D01*
X004474Y017210D02*
X004356Y017092D01*
X004297Y016966D02*
X004238Y016966D01*
X004179Y016907D01*
X004179Y016730D01*
X004533Y016730D01*
X004533Y016907D01*
X004474Y016966D01*
X004415Y016966D01*
X004356Y016907D01*
X004356Y016730D01*
X004356Y016603D02*
X004297Y016544D01*
X004297Y016367D01*
X004179Y016367D02*
X004533Y016367D01*
X004533Y016544D01*
X004474Y016603D01*
X004356Y016603D01*
X004356Y016907D02*
X004297Y016966D01*
X004474Y017210D02*
X004533Y017328D01*
X003533Y017328D02*
X003533Y017092D01*
X003474Y016966D02*
X003415Y016966D01*
X003356Y016907D01*
X003356Y016730D01*
X003356Y016603D02*
X003297Y016544D01*
X003297Y016367D01*
X003179Y016367D02*
X003533Y016367D01*
X003533Y016544D01*
X003474Y016603D01*
X003356Y016603D01*
X003179Y016730D02*
X003179Y016907D01*
X003238Y016966D01*
X003297Y016966D01*
X003356Y016907D01*
X003474Y016966D02*
X003533Y016907D01*
X003533Y016730D01*
X003179Y016730D01*
X003179Y017092D02*
X003238Y017092D01*
X003474Y017328D01*
X003533Y017328D01*
X003474Y017817D02*
X003238Y018053D01*
X003238Y017935D02*
X003474Y017935D01*
X003474Y018053D02*
X003238Y017817D01*
X003356Y017817D02*
X003356Y018053D01*
X002533Y017994D02*
X002533Y017876D01*
X002474Y017817D01*
X002238Y017817D01*
X002474Y018053D01*
X002238Y018053D01*
X002179Y017994D01*
X002179Y017876D01*
X002238Y017817D01*
X002179Y017573D02*
X002533Y017573D01*
X002533Y017455D02*
X002533Y017691D01*
X002474Y017328D02*
X002238Y017328D01*
X002179Y017269D01*
X002179Y017151D01*
X002238Y017092D01*
X002474Y017092D01*
X002533Y017151D01*
X002533Y017269D01*
X002474Y017328D01*
X002474Y016966D02*
X002238Y016966D01*
X002179Y016907D01*
X002179Y016789D01*
X002238Y016730D01*
X002474Y016730D01*
X002533Y016789D01*
X002533Y016907D01*
X002474Y016966D01*
X002474Y016603D02*
X002415Y016603D01*
X002356Y016544D01*
X002356Y016367D01*
X002179Y016367D02*
X002179Y016544D01*
X002238Y016603D01*
X002297Y016603D01*
X002356Y016544D01*
X002474Y016603D02*
X002533Y016544D01*
X002533Y016367D01*
X002179Y016367D01*
X001533Y016367D02*
X001533Y016544D01*
X001474Y016603D01*
X001356Y016603D01*
X001297Y016544D01*
X001297Y016367D01*
X001179Y016367D02*
X001533Y016367D01*
X001533Y016730D02*
X001179Y016730D01*
X001179Y016907D01*
X001238Y016966D01*
X001297Y016966D01*
X001356Y016907D01*
X001356Y016730D01*
X001356Y016907D02*
X001415Y016966D01*
X001474Y016966D01*
X001533Y016907D01*
X001533Y016730D01*
X001474Y017092D02*
X001415Y017092D01*
X001356Y017151D01*
X001356Y017269D01*
X001297Y017328D01*
X001238Y017328D01*
X001179Y017269D01*
X001179Y017151D01*
X001238Y017092D01*
X001297Y017092D01*
X001356Y017151D01*
X001356Y017269D02*
X001415Y017328D01*
X001474Y017328D01*
X001533Y017269D01*
X001533Y017151D01*
X001474Y017092D01*
X001474Y017817D02*
X001238Y018053D01*
X001238Y017935D02*
X001474Y017935D01*
X001474Y018053D02*
X001238Y017817D01*
X001356Y017817D02*
X001356Y018053D01*
X002474Y018053D02*
X002533Y017994D01*
X007179Y013830D02*
X007533Y013830D01*
X007533Y014066D01*
X007356Y013948D02*
X007356Y013830D01*
X007474Y013703D02*
X007533Y013644D01*
X007533Y013526D01*
X007474Y013467D01*
X007238Y013467D01*
X007356Y013341D02*
X007356Y013105D01*
X007415Y013105D02*
X007179Y013105D01*
X007179Y012978D02*
X007297Y012860D01*
X007533Y003553D02*
X007533Y003317D01*
X007533Y003435D02*
X007179Y003435D01*
X007179Y003191D02*
X007179Y002955D01*
X007533Y002955D01*
X007533Y003191D01*
X007356Y003073D02*
X007356Y002955D01*
X007297Y002828D02*
X007356Y002769D01*
X007356Y002651D01*
X007415Y002592D01*
X007474Y002592D01*
X007533Y002651D01*
X007533Y002769D01*
X007474Y002828D01*
X007297Y002828D02*
X007238Y002828D01*
X007179Y002769D01*
X007179Y002651D01*
X007238Y002592D01*
X007179Y002466D02*
X007179Y002230D01*
X007533Y002230D01*
X007533Y002466D01*
X007356Y002348D02*
X007356Y002230D01*
X007356Y002103D02*
X007297Y002044D01*
X007297Y001867D01*
X007179Y001867D02*
X007533Y001867D01*
X007533Y002044D01*
X007474Y002103D01*
X007356Y002103D01*
X007297Y001985D02*
X007179Y002103D01*
X006783Y002573D02*
X006429Y002573D01*
X006429Y002455D02*
X006429Y002691D01*
X006488Y002817D02*
X006429Y002876D01*
X006429Y002994D01*
X006488Y003053D01*
X006606Y003053D01*
X006665Y002994D01*
X006665Y002935D01*
X006606Y002817D01*
X006783Y002817D01*
X006783Y003053D01*
X006783Y002573D02*
X006665Y002455D01*
X006665Y002328D02*
X006665Y002151D01*
X006606Y002092D01*
X006488Y002092D01*
X006429Y002151D01*
X006429Y002328D01*
X006488Y001966D02*
X006429Y001907D01*
X006429Y001730D01*
X006311Y001730D02*
X006665Y001730D01*
X006665Y001907D01*
X006606Y001966D01*
X006488Y001966D01*
X005915Y001907D02*
X005915Y001730D01*
X005561Y001730D01*
X005679Y001730D02*
X005679Y001907D01*
X005738Y001966D01*
X005856Y001966D01*
X005915Y001907D01*
X005856Y002092D02*
X005738Y002092D01*
X005679Y002151D01*
X005679Y002328D01*
X005679Y002455D02*
X005679Y002691D01*
X005679Y002573D02*
X006033Y002573D01*
X005915Y002455D01*
X005915Y002328D02*
X005915Y002151D01*
X005856Y002092D01*
X005856Y002817D02*
X005856Y003053D01*
X005679Y002994D02*
X006033Y002994D01*
X005856Y002817D01*
X003783Y002876D02*
X003783Y002994D01*
X003724Y003053D01*
X003665Y003053D01*
X003606Y002994D01*
X003547Y003053D01*
X003488Y003053D01*
X003429Y002994D01*
X003429Y002876D01*
X003488Y002817D01*
X003429Y002691D02*
X003429Y002455D01*
X003429Y002573D02*
X003783Y002573D01*
X003665Y002455D01*
X003665Y002328D02*
X003665Y002151D01*
X003606Y002092D01*
X003488Y002092D01*
X003429Y002151D01*
X003429Y002328D01*
X003177Y002293D02*
X002823Y002529D01*
X003177Y002529D01*
X003177Y002655D02*
X003177Y002832D01*
X003118Y002891D01*
X002882Y002891D01*
X002823Y002832D01*
X002823Y002655D01*
X003177Y002655D01*
X003177Y002293D02*
X002823Y002293D01*
X002882Y002166D02*
X002823Y002107D01*
X002823Y001989D01*
X002882Y001930D01*
X003118Y001930D01*
X003177Y001989D01*
X003177Y002107D01*
X003118Y002166D01*
X003000Y002166D02*
X003000Y002048D01*
X003000Y002166D02*
X002882Y002166D01*
X002533Y002205D02*
X002297Y002205D01*
X002179Y002323D01*
X002297Y002441D01*
X002533Y002441D01*
X002474Y002567D02*
X002533Y002626D01*
X002533Y002744D01*
X002474Y002803D01*
X002415Y002803D01*
X002356Y002744D01*
X002297Y002803D01*
X002238Y002803D01*
X002179Y002744D01*
X002179Y002626D01*
X002238Y002567D01*
X002356Y002685D02*
X002356Y002744D01*
X002297Y002078D02*
X002238Y002078D01*
X002179Y002019D01*
X002179Y001901D01*
X002238Y001842D01*
X002356Y001960D02*
X002356Y002019D01*
X002297Y002078D01*
X002356Y002019D02*
X002415Y002078D01*
X002474Y002078D01*
X002533Y002019D01*
X002533Y001901D01*
X002474Y001842D01*
X003311Y001730D02*
X003665Y001730D01*
X003665Y001907D01*
X003606Y001966D01*
X003488Y001966D01*
X003429Y001907D01*
X003429Y001730D01*
X003724Y002817D02*
X003783Y002876D01*
X003606Y002935D02*
X003606Y002994D01*
X001592Y002135D02*
X001533Y002135D01*
X001415Y002135D02*
X001179Y002135D01*
X001179Y002076D02*
X001179Y002194D01*
X001179Y002317D02*
X001415Y002317D01*
X001415Y002494D01*
X001356Y002553D01*
X001179Y002553D01*
X001415Y002135D02*
X001415Y002076D01*
X001297Y001949D02*
X001179Y001831D01*
X001297Y001713D01*
X001533Y001713D01*
X001533Y001949D02*
X001297Y001949D01*
X008179Y001842D02*
X008533Y001842D01*
X008533Y002019D01*
X008474Y002078D01*
X008356Y002078D01*
X008297Y002019D01*
X008297Y001842D01*
X008356Y002205D02*
X008356Y002441D01*
X008415Y002441D02*
X008179Y002441D01*
X008238Y002567D02*
X008474Y002803D01*
X008238Y002803D01*
X008179Y002744D01*
X008179Y002626D01*
X008238Y002567D01*
X008474Y002567D01*
X008533Y002626D01*
X008533Y002744D01*
X008474Y002803D01*
X008415Y002441D02*
X008533Y002323D01*
X008415Y002205D01*
X008179Y002205D01*
X009179Y002205D02*
X009415Y002205D01*
X009533Y002323D01*
X009415Y002441D01*
X009179Y002441D01*
X009179Y002567D02*
X009179Y002803D01*
X009179Y002685D02*
X009533Y002685D01*
X009415Y002567D01*
X009356Y002441D02*
X009356Y002205D01*
X009356Y002078D02*
X009297Y002019D01*
X009297Y001842D01*
X009179Y001842D02*
X009533Y001842D01*
X009533Y002019D01*
X009474Y002078D01*
X009356Y002078D01*
X010179Y002205D02*
X010415Y002205D01*
X010533Y002323D01*
X010415Y002441D01*
X010179Y002441D01*
X010179Y002567D02*
X010415Y002803D01*
X010474Y002803D01*
X010533Y002744D01*
X010533Y002626D01*
X010474Y002567D01*
X010356Y002441D02*
X010356Y002205D01*
X010356Y002078D02*
X010297Y002019D01*
X010297Y001842D01*
X010179Y001842D02*
X010533Y001842D01*
X010533Y002019D01*
X010474Y002078D01*
X010356Y002078D01*
X010179Y002567D02*
X010179Y002803D01*
X011179Y002744D02*
X011179Y002626D01*
X011238Y002567D01*
X011179Y002441D02*
X011415Y002441D01*
X011533Y002323D01*
X011415Y002205D01*
X011179Y002205D01*
X011356Y002205D02*
X011356Y002441D01*
X011474Y002567D02*
X011533Y002626D01*
X011533Y002744D01*
X011474Y002803D01*
X011415Y002803D01*
X011356Y002744D01*
X011297Y002803D01*
X011238Y002803D01*
X011179Y002744D01*
X011356Y002744D02*
X011356Y002685D01*
X011356Y002078D02*
X011297Y002019D01*
X011297Y001842D01*
X011179Y001842D02*
X011533Y001842D01*
X011533Y002019D01*
X011474Y002078D01*
X011356Y002078D01*
X012179Y002205D02*
X012415Y002205D01*
X012533Y002323D01*
X012415Y002441D01*
X012179Y002441D01*
X012356Y002441D02*
X012356Y002205D01*
X012356Y002078D02*
X012297Y002019D01*
X012297Y001842D01*
X012179Y001842D02*
X012533Y001842D01*
X012533Y002019D01*
X012474Y002078D01*
X012356Y002078D01*
X012356Y002567D02*
X012356Y002803D01*
X012179Y002744D02*
X012533Y002744D01*
X012356Y002567D01*
X013179Y002626D02*
X013238Y002567D01*
X013179Y002626D02*
X013179Y002744D01*
X013238Y002803D01*
X013356Y002803D01*
X013415Y002744D01*
X013415Y002685D01*
X013356Y002567D01*
X013533Y002567D01*
X013533Y002803D01*
X013415Y002441D02*
X013179Y002441D01*
X013356Y002441D02*
X013356Y002205D01*
X013415Y002205D02*
X013179Y002205D01*
X013356Y002078D02*
X013297Y002019D01*
X013297Y001842D01*
X013179Y001842D02*
X013533Y001842D01*
X013533Y002019D01*
X013474Y002078D01*
X013356Y002078D01*
X013415Y002205D02*
X013533Y002323D01*
X013415Y002441D01*
X014179Y002441D02*
X014415Y002441D01*
X014533Y002323D01*
X014415Y002205D01*
X014179Y002205D01*
X014356Y002205D02*
X014356Y002441D01*
X014356Y002567D02*
X014356Y002744D01*
X014297Y002803D01*
X014238Y002803D01*
X014179Y002744D01*
X014179Y002626D01*
X014238Y002567D01*
X014356Y002567D01*
X014474Y002685D01*
X014533Y002803D01*
X015179Y002567D02*
X015238Y002567D01*
X015474Y002803D01*
X015533Y002803D01*
X015533Y002567D01*
X015415Y002441D02*
X015533Y002323D01*
X015415Y002205D01*
X015179Y002205D01*
X015356Y002205D02*
X015356Y002441D01*
X015415Y002441D02*
X015179Y002441D01*
X015356Y002078D02*
X015297Y002019D01*
X015297Y001842D01*
X015179Y001842D02*
X015533Y001842D01*
X015533Y002019D01*
X015474Y002078D01*
X015356Y002078D01*
X014533Y002019D02*
X014533Y001842D01*
X014179Y001842D01*
X014297Y001842D02*
X014297Y002019D01*
X014356Y002078D01*
X014474Y002078D01*
X014533Y002019D01*
X016179Y001842D02*
X016533Y001842D01*
X016533Y002019D01*
X016474Y002078D01*
X016356Y002078D01*
X016297Y002019D01*
X016297Y001842D01*
X016356Y002205D02*
X016356Y002382D01*
X016297Y002441D01*
X016238Y002441D01*
X016179Y002382D01*
X016179Y002205D01*
X016533Y002205D01*
X016533Y002382D01*
X016474Y002441D01*
X016415Y002441D01*
X016356Y002382D01*
X016238Y002567D02*
X016474Y002803D01*
X016238Y002803D01*
X016179Y002744D01*
X016179Y002626D01*
X016238Y002567D01*
X016474Y002567D01*
X016533Y002626D01*
X016533Y002744D01*
X016474Y002803D01*
X017179Y002803D02*
X017179Y002567D01*
X017179Y002685D02*
X017533Y002685D01*
X017415Y002567D01*
X017415Y002441D02*
X017356Y002382D01*
X017356Y002205D01*
X017356Y002078D02*
X017297Y002019D01*
X017297Y001842D01*
X017179Y001842D02*
X017533Y001842D01*
X017533Y002019D01*
X017474Y002078D01*
X017356Y002078D01*
X017179Y002205D02*
X017179Y002382D01*
X017238Y002441D01*
X017297Y002441D01*
X017356Y002382D01*
X017415Y002441D02*
X017474Y002441D01*
X017533Y002382D01*
X017533Y002205D01*
X017179Y002205D01*
X018179Y002342D02*
X018179Y002519D01*
X018238Y002578D01*
X018297Y002578D01*
X018356Y002519D01*
X018356Y002342D01*
X018356Y002216D02*
X018297Y002157D01*
X018297Y001980D01*
X018179Y001980D02*
X018533Y001980D01*
X018533Y002157D01*
X018474Y002216D01*
X018356Y002216D01*
X018179Y002342D02*
X018533Y002342D01*
X018533Y002519D01*
X018474Y002578D01*
X018415Y002578D01*
X018356Y002519D01*
X018415Y002705D02*
X018533Y002823D01*
X018179Y002823D01*
X018179Y002705D02*
X018179Y002941D01*
X018238Y003067D02*
X018474Y003303D01*
X018238Y003303D01*
X018179Y003244D01*
X018179Y003126D01*
X018238Y003067D01*
X018474Y003067D01*
X018533Y003126D01*
X018533Y003244D01*
X018474Y003303D01*
X018444Y003786D02*
X018385Y003845D01*
X018385Y003963D01*
X018503Y003963D01*
X018621Y003845D02*
X018562Y003786D01*
X018444Y003786D01*
X018258Y003786D02*
X018258Y004140D01*
X018022Y003786D01*
X018022Y004140D01*
X017896Y004140D02*
X017719Y004140D01*
X017660Y004081D01*
X017660Y003845D01*
X017719Y003786D01*
X017896Y003786D01*
X017896Y004140D01*
X018385Y004081D02*
X018444Y004140D01*
X018562Y004140D01*
X018621Y004081D01*
X018621Y003845D01*
X019179Y003303D02*
X019179Y003067D01*
X019179Y003185D02*
X019533Y003185D01*
X019415Y003067D01*
X019179Y002941D02*
X019179Y002705D01*
X019179Y002823D02*
X019533Y002823D01*
X019415Y002705D01*
X019415Y002578D02*
X019356Y002519D01*
X019356Y002342D01*
X019356Y002216D02*
X019297Y002157D01*
X019297Y001980D01*
X019179Y001980D02*
X019533Y001980D01*
X019533Y002157D01*
X019474Y002216D01*
X019356Y002216D01*
X019179Y002342D02*
X019179Y002519D01*
X019238Y002578D01*
X019297Y002578D01*
X019356Y002519D01*
X019415Y002578D02*
X019474Y002578D01*
X019533Y002519D01*
X019533Y002342D01*
X019179Y002342D01*
X019238Y001853D02*
X019474Y001617D01*
X019356Y001617D02*
X019356Y001853D01*
X019474Y001853D02*
X019238Y001617D01*
X019238Y001735D02*
X019474Y001735D01*
X018474Y001735D02*
X018238Y001735D01*
X018238Y001617D02*
X018474Y001853D01*
X018356Y001853D02*
X018356Y001617D01*
X018474Y001617D02*
X018238Y001853D01*
X018356Y004680D02*
X018474Y004680D01*
X018533Y004739D01*
X018415Y004857D02*
X018356Y004857D01*
X018297Y004798D01*
X018297Y004739D01*
X018356Y004680D01*
X018356Y004857D02*
X018297Y004916D01*
X018297Y004975D01*
X018356Y005034D01*
X018474Y005034D01*
X018533Y004975D01*
X018171Y005034D02*
X018171Y004798D01*
X018053Y004680D01*
X017935Y004798D01*
X017935Y005034D01*
X017808Y004975D02*
X017749Y005034D01*
X017631Y005034D01*
X017572Y004975D01*
X017572Y004916D01*
X017631Y004857D01*
X017572Y004798D01*
X017572Y004739D01*
X017631Y004680D01*
X017749Y004680D01*
X017808Y004739D01*
X017690Y004857D02*
X017631Y004857D01*
X017693Y005680D02*
X017693Y005857D01*
X017752Y005916D01*
X017929Y005916D01*
X017929Y005680D01*
X018053Y005680D02*
X018171Y005680D01*
X018112Y005680D02*
X018112Y005916D01*
X018171Y005916D01*
X018112Y006034D02*
X018112Y006093D01*
X018297Y006034D02*
X018297Y005798D01*
X018415Y005680D01*
X018533Y005798D01*
X018533Y006034D01*
X018415Y013680D02*
X018297Y013798D01*
X018297Y014034D01*
X018171Y013916D02*
X018112Y013916D01*
X018112Y013680D01*
X018171Y013680D02*
X018053Y013680D01*
X017929Y013680D02*
X017929Y013916D01*
X017752Y013916D01*
X017693Y013857D01*
X017693Y013680D01*
X018112Y014034D02*
X018112Y014093D01*
X018533Y014034D02*
X018533Y013798D01*
X018415Y013680D01*
X018356Y014680D02*
X018474Y014680D01*
X018533Y014739D01*
X018415Y014857D02*
X018356Y014857D01*
X018297Y014798D01*
X018297Y014739D01*
X018356Y014680D01*
X018356Y014857D02*
X018297Y014916D01*
X018297Y014975D01*
X018356Y015034D01*
X018474Y015034D01*
X018533Y014975D01*
X018171Y015034D02*
X018171Y014798D01*
X018053Y014680D01*
X017935Y014798D01*
X017935Y015034D01*
X017808Y014975D02*
X017749Y015034D01*
X017631Y015034D01*
X017572Y014975D01*
X017572Y014916D01*
X017631Y014857D01*
X017572Y014798D01*
X017572Y014739D01*
X017631Y014680D01*
X017749Y014680D01*
X017808Y014739D01*
X017690Y014857D02*
X017631Y014857D01*
X017719Y015786D02*
X017660Y015845D01*
X017660Y016081D01*
X017719Y016140D01*
X017896Y016140D01*
X017896Y015786D01*
X017719Y015786D01*
X018022Y015786D02*
X018022Y016140D01*
X018179Y016367D02*
X018533Y016367D01*
X018533Y016544D01*
X018474Y016603D01*
X018356Y016603D01*
X018297Y016544D01*
X018297Y016367D01*
X018258Y016140D02*
X018022Y015786D01*
X018258Y015786D02*
X018258Y016140D01*
X018385Y016081D02*
X018444Y016140D01*
X018562Y016140D01*
X018621Y016081D01*
X018621Y015845D01*
X018562Y015786D01*
X018444Y015786D01*
X018385Y015845D01*
X018385Y015963D01*
X018503Y015963D01*
X019179Y016367D02*
X019533Y016367D01*
X019533Y016544D01*
X019474Y016603D01*
X019356Y016603D01*
X019297Y016544D01*
X019297Y016367D01*
X019356Y016730D02*
X019356Y016907D01*
X019297Y016966D01*
X019238Y016966D01*
X019179Y016907D01*
X019179Y016730D01*
X019533Y016730D01*
X019533Y016907D01*
X019474Y016966D01*
X019415Y016966D01*
X019356Y016907D01*
X019415Y017092D02*
X019533Y017210D01*
X019179Y017210D01*
X019179Y017092D02*
X019179Y017328D01*
X019179Y017455D02*
X019415Y017691D01*
X019474Y017691D01*
X019533Y017632D01*
X019533Y017514D01*
X019474Y017455D01*
X019179Y017455D02*
X019179Y017691D01*
X019238Y017817D02*
X019474Y018053D01*
X019474Y017935D02*
X019238Y017935D01*
X019238Y018053D02*
X019474Y017817D01*
X019356Y017817D02*
X019356Y018053D01*
X018474Y018053D02*
X018238Y017817D01*
X018356Y017817D02*
X018356Y018053D01*
X018238Y018053D02*
X018474Y017817D01*
X018474Y017935D02*
X018238Y017935D01*
X018238Y017691D02*
X018179Y017632D01*
X018179Y017514D01*
X018238Y017455D01*
X018179Y017328D02*
X018179Y017092D01*
X018179Y017210D02*
X018533Y017210D01*
X018415Y017092D01*
X018415Y016966D02*
X018356Y016907D01*
X018356Y016730D01*
X018179Y016730D02*
X018179Y016907D01*
X018238Y016966D01*
X018297Y016966D01*
X018356Y016907D01*
X018415Y016966D02*
X018474Y016966D01*
X018533Y016907D01*
X018533Y016730D01*
X018179Y016730D01*
X017533Y016730D02*
X017533Y016907D01*
X017474Y016966D01*
X017415Y016966D01*
X017356Y016907D01*
X017356Y016730D01*
X017356Y016603D02*
X017297Y016544D01*
X017297Y016367D01*
X017179Y016367D02*
X017533Y016367D01*
X017533Y016544D01*
X017474Y016603D01*
X017356Y016603D01*
X017179Y016730D02*
X017179Y016907D01*
X017238Y016966D01*
X017297Y016966D01*
X017356Y016907D01*
X017415Y017092D02*
X017533Y017210D01*
X017179Y017210D01*
X017179Y017092D02*
X017179Y017328D01*
X017356Y017455D02*
X017356Y017691D01*
X017356Y017817D02*
X017356Y018053D01*
X017238Y018053D02*
X017474Y017817D01*
X017474Y017935D02*
X017238Y017935D01*
X017238Y017817D02*
X017474Y018053D01*
X017533Y017632D02*
X017179Y017632D01*
X017356Y017455D02*
X017533Y017632D01*
X018238Y017691D02*
X018297Y017691D01*
X018356Y017632D01*
X018356Y017573D01*
X018356Y017632D02*
X018415Y017691D01*
X018474Y017691D01*
X018533Y017632D01*
X018533Y017514D01*
X018474Y017455D01*
X017533Y016730D02*
X017179Y016730D01*
M02*
