G75*
G70*
%OFA0B0*%
%FSLAX24Y24*%
%IPPOS*%
%LPD*%
%AMOC8*
5,1,8,0,0,1.08239X$1,22.5*
%
%ADD10C,0.0000*%
%ADD11C,0.0040*%
%ADD12C,0.0100*%
%ADD13C,0.0050*%
%ADD14C,0.0030*%
%ADD15C,0.0060*%
%ADD16C,0.0080*%
%ADD17C,0.0020*%
%ADD18R,0.0079X0.0079*%
D10*
X000500Y000107D02*
X000500Y019792D01*
X020185Y019792D01*
X020185Y000107D01*
X000500Y000107D01*
X002681Y008886D02*
X002683Y008912D01*
X002689Y008938D01*
X002699Y008963D01*
X002712Y008986D01*
X002728Y009006D01*
X002748Y009024D01*
X002770Y009039D01*
X002793Y009051D01*
X002819Y009059D01*
X002845Y009063D01*
X002871Y009063D01*
X002897Y009059D01*
X002923Y009051D01*
X002947Y009039D01*
X002968Y009024D01*
X002988Y009006D01*
X003004Y008986D01*
X003017Y008963D01*
X003027Y008938D01*
X003033Y008912D01*
X003035Y008886D01*
X003033Y008860D01*
X003027Y008834D01*
X003017Y008809D01*
X003004Y008786D01*
X002988Y008766D01*
X002968Y008748D01*
X002946Y008733D01*
X002923Y008721D01*
X002897Y008713D01*
X002871Y008709D01*
X002845Y008709D01*
X002819Y008713D01*
X002793Y008721D01*
X002769Y008733D01*
X002748Y008748D01*
X002728Y008766D01*
X002712Y008786D01*
X002699Y008809D01*
X002689Y008834D01*
X002683Y008860D01*
X002681Y008886D01*
X002681Y010619D02*
X002683Y010645D01*
X002689Y010671D01*
X002699Y010696D01*
X002712Y010719D01*
X002728Y010739D01*
X002748Y010757D01*
X002770Y010772D01*
X002793Y010784D01*
X002819Y010792D01*
X002845Y010796D01*
X002871Y010796D01*
X002897Y010792D01*
X002923Y010784D01*
X002947Y010772D01*
X002968Y010757D01*
X002988Y010739D01*
X003004Y010719D01*
X003017Y010696D01*
X003027Y010671D01*
X003033Y010645D01*
X003035Y010619D01*
X003033Y010593D01*
X003027Y010567D01*
X003017Y010542D01*
X003004Y010519D01*
X002988Y010499D01*
X002968Y010481D01*
X002946Y010466D01*
X002923Y010454D01*
X002897Y010446D01*
X002871Y010442D01*
X002845Y010442D01*
X002819Y010446D01*
X002793Y010454D01*
X002769Y010466D01*
X002748Y010481D01*
X002728Y010499D01*
X002712Y010519D01*
X002699Y010542D01*
X002689Y010567D01*
X002683Y010593D01*
X002681Y010619D01*
D11*
X002638Y012536D02*
X002520Y012536D01*
X002461Y012595D01*
X002461Y012654D01*
X002520Y012713D01*
X002638Y012713D01*
X002697Y012654D01*
X002697Y012595D01*
X002638Y012536D01*
X002638Y012713D02*
X002697Y012772D01*
X002697Y012831D01*
X002638Y012890D01*
X002520Y012890D01*
X002461Y012831D01*
X002461Y012772D01*
X002520Y012713D01*
X002334Y012595D02*
X002275Y012536D01*
X002157Y012536D01*
X002098Y012595D01*
X002098Y012831D01*
X002157Y012890D01*
X002275Y012890D01*
X002334Y012831D01*
X001272Y013485D02*
X001272Y013603D01*
X001272Y013544D02*
X000918Y013544D01*
X000918Y013485D02*
X000918Y013603D01*
X000977Y013727D02*
X001213Y013727D01*
X001272Y013786D01*
X001272Y013904D01*
X001213Y013963D01*
X001272Y014089D02*
X001272Y014325D01*
X001272Y014207D02*
X000918Y014207D01*
X001036Y014089D01*
X000977Y013963D02*
X000918Y013904D01*
X000918Y013786D01*
X000977Y013727D01*
X004099Y013812D02*
X004158Y013753D01*
X004276Y013753D01*
X004335Y013812D01*
X004461Y013753D02*
X004697Y013753D01*
X004579Y013753D02*
X004579Y014107D01*
X004461Y013989D01*
X004335Y014048D02*
X004276Y014107D01*
X004158Y014107D01*
X004099Y014048D01*
X004099Y013812D01*
X004824Y013812D02*
X004883Y013753D01*
X005001Y013753D01*
X005060Y013812D01*
X005060Y013871D01*
X005001Y013930D01*
X004942Y013930D01*
X005001Y013930D02*
X005060Y013989D01*
X005060Y014048D01*
X005001Y014107D01*
X004883Y014107D01*
X004824Y014048D01*
X006030Y014028D02*
X006030Y013674D01*
X006030Y013792D02*
X006207Y013792D01*
X006266Y013851D01*
X006266Y013969D01*
X006207Y014028D01*
X006030Y014028D01*
X006148Y013792D02*
X006266Y013674D01*
X006392Y013674D02*
X006628Y013910D01*
X006628Y013969D01*
X006569Y014028D01*
X006451Y014028D01*
X006392Y013969D01*
X006392Y013674D02*
X006628Y013674D01*
X007281Y014143D02*
X007458Y014143D01*
X007517Y014202D01*
X007517Y014438D01*
X007458Y014497D01*
X007281Y014497D01*
X007281Y014143D01*
X007644Y014202D02*
X007703Y014143D01*
X007821Y014143D01*
X007880Y014202D01*
X007880Y014261D01*
X007821Y014320D01*
X007762Y014320D01*
X007821Y014320D02*
X007880Y014379D01*
X007880Y014438D01*
X007821Y014497D01*
X007703Y014497D01*
X007644Y014438D01*
X006427Y015151D02*
X006368Y015092D01*
X006132Y015092D01*
X006073Y015151D01*
X006073Y015269D01*
X006132Y015328D01*
X006191Y015455D02*
X006073Y015573D01*
X006427Y015573D01*
X006427Y015455D02*
X006427Y015691D01*
X006250Y015817D02*
X006250Y016053D01*
X006427Y015994D02*
X006073Y015994D01*
X006250Y015817D01*
X006368Y015328D02*
X006427Y015269D01*
X006427Y015151D01*
X007140Y016574D02*
X007317Y016574D01*
X007376Y016633D01*
X007376Y016869D01*
X007317Y016928D01*
X007140Y016928D01*
X007140Y016574D01*
X007503Y016574D02*
X007739Y016810D01*
X007739Y016869D01*
X007680Y016928D01*
X007562Y016928D01*
X007503Y016869D01*
X007503Y016574D02*
X007739Y016574D01*
X006124Y017681D02*
X005888Y017681D01*
X006124Y017917D01*
X006124Y017976D01*
X006065Y018035D01*
X005947Y018035D01*
X005888Y017976D01*
X005762Y017976D02*
X005762Y017858D01*
X005703Y017799D01*
X005526Y017799D01*
X005526Y017681D02*
X005526Y018035D01*
X005703Y018035D01*
X005762Y017976D01*
X005399Y018035D02*
X005281Y018035D01*
X005340Y018035D02*
X005340Y017740D01*
X005281Y017681D01*
X005222Y017681D01*
X005163Y017740D01*
X003897Y017540D02*
X003897Y017304D01*
X003838Y017245D01*
X003720Y017245D01*
X003661Y017304D01*
X003535Y017304D02*
X003476Y017245D01*
X003358Y017245D01*
X003299Y017304D01*
X003299Y017540D01*
X003358Y017599D01*
X003476Y017599D01*
X003535Y017540D01*
X003661Y017540D02*
X003661Y017481D01*
X003720Y017422D01*
X003897Y017422D01*
X003897Y017540D02*
X003838Y017599D01*
X003720Y017599D01*
X003661Y017540D01*
X009311Y012896D02*
X009311Y012542D01*
X009311Y012660D02*
X009488Y012660D01*
X009547Y012719D01*
X009547Y012837D01*
X009488Y012896D01*
X009311Y012896D01*
X009429Y012660D02*
X009547Y012542D01*
X009674Y012601D02*
X009733Y012542D01*
X009851Y012542D01*
X009910Y012601D01*
X009910Y012660D01*
X009851Y012719D01*
X009792Y012719D01*
X009851Y012719D02*
X009910Y012778D01*
X009910Y012837D01*
X009851Y012896D01*
X009733Y012896D01*
X009674Y012837D01*
X008894Y012001D02*
X008894Y011647D01*
X008776Y011647D02*
X009012Y011647D01*
X008776Y011883D02*
X008894Y012001D01*
X008649Y012001D02*
X008413Y012001D01*
X008531Y012001D02*
X008531Y011647D01*
X008679Y010686D02*
X008856Y010686D01*
X008915Y010627D01*
X008915Y010509D01*
X008856Y010450D01*
X008679Y010450D01*
X008679Y010332D02*
X008679Y010686D01*
X008797Y010450D02*
X008915Y010332D01*
X009042Y010509D02*
X009278Y010509D01*
X009219Y010332D02*
X009219Y010686D01*
X009042Y010509D01*
X008168Y009924D02*
X007932Y009924D01*
X008050Y009924D02*
X008050Y010278D01*
X007932Y010160D01*
X007806Y009924D02*
X007570Y009924D01*
X007688Y009924D02*
X007688Y010278D01*
X007570Y010160D01*
X007443Y010219D02*
X007384Y010278D01*
X007266Y010278D01*
X007207Y010219D01*
X007207Y009983D01*
X007266Y009924D01*
X007384Y009924D01*
X007443Y009983D01*
X006534Y009930D02*
X006298Y009930D01*
X006534Y010166D01*
X006534Y010225D01*
X006475Y010284D01*
X006357Y010284D01*
X006298Y010225D01*
X006054Y010284D02*
X006054Y009930D01*
X005936Y009930D02*
X006172Y009930D01*
X005936Y010166D02*
X006054Y010284D01*
X005809Y010225D02*
X005750Y010284D01*
X005632Y010284D01*
X005573Y010225D01*
X005573Y009989D01*
X005632Y009930D01*
X005750Y009930D01*
X005809Y009989D01*
X005713Y011503D02*
X005477Y011503D01*
X005595Y011503D02*
X005595Y011857D01*
X005477Y011739D01*
X005350Y011798D02*
X005350Y011680D01*
X005291Y011621D01*
X005114Y011621D01*
X005114Y011503D02*
X005114Y011857D01*
X005291Y011857D01*
X005350Y011798D01*
X005232Y011621D02*
X005350Y011503D01*
X008660Y008091D02*
X008837Y008091D01*
X008896Y008032D01*
X008896Y007914D01*
X008837Y007855D01*
X008660Y007855D01*
X008778Y007855D02*
X008896Y007737D01*
X009022Y007796D02*
X009081Y007737D01*
X009199Y007737D01*
X009258Y007796D01*
X009258Y007914D01*
X009199Y007973D01*
X009140Y007973D01*
X009022Y007914D01*
X009022Y008091D01*
X009258Y008091D01*
X008660Y008091D02*
X008660Y007737D01*
X009812Y006719D02*
X009812Y006365D01*
X010048Y006365D01*
X010175Y006365D02*
X010411Y006365D01*
X010537Y006365D02*
X010714Y006365D01*
X010773Y006424D01*
X010773Y006660D01*
X010714Y006719D01*
X010537Y006719D01*
X010537Y006365D01*
X010293Y006542D02*
X010175Y006542D01*
X010175Y006719D02*
X010175Y006365D01*
X010175Y006719D02*
X010411Y006719D01*
X010900Y006601D02*
X011018Y006719D01*
X011018Y006365D01*
X010900Y006365D02*
X011136Y006365D01*
X010079Y005219D02*
X009843Y005219D01*
X009843Y005042D01*
X009961Y005101D01*
X010020Y005101D01*
X010079Y005042D01*
X010079Y004924D01*
X010020Y004865D01*
X009902Y004865D01*
X009843Y004924D01*
X009716Y004865D02*
X009480Y004865D01*
X009598Y004865D02*
X009598Y005219D01*
X009480Y005101D01*
X009353Y005160D02*
X009294Y005219D01*
X009176Y005219D01*
X009117Y005160D01*
X009117Y004924D01*
X009176Y004865D01*
X009294Y004865D01*
X009353Y004924D01*
X008004Y003611D02*
X007768Y003611D01*
X007886Y003611D02*
X007886Y003965D01*
X007768Y003847D01*
X007642Y003906D02*
X007583Y003965D01*
X007465Y003965D01*
X007406Y003906D01*
X007406Y003847D01*
X007465Y003788D01*
X007583Y003788D01*
X007642Y003729D01*
X007642Y003670D01*
X007583Y003611D01*
X007465Y003611D01*
X007406Y003670D01*
X007488Y005485D02*
X007488Y005662D01*
X007547Y005721D01*
X007665Y005721D01*
X007724Y005662D01*
X007724Y005485D01*
X007724Y005603D02*
X007842Y005721D01*
X007783Y005848D02*
X007665Y005848D01*
X007665Y006025D01*
X007724Y006084D01*
X007783Y006084D01*
X007842Y006025D01*
X007842Y005907D01*
X007783Y005848D01*
X007665Y005848D02*
X007547Y005966D01*
X007488Y006084D01*
X007488Y005485D02*
X007842Y005485D01*
X006630Y006893D02*
X006394Y006893D01*
X006512Y006893D02*
X006512Y007247D01*
X006394Y007129D01*
X006267Y007188D02*
X006267Y006952D01*
X006208Y006893D01*
X006031Y006893D01*
X006031Y007247D01*
X006208Y007247D01*
X006267Y007188D01*
X011067Y010113D02*
X011126Y010054D01*
X011362Y010054D01*
X011421Y010113D01*
X011421Y010231D01*
X011362Y010290D01*
X011362Y010417D02*
X011421Y010476D01*
X011421Y010594D01*
X011362Y010653D01*
X011303Y010653D01*
X011244Y010594D01*
X011244Y010535D01*
X011244Y010594D02*
X011185Y010653D01*
X011126Y010653D01*
X011067Y010594D01*
X011067Y010476D01*
X011126Y010417D01*
X011126Y010290D02*
X011067Y010231D01*
X011067Y010113D01*
X013276Y009328D02*
X013335Y009210D01*
X013453Y009092D01*
X013453Y009269D01*
X013512Y009328D01*
X013571Y009328D01*
X013630Y009269D01*
X013630Y009151D01*
X013571Y009092D01*
X013453Y009092D01*
X013571Y008965D02*
X013630Y008906D01*
X013630Y008788D01*
X013571Y008729D01*
X013335Y008729D01*
X013276Y008788D01*
X013276Y008906D01*
X013335Y008965D01*
X016098Y008581D02*
X016098Y008345D01*
X016157Y008286D01*
X016275Y008286D01*
X016334Y008345D01*
X016461Y008345D02*
X016461Y008286D01*
X016461Y008345D02*
X016697Y008581D01*
X016697Y008640D01*
X016461Y008640D01*
X016334Y008581D02*
X016275Y008640D01*
X016157Y008640D01*
X016098Y008581D01*
X017909Y009062D02*
X017909Y009239D01*
X017968Y009298D01*
X018086Y009298D01*
X018145Y009239D01*
X018145Y009062D01*
X018145Y009180D02*
X018263Y009298D01*
X018204Y009424D02*
X018145Y009424D01*
X018086Y009483D01*
X018086Y009601D01*
X018145Y009660D01*
X018204Y009660D01*
X018263Y009601D01*
X018263Y009483D01*
X018204Y009424D01*
X018086Y009483D02*
X018027Y009424D01*
X017968Y009424D01*
X017909Y009483D01*
X017909Y009601D01*
X017968Y009660D01*
X018027Y009660D01*
X018086Y009601D01*
X018263Y009062D02*
X017909Y009062D01*
X017950Y007302D02*
X018068Y007302D01*
X018127Y007243D01*
X018127Y007007D01*
X018068Y006948D01*
X017950Y006948D01*
X017891Y007007D01*
X017891Y007243D01*
X017950Y007302D01*
X018009Y007066D02*
X018127Y006948D01*
X018254Y006948D02*
X018490Y006948D01*
X018372Y006948D02*
X018372Y007302D01*
X018254Y007184D01*
X017995Y006093D02*
X017995Y006034D01*
X017995Y005916D02*
X017995Y005680D01*
X017936Y005680D02*
X018054Y005680D01*
X018177Y005680D02*
X018177Y005916D01*
X018354Y005916D01*
X018413Y005857D01*
X018413Y005680D01*
X017995Y005916D02*
X017936Y005916D01*
X017809Y005798D02*
X017691Y005680D01*
X017573Y005798D01*
X017573Y006034D01*
X017809Y006034D02*
X017809Y005798D01*
X017750Y005034D02*
X017632Y005034D01*
X017573Y004975D01*
X017691Y004857D02*
X017750Y004857D01*
X017809Y004798D01*
X017809Y004739D01*
X017750Y004680D01*
X017632Y004680D01*
X017573Y004739D01*
X017750Y004857D02*
X017809Y004916D01*
X017809Y004975D01*
X017750Y005034D01*
X017936Y005034D02*
X017936Y004798D01*
X018054Y004680D01*
X018172Y004798D01*
X018172Y005034D01*
X018298Y004975D02*
X018357Y005034D01*
X018475Y005034D01*
X018534Y004975D01*
X018534Y004916D01*
X018475Y004857D01*
X018534Y004798D01*
X018534Y004739D01*
X018475Y004680D01*
X018357Y004680D01*
X018298Y004739D01*
X018416Y004857D02*
X018475Y004857D01*
X018534Y004034D02*
X018534Y003680D01*
X018357Y003680D01*
X018298Y003739D01*
X018298Y003857D01*
X018357Y003916D01*
X018534Y003916D01*
X018172Y003857D02*
X018172Y003680D01*
X018172Y003857D02*
X018113Y003916D01*
X017936Y003916D01*
X017936Y003680D01*
X017809Y003739D02*
X017809Y003857D01*
X017691Y003857D01*
X017573Y003739D02*
X017632Y003680D01*
X017750Y003680D01*
X017809Y003739D01*
X017573Y003739D02*
X017573Y003975D01*
X017632Y004034D01*
X017750Y004034D01*
X017809Y003975D01*
X018236Y002534D02*
X018059Y002357D01*
X018295Y002357D01*
X018421Y002357D02*
X018539Y002416D01*
X018598Y002416D01*
X018657Y002357D01*
X018657Y002239D01*
X018598Y002180D01*
X018480Y002180D01*
X018421Y002239D01*
X018421Y002357D02*
X018421Y002534D01*
X018657Y002534D01*
X018784Y002357D02*
X019020Y002357D01*
X019146Y002475D02*
X019205Y002534D01*
X019323Y002534D01*
X019382Y002475D01*
X019382Y002416D01*
X019146Y002180D01*
X019382Y002180D01*
X019509Y002180D02*
X019509Y002239D01*
X019745Y002475D01*
X019745Y002534D01*
X019509Y002534D01*
X018961Y002534D02*
X018961Y002180D01*
X018784Y002357D02*
X018961Y002534D01*
X018236Y002534D02*
X018236Y002180D01*
X017574Y002180D02*
X017515Y002180D01*
X017515Y002239D01*
X017574Y002239D01*
X017574Y002180D01*
X017574Y002357D02*
X017515Y002357D01*
X017515Y002416D01*
X017574Y002416D01*
X017574Y002357D01*
X017390Y002416D02*
X017331Y002416D01*
X017213Y002298D01*
X017213Y002180D02*
X017213Y002416D01*
X017086Y002357D02*
X017086Y002298D01*
X016850Y002298D01*
X016850Y002239D02*
X016850Y002357D01*
X016909Y002416D01*
X017027Y002416D01*
X017086Y002357D01*
X017027Y002180D02*
X016909Y002180D01*
X016850Y002239D01*
X016724Y002180D02*
X016547Y002180D01*
X016488Y002239D01*
X016488Y002357D01*
X016547Y002416D01*
X016724Y002416D01*
X016724Y002534D02*
X016724Y002180D01*
X016363Y002416D02*
X016304Y002416D01*
X016186Y002298D01*
X016186Y002180D02*
X016186Y002416D01*
X016059Y002475D02*
X016000Y002534D01*
X015882Y002534D01*
X015823Y002475D01*
X015823Y002239D01*
X015882Y002180D01*
X016000Y002180D01*
X016059Y002239D01*
X016059Y002475D01*
X015289Y004576D02*
X015053Y004576D01*
X015171Y004576D02*
X015171Y004930D01*
X015053Y004812D01*
X014927Y004871D02*
X014868Y004930D01*
X014750Y004930D01*
X014691Y004871D01*
X014691Y004635D01*
X014750Y004576D01*
X014868Y004576D01*
X014927Y004635D01*
X013231Y004532D02*
X012995Y004532D01*
X013231Y004768D01*
X013231Y004827D01*
X013172Y004886D01*
X013054Y004886D01*
X012995Y004827D01*
X012868Y004827D02*
X012809Y004886D01*
X012691Y004886D01*
X012632Y004827D01*
X012632Y004591D01*
X012691Y004532D01*
X012809Y004532D01*
X012868Y004591D01*
X019382Y012205D02*
X019618Y012205D01*
X019677Y012264D01*
X019677Y012382D01*
X019618Y012441D01*
X019618Y012567D02*
X019677Y012626D01*
X019677Y012744D01*
X019618Y012803D01*
X019500Y012803D01*
X019441Y012744D01*
X019441Y012685D01*
X019500Y012567D01*
X019323Y012567D01*
X019323Y012803D01*
X019382Y012441D02*
X019323Y012382D01*
X019323Y012264D01*
X019382Y012205D01*
X018413Y013680D02*
X018413Y013857D01*
X018354Y013916D01*
X018177Y013916D01*
X018177Y013680D01*
X018054Y013680D02*
X017936Y013680D01*
X017995Y013680D02*
X017995Y013916D01*
X017936Y013916D01*
X017995Y014034D02*
X017995Y014093D01*
X017809Y014034D02*
X017809Y013798D01*
X017691Y013680D01*
X017573Y013798D01*
X017573Y014034D01*
X017632Y014680D02*
X017573Y014739D01*
X017632Y014680D02*
X017750Y014680D01*
X017809Y014739D01*
X017809Y014798D01*
X017750Y014857D01*
X017691Y014857D01*
X017750Y014857D02*
X017809Y014916D01*
X017809Y014975D01*
X017750Y015034D01*
X017632Y015034D01*
X017573Y014975D01*
X017936Y015034D02*
X017936Y014798D01*
X018054Y014680D01*
X018172Y014798D01*
X018172Y015034D01*
X018298Y014975D02*
X018357Y015034D01*
X018475Y015034D01*
X018534Y014975D01*
X018534Y014916D01*
X018475Y014857D01*
X018534Y014798D01*
X018534Y014739D01*
X018475Y014680D01*
X018357Y014680D01*
X018298Y014739D01*
X018416Y014857D02*
X018475Y014857D01*
X018534Y015680D02*
X018357Y015680D01*
X018298Y015739D01*
X018298Y015857D01*
X018357Y015916D01*
X018534Y015916D01*
X018534Y016034D02*
X018534Y015680D01*
X018172Y015680D02*
X018172Y015857D01*
X018113Y015916D01*
X017936Y015916D01*
X017936Y015680D01*
X017809Y015739D02*
X017809Y015857D01*
X017691Y015857D01*
X017573Y015739D02*
X017632Y015680D01*
X017750Y015680D01*
X017809Y015739D01*
X017573Y015739D02*
X017573Y015975D01*
X017632Y016034D01*
X017750Y016034D01*
X017809Y015975D01*
X013538Y015786D02*
X013538Y015550D01*
X013479Y015491D01*
X013361Y015491D01*
X013302Y015550D01*
X013538Y015786D01*
X013479Y015845D01*
X013361Y015845D01*
X013302Y015786D01*
X013302Y015550D01*
X013176Y015491D02*
X012940Y015491D01*
X013058Y015491D02*
X013058Y015845D01*
X012940Y015727D01*
X012813Y015786D02*
X012754Y015845D01*
X012636Y015845D01*
X012577Y015786D01*
X012577Y015550D01*
X012636Y015491D01*
X012754Y015491D01*
X012813Y015550D01*
X012971Y014825D02*
X012912Y014766D01*
X012912Y014530D01*
X012971Y014471D01*
X013089Y014471D01*
X013148Y014530D01*
X013274Y014648D02*
X013510Y014648D01*
X013451Y014471D02*
X013451Y014825D01*
X013274Y014648D01*
X013148Y014766D02*
X013089Y014825D01*
X012971Y014825D01*
X009969Y014166D02*
X009969Y014107D01*
X009733Y013871D01*
X009733Y013812D01*
X009606Y013812D02*
X009488Y013930D01*
X009547Y013930D02*
X009370Y013930D01*
X009370Y013812D02*
X009370Y014166D01*
X009547Y014166D01*
X009606Y014107D01*
X009606Y013989D01*
X009547Y013930D01*
X009733Y014166D02*
X009969Y014166D01*
X001636Y002004D02*
X001636Y001650D01*
X001518Y001650D02*
X001754Y001650D01*
X001518Y001886D02*
X001636Y002004D01*
X001392Y001945D02*
X001392Y001827D01*
X001333Y001768D01*
X001156Y001768D01*
X001156Y001650D02*
X001156Y002004D01*
X001333Y002004D01*
X001392Y001945D01*
X001029Y002004D02*
X000911Y002004D01*
X000970Y002004D02*
X000970Y001709D01*
X000911Y001650D01*
X000852Y001650D01*
X000793Y001709D01*
D12*
X014724Y010690D02*
X014724Y013130D01*
X014833Y013239D01*
X017274Y013239D01*
X017382Y013130D01*
X017382Y010690D01*
X017274Y010581D01*
X014833Y010581D01*
X014724Y010690D01*
D13*
X014912Y010906D02*
X014914Y010927D01*
X014920Y010947D01*
X014929Y010967D01*
X014941Y010984D01*
X014956Y010998D01*
X014974Y011010D01*
X014994Y011018D01*
X015014Y011023D01*
X015035Y011024D01*
X015056Y011021D01*
X015076Y011015D01*
X015095Y011004D01*
X015112Y010991D01*
X015125Y010975D01*
X015136Y010957D01*
X015144Y010937D01*
X015148Y010917D01*
X015148Y010895D01*
X015144Y010875D01*
X015136Y010855D01*
X015125Y010837D01*
X015112Y010821D01*
X015095Y010808D01*
X015076Y010797D01*
X015056Y010791D01*
X015035Y010788D01*
X015014Y010789D01*
X014994Y010794D01*
X014974Y010802D01*
X014956Y010814D01*
X014941Y010828D01*
X014929Y010845D01*
X014920Y010865D01*
X014914Y010885D01*
X014912Y010906D01*
D14*
X015011Y012425D02*
X015132Y012425D01*
X015193Y012486D01*
X015193Y012789D01*
X015313Y012668D02*
X015434Y012789D01*
X015434Y012425D01*
X015313Y012425D02*
X015555Y012425D01*
X015011Y012425D02*
X014950Y012486D01*
X014950Y012789D01*
D15*
X018803Y013660D02*
X019053Y013410D01*
X019553Y013410D01*
X019803Y013660D01*
X019803Y014160D01*
X019553Y014410D01*
X019803Y014660D01*
X019803Y015160D01*
X019553Y015410D01*
X019803Y015660D01*
X019803Y016160D01*
X019553Y016410D01*
X019053Y016410D01*
X018803Y016160D01*
X018803Y015660D01*
X019053Y015410D01*
X019553Y015410D01*
X019053Y015410D02*
X018803Y015160D01*
X018803Y014660D01*
X019053Y014410D01*
X019553Y014410D01*
X019053Y014410D02*
X018803Y014160D01*
X018803Y013660D01*
X018553Y018410D02*
X018053Y018410D01*
X017803Y018660D01*
X017553Y018410D01*
X017053Y018410D01*
X016803Y018660D01*
X016553Y018410D01*
X016053Y018410D01*
X015803Y018660D01*
X015553Y018410D01*
X015053Y018410D01*
X014803Y018660D01*
X014553Y018410D01*
X014053Y018410D01*
X013803Y018660D01*
X013553Y018410D01*
X013053Y018410D01*
X012803Y018660D01*
X012553Y018410D01*
X012053Y018410D01*
X011803Y018660D01*
X011553Y018410D01*
X011053Y018410D01*
X010803Y018660D01*
X010553Y018410D01*
X010053Y018410D01*
X009803Y018660D01*
X009553Y018410D01*
X009053Y018410D01*
X008803Y018660D01*
X008553Y018410D01*
X008053Y018410D01*
X007803Y018660D01*
X007553Y018410D01*
X007053Y018410D01*
X006803Y018660D01*
X006553Y018410D01*
X006053Y018410D01*
X005803Y018660D01*
X005553Y018410D01*
X005053Y018410D01*
X004803Y018660D01*
X004553Y018410D01*
X004053Y018410D01*
X003803Y018660D01*
X003553Y018410D01*
X003053Y018410D01*
X002803Y018660D01*
X002553Y018410D01*
X002053Y018410D01*
X001803Y018660D01*
X001553Y018410D01*
X001053Y018410D01*
X000803Y018660D01*
X000803Y019160D01*
X001053Y019410D01*
X001553Y019410D01*
X001803Y019160D01*
X002053Y019410D01*
X002553Y019410D01*
X002803Y019160D01*
X002803Y018660D01*
X002803Y019160D02*
X003053Y019410D01*
X003553Y019410D01*
X003803Y019160D01*
X004053Y019410D01*
X004553Y019410D01*
X004803Y019160D01*
X005053Y019410D01*
X005553Y019410D01*
X005803Y019160D01*
X005803Y018660D01*
X005803Y019160D02*
X006053Y019410D01*
X006553Y019410D01*
X006803Y019160D01*
X007053Y019410D01*
X007553Y019410D01*
X007803Y019160D01*
X008053Y019410D01*
X008553Y019410D01*
X008803Y019160D01*
X008803Y018660D01*
X008803Y019160D02*
X009053Y019410D01*
X009553Y019410D01*
X009803Y019160D01*
X010053Y019410D01*
X010553Y019410D01*
X010803Y019160D01*
X011053Y019410D01*
X011553Y019410D01*
X011803Y019160D01*
X011803Y018660D01*
X011803Y019160D02*
X012053Y019410D01*
X012553Y019410D01*
X012803Y019160D01*
X013053Y019410D01*
X013553Y019410D01*
X013803Y019160D01*
X014053Y019410D01*
X014553Y019410D01*
X014803Y019160D01*
X014803Y018660D01*
X014803Y019160D02*
X015053Y019410D01*
X015553Y019410D01*
X015803Y019160D01*
X016053Y019410D01*
X016553Y019410D01*
X016803Y019160D01*
X017053Y019410D01*
X017553Y019410D01*
X017803Y019160D01*
X017803Y018660D01*
X017803Y019160D02*
X018053Y019410D01*
X018553Y019410D01*
X018803Y019160D01*
X019053Y019410D01*
X019553Y019410D01*
X019803Y019160D01*
X019803Y018660D01*
X019553Y018410D01*
X019053Y018410D01*
X018803Y018660D01*
X018553Y018410D01*
X018803Y018660D02*
X018803Y019160D01*
X016803Y019160D02*
X016803Y018660D01*
X015803Y018660D02*
X015803Y019160D01*
X013803Y019160D02*
X013803Y018660D01*
X012803Y018660D02*
X012803Y019160D01*
X010803Y019160D02*
X010803Y018660D01*
X009803Y018660D02*
X009803Y019160D01*
X007803Y019160D02*
X007803Y018660D01*
X006803Y018660D02*
X006803Y019160D01*
X004803Y019160D02*
X004803Y018660D01*
X003803Y018660D02*
X003803Y019160D01*
X001803Y019160D02*
X001803Y018660D01*
X001622Y016640D02*
X001622Y014180D01*
X002984Y014180D01*
X002984Y016640D01*
X001622Y016640D01*
X012303Y008010D02*
X012303Y007610D01*
X012303Y008010D02*
X012305Y008027D01*
X012309Y008044D01*
X012316Y008060D01*
X012326Y008074D01*
X012339Y008087D01*
X012353Y008097D01*
X012369Y008104D01*
X012386Y008108D01*
X012403Y008110D01*
X016703Y008110D01*
X016720Y008108D01*
X016737Y008104D01*
X016753Y008097D01*
X016767Y008087D01*
X016780Y008074D01*
X016790Y008060D01*
X016797Y008044D01*
X016801Y008027D01*
X016803Y008010D01*
X016803Y007610D01*
X016803Y006710D02*
X016803Y006310D01*
X016801Y006293D01*
X016797Y006276D01*
X016790Y006260D01*
X016780Y006246D01*
X016767Y006233D01*
X016753Y006223D01*
X016737Y006216D01*
X016720Y006212D01*
X016703Y006210D01*
X012403Y006210D01*
X012386Y006212D01*
X012369Y006216D01*
X012353Y006223D01*
X012339Y006233D01*
X012326Y006246D01*
X012316Y006260D01*
X012309Y006276D01*
X012305Y006293D01*
X012303Y006310D01*
X012303Y006710D01*
X014303Y006910D02*
X014303Y007160D01*
X014303Y007410D01*
X014453Y007410D02*
X014453Y006910D01*
X014653Y006910D01*
X014653Y007410D01*
X014453Y007410D01*
X014803Y007410D02*
X014803Y007160D01*
X014803Y006910D01*
X018803Y006160D02*
X018803Y005660D01*
X019053Y005410D01*
X018803Y005160D01*
X018803Y004660D01*
X019053Y004410D01*
X018803Y004160D01*
X018803Y003660D01*
X019053Y003410D01*
X019553Y003410D01*
X019803Y003660D01*
X019803Y004160D01*
X019553Y004410D01*
X019053Y004410D01*
X019553Y004410D02*
X019803Y004660D01*
X019803Y005160D01*
X019553Y005410D01*
X019053Y005410D01*
X019553Y005410D02*
X019803Y005660D01*
X019803Y006160D01*
X019553Y006410D01*
X019053Y006410D01*
X018803Y006160D01*
X018553Y001410D02*
X018053Y001410D01*
X017803Y001160D01*
X017803Y000660D01*
X017553Y000410D01*
X017053Y000410D01*
X016803Y000660D01*
X016553Y000410D01*
X016053Y000410D01*
X015803Y000660D01*
X015553Y000410D01*
X015053Y000410D01*
X014803Y000660D01*
X014553Y000410D01*
X014053Y000410D01*
X013803Y000660D01*
X013553Y000410D01*
X013053Y000410D01*
X012803Y000660D01*
X012553Y000410D01*
X012053Y000410D01*
X011803Y000660D01*
X011553Y000410D01*
X011053Y000410D01*
X010803Y000660D01*
X010553Y000410D01*
X010053Y000410D01*
X009803Y000660D01*
X009553Y000410D01*
X009053Y000410D01*
X008803Y000660D01*
X008553Y000410D01*
X008053Y000410D01*
X007803Y000660D01*
X007553Y000410D01*
X007053Y000410D01*
X006803Y000660D01*
X006553Y000410D01*
X006053Y000410D01*
X005803Y000660D01*
X005553Y000410D01*
X005053Y000410D01*
X004803Y000660D01*
X004553Y000410D01*
X004053Y000410D01*
X003803Y000660D01*
X003553Y000410D01*
X003053Y000410D01*
X002803Y000660D01*
X002553Y000410D01*
X002053Y000410D01*
X001803Y000660D01*
X001553Y000410D01*
X001053Y000410D01*
X000803Y000660D01*
X000803Y001160D01*
X001053Y001410D01*
X001553Y001410D01*
X001803Y001160D01*
X002053Y001410D01*
X002553Y001410D01*
X002803Y001160D01*
X002803Y000660D01*
X002803Y001160D02*
X003053Y001410D01*
X003553Y001410D01*
X003803Y001160D01*
X004053Y001410D01*
X004553Y001410D01*
X004803Y001160D01*
X005053Y001410D01*
X005553Y001410D01*
X005803Y001160D01*
X005803Y000660D01*
X005803Y001160D02*
X006053Y001410D01*
X006553Y001410D01*
X006803Y001160D01*
X007053Y001410D01*
X007553Y001410D01*
X007803Y001160D01*
X008053Y001410D01*
X008553Y001410D01*
X008803Y001160D01*
X008803Y000660D01*
X008803Y001160D02*
X009053Y001410D01*
X009553Y001410D01*
X009803Y001160D01*
X010053Y001410D01*
X010553Y001410D01*
X010803Y001160D01*
X011053Y001410D01*
X011553Y001410D01*
X011803Y001160D01*
X011803Y000660D01*
X011803Y001160D02*
X012053Y001410D01*
X012553Y001410D01*
X012803Y001160D01*
X013053Y001410D01*
X013553Y001410D01*
X013803Y001160D01*
X014053Y001410D01*
X014553Y001410D01*
X014803Y001160D01*
X014803Y000660D01*
X014803Y001160D02*
X015053Y001410D01*
X015553Y001410D01*
X015803Y001160D01*
X016053Y001410D01*
X016553Y001410D01*
X016803Y001160D01*
X017053Y001410D01*
X017553Y001410D01*
X017803Y001160D01*
X017803Y000660D02*
X018053Y000410D01*
X018553Y000410D01*
X018803Y000660D01*
X019053Y000410D01*
X019553Y000410D01*
X019803Y000660D01*
X019803Y001160D01*
X019553Y001410D01*
X019053Y001410D01*
X018803Y001160D01*
X018803Y000660D01*
X018803Y001160D02*
X018553Y001410D01*
X016803Y001160D02*
X016803Y000660D01*
X015803Y000660D02*
X015803Y001160D01*
X013803Y001160D02*
X013803Y000660D01*
X012803Y000660D02*
X012803Y001160D01*
X010803Y001160D02*
X010803Y000660D01*
X009803Y000660D02*
X009803Y001160D01*
X007803Y001160D02*
X007803Y000660D01*
X006803Y000660D02*
X006803Y001160D01*
X004803Y001160D02*
X004803Y000660D01*
X003803Y000660D02*
X003803Y001160D01*
X001803Y001160D02*
X001803Y000660D01*
D16*
X001681Y003138D02*
X001681Y006682D01*
X005894Y006682D01*
X005894Y005855D01*
X005894Y003965D02*
X005894Y003138D01*
X005618Y003138D01*
X003768Y003138D02*
X001681Y003138D01*
X002346Y008256D02*
X003173Y008256D01*
X004157Y008532D02*
X004157Y008886D01*
X004157Y010619D02*
X004157Y010973D01*
X003173Y011249D02*
X002346Y011249D01*
X008622Y004599D02*
X010984Y004599D01*
X010984Y004402D01*
X010295Y004205D02*
X009311Y004205D01*
X009311Y003615D02*
X010276Y003615D01*
X010984Y003418D02*
X010984Y003221D01*
X008622Y003221D01*
X008622Y003418D01*
X008622Y004402D02*
X008622Y004599D01*
D17*
X013203Y006360D02*
X015903Y006360D01*
X015903Y006660D02*
X013203Y006660D01*
X012542Y007610D02*
X012574Y007655D01*
X012610Y007697D01*
X012649Y007737D01*
X012690Y007774D01*
X012734Y007808D01*
X012781Y007839D01*
X012829Y007867D01*
X012879Y007891D01*
X012930Y007912D01*
X012983Y007929D01*
X013037Y007943D01*
X013092Y007952D01*
X013147Y007958D01*
X013203Y007960D01*
X015903Y007960D01*
X015903Y007660D02*
X013203Y007660D01*
X013165Y007659D01*
X013128Y007654D01*
X013091Y007647D01*
X013055Y007638D01*
X013019Y007625D01*
X012985Y007610D01*
X012542Y006710D02*
X012574Y006665D01*
X012610Y006623D01*
X012649Y006583D01*
X012691Y006546D01*
X012734Y006512D01*
X012781Y006481D01*
X012829Y006453D01*
X012879Y006429D01*
X012930Y006408D01*
X012983Y006391D01*
X013037Y006377D01*
X013092Y006368D01*
X013147Y006362D01*
X013203Y006360D01*
X013203Y006660D02*
X013165Y006661D01*
X013128Y006666D01*
X013091Y006673D01*
X013055Y006682D01*
X013019Y006695D01*
X012985Y006710D01*
X014153Y007160D02*
X014303Y007160D01*
X014803Y007160D02*
X014953Y007160D01*
X015903Y006360D02*
X015959Y006362D01*
X016014Y006368D01*
X016069Y006377D01*
X016123Y006391D01*
X016176Y006408D01*
X016227Y006429D01*
X016277Y006453D01*
X016325Y006481D01*
X016372Y006512D01*
X016416Y006546D01*
X016457Y006583D01*
X016496Y006623D01*
X016532Y006665D01*
X016564Y006710D01*
X016564Y007610D02*
X016532Y007655D01*
X016496Y007697D01*
X016457Y007737D01*
X016415Y007774D01*
X016372Y007808D01*
X016325Y007839D01*
X016277Y007867D01*
X016227Y007891D01*
X016176Y007912D01*
X016123Y007929D01*
X016069Y007943D01*
X016014Y007952D01*
X015959Y007958D01*
X015903Y007960D01*
X015903Y007660D02*
X015941Y007659D01*
X015978Y007654D01*
X016015Y007647D01*
X016051Y007638D01*
X016087Y007625D01*
X016121Y007610D01*
X016121Y006710D02*
X016087Y006695D01*
X016051Y006682D01*
X016015Y006673D01*
X015978Y006666D01*
X015941Y006661D01*
X015903Y006660D01*
D18*
X010014Y007160D03*
M02*
