G75*
G70*
%OFA0B0*%
%FSLAX24Y24*%
%IPPOS*%
%LPD*%
%AMOC8*
5,1,8,0,0,1.08239X$1,22.5*
%
%ADD10C,0.0000*%
%ADD11C,0.0640*%
%ADD12C,0.0394*%
%ADD13C,0.1740*%
D10*
X000500Y000107D02*
X000500Y019792D01*
X020185Y019792D01*
X020185Y000107D01*
X000500Y000107D01*
X002681Y008886D02*
X002683Y008912D01*
X002689Y008938D01*
X002699Y008963D01*
X002712Y008986D01*
X002728Y009006D01*
X002748Y009024D01*
X002770Y009039D01*
X002793Y009051D01*
X002819Y009059D01*
X002845Y009063D01*
X002871Y009063D01*
X002897Y009059D01*
X002923Y009051D01*
X002947Y009039D01*
X002968Y009024D01*
X002988Y009006D01*
X003004Y008986D01*
X003017Y008963D01*
X003027Y008938D01*
X003033Y008912D01*
X003035Y008886D01*
X003033Y008860D01*
X003027Y008834D01*
X003017Y008809D01*
X003004Y008786D01*
X002988Y008766D01*
X002968Y008748D01*
X002946Y008733D01*
X002923Y008721D01*
X002897Y008713D01*
X002871Y008709D01*
X002845Y008709D01*
X002819Y008713D01*
X002793Y008721D01*
X002769Y008733D01*
X002748Y008748D01*
X002728Y008766D01*
X002712Y008786D01*
X002699Y008809D01*
X002689Y008834D01*
X002683Y008860D01*
X002681Y008886D01*
X002681Y010619D02*
X002683Y010645D01*
X002689Y010671D01*
X002699Y010696D01*
X002712Y010719D01*
X002728Y010739D01*
X002748Y010757D01*
X002770Y010772D01*
X002793Y010784D01*
X002819Y010792D01*
X002845Y010796D01*
X002871Y010796D01*
X002897Y010792D01*
X002923Y010784D01*
X002947Y010772D01*
X002968Y010757D01*
X002988Y010739D01*
X003004Y010719D01*
X003017Y010696D01*
X003027Y010671D01*
X003033Y010645D01*
X003035Y010619D01*
X003033Y010593D01*
X003027Y010567D01*
X003017Y010542D01*
X003004Y010519D01*
X002988Y010499D01*
X002968Y010481D01*
X002946Y010466D01*
X002923Y010454D01*
X002897Y010446D01*
X002871Y010442D01*
X002845Y010442D01*
X002819Y010446D01*
X002793Y010454D01*
X002769Y010466D01*
X002748Y010481D01*
X002728Y010499D01*
X002712Y010519D01*
X002699Y010542D01*
X002689Y010567D01*
X002683Y010593D01*
X002681Y010619D01*
D11*
X002303Y018610D02*
X002303Y019210D01*
X001303Y019210D02*
X001303Y018610D01*
X003303Y018610D02*
X003303Y019210D01*
X004303Y019210D02*
X004303Y018610D01*
X005303Y018610D02*
X005303Y019210D01*
X006303Y019210D02*
X006303Y018610D01*
X007303Y018610D02*
X007303Y019210D01*
X008303Y019210D02*
X008303Y018610D01*
X009303Y018610D02*
X009303Y019210D01*
X010303Y019210D02*
X010303Y018610D01*
X011303Y018610D02*
X011303Y019210D01*
X012303Y019210D02*
X012303Y018610D01*
X013303Y018610D02*
X013303Y019210D01*
X014303Y019210D02*
X014303Y018610D01*
X015303Y018610D02*
X015303Y019210D01*
X016303Y019210D02*
X016303Y018610D01*
X017303Y018610D02*
X017303Y019210D01*
X018303Y019210D02*
X018303Y018610D01*
X019303Y018610D02*
X019303Y019210D01*
X019603Y015910D02*
X019003Y015910D01*
X019003Y014910D02*
X019603Y014910D01*
X019603Y013910D02*
X019003Y013910D01*
X019003Y005910D02*
X019603Y005910D01*
X019603Y004910D02*
X019003Y004910D01*
X019003Y003910D02*
X019603Y003910D01*
X019303Y001210D02*
X019303Y000610D01*
X018303Y000610D02*
X018303Y001210D01*
X017303Y001210D02*
X017303Y000610D01*
X016303Y000610D02*
X016303Y001210D01*
X015303Y001210D02*
X015303Y000610D01*
X014303Y000610D02*
X014303Y001210D01*
X013303Y001210D02*
X013303Y000610D01*
X012303Y000610D02*
X012303Y001210D01*
X011303Y001210D02*
X011303Y000610D01*
X010303Y000610D02*
X010303Y001210D01*
X009303Y001210D02*
X009303Y000610D01*
X008303Y000610D02*
X008303Y001210D01*
X007303Y001210D02*
X007303Y000610D01*
X006303Y000610D02*
X006303Y001210D01*
X005303Y001210D02*
X005303Y000610D01*
X004303Y000610D02*
X004303Y001210D01*
X003303Y001210D02*
X003303Y000610D01*
X002303Y000610D02*
X002303Y001210D01*
X001303Y001210D02*
X001303Y000610D01*
D12*
X002858Y008886D03*
X002858Y010619D03*
D13*
X003531Y004910D03*
X004713Y003060D03*
X005894Y004910D03*
M02*
