G75*
G70*
%OFA0B0*%
%FSLAX24Y24*%
%IPPOS*%
%LPD*%
%AMOC8*
5,1,8,0,0,1.08239X$1,22.5*
%
%ADD10C,0.0000*%
%ADD11R,0.0079X0.0394*%
%ADD12R,0.0394X0.0079*%
%ADD13R,0.0790X0.0590*%
%ADD14R,0.0790X0.1500*%
%ADD15R,0.0984X0.0197*%
%ADD16R,0.0984X0.0787*%
%ADD17R,0.0394X0.0551*%
%ADD18R,0.0551X0.0551*%
%ADD19R,0.2100X0.0760*%
%ADD20R,0.0512X0.0591*%
%ADD21R,0.0945X0.0630*%
%ADD22R,0.0591X0.0512*%
%ADD23R,0.0630X0.0945*%
%ADD24R,0.0472X0.0472*%
%ADD25R,0.0787X0.0630*%
D10*
X000500Y000107D02*
X000500Y019792D01*
X020185Y019792D01*
X020185Y000107D01*
X000500Y000107D01*
X002681Y008886D02*
X002683Y008912D01*
X002689Y008938D01*
X002699Y008963D01*
X002712Y008986D01*
X002728Y009006D01*
X002748Y009024D01*
X002770Y009039D01*
X002793Y009051D01*
X002819Y009059D01*
X002845Y009063D01*
X002871Y009063D01*
X002897Y009059D01*
X002923Y009051D01*
X002947Y009039D01*
X002968Y009024D01*
X002988Y009006D01*
X003004Y008986D01*
X003017Y008963D01*
X003027Y008938D01*
X003033Y008912D01*
X003035Y008886D01*
X003033Y008860D01*
X003027Y008834D01*
X003017Y008809D01*
X003004Y008786D01*
X002988Y008766D01*
X002968Y008748D01*
X002946Y008733D01*
X002923Y008721D01*
X002897Y008713D01*
X002871Y008709D01*
X002845Y008709D01*
X002819Y008713D01*
X002793Y008721D01*
X002769Y008733D01*
X002748Y008748D01*
X002728Y008766D01*
X002712Y008786D01*
X002699Y008809D01*
X002689Y008834D01*
X002683Y008860D01*
X002681Y008886D01*
X002681Y010619D02*
X002683Y010645D01*
X002689Y010671D01*
X002699Y010696D01*
X002712Y010719D01*
X002728Y010739D01*
X002748Y010757D01*
X002770Y010772D01*
X002793Y010784D01*
X002819Y010792D01*
X002845Y010796D01*
X002871Y010796D01*
X002897Y010792D01*
X002923Y010784D01*
X002947Y010772D01*
X002968Y010757D01*
X002988Y010739D01*
X003004Y010719D01*
X003017Y010696D01*
X003027Y010671D01*
X003033Y010645D01*
X003035Y010619D01*
X003033Y010593D01*
X003027Y010567D01*
X003017Y010542D01*
X003004Y010519D01*
X002988Y010499D01*
X002968Y010481D01*
X002946Y010466D01*
X002923Y010454D01*
X002897Y010446D01*
X002871Y010442D01*
X002845Y010442D01*
X002819Y010446D01*
X002793Y010454D01*
X002769Y010466D01*
X002748Y010481D01*
X002728Y010499D01*
X002712Y010519D01*
X002699Y010542D01*
X002689Y010567D01*
X002683Y010593D01*
X002681Y010619D01*
D11*
X014970Y010237D03*
X015167Y010237D03*
X015364Y010237D03*
X015561Y010237D03*
X015758Y010237D03*
X015955Y010237D03*
X016152Y010237D03*
X016348Y010237D03*
X016545Y010237D03*
X016742Y010237D03*
X016939Y010237D03*
X017136Y010237D03*
X017136Y013583D03*
X016939Y013583D03*
X016742Y013583D03*
X016545Y013583D03*
X016348Y013583D03*
X016152Y013583D03*
X015955Y013583D03*
X015758Y013583D03*
X015561Y013583D03*
X015364Y013583D03*
X015167Y013583D03*
X014970Y013583D03*
D12*
X014380Y012993D03*
X014380Y012796D03*
X014380Y012599D03*
X014380Y012402D03*
X014380Y012205D03*
X014380Y012008D03*
X014380Y011812D03*
X014380Y011615D03*
X014380Y011418D03*
X014380Y011221D03*
X014380Y011024D03*
X014380Y010827D03*
X017726Y010827D03*
X017726Y011024D03*
X017726Y011221D03*
X017726Y011418D03*
X017726Y011615D03*
X017726Y011812D03*
X017726Y012008D03*
X017726Y012205D03*
X017726Y012402D03*
X017726Y012599D03*
X017726Y012796D03*
X017726Y012993D03*
D13*
X003543Y014520D03*
X003543Y015420D03*
X003543Y016320D03*
D14*
X001063Y015410D03*
D15*
X003843Y010382D03*
X003843Y010067D03*
X003843Y009753D03*
X003843Y009438D03*
X003843Y009123D03*
D16*
X003843Y007981D03*
X001677Y007981D03*
X001677Y011524D03*
X003843Y011524D03*
D17*
X007679Y012593D03*
X008427Y012593D03*
X008053Y011727D03*
D18*
X008301Y014910D03*
X008301Y016160D03*
X006805Y016160D03*
X006805Y014910D03*
X007051Y007660D03*
X005555Y007660D03*
D19*
X012653Y007160D03*
X016453Y007160D03*
D20*
X015427Y005410D03*
X014679Y005410D03*
X013427Y005410D03*
X012679Y005410D03*
X010177Y005660D03*
X009429Y005660D03*
X009677Y008910D03*
X008929Y008910D03*
X008929Y009910D03*
X009677Y009910D03*
X009679Y012160D03*
X010427Y012160D03*
X010427Y013410D03*
X009679Y013410D03*
X006427Y011160D03*
X005679Y011160D03*
X002677Y013410D03*
X001929Y013410D03*
X001929Y017410D03*
X002677Y017410D03*
X014179Y015660D03*
X014927Y015660D03*
X014927Y014660D03*
X014179Y014660D03*
X015929Y009160D03*
X016677Y009160D03*
D21*
X012053Y009819D03*
X012053Y011001D03*
X005303Y014819D03*
X005303Y016001D03*
D22*
X006303Y013284D03*
X006303Y012536D03*
X006303Y009534D03*
X006303Y008786D03*
X007553Y008786D03*
X007553Y009534D03*
X008303Y007034D03*
X008303Y006286D03*
X013303Y010036D03*
X013303Y010784D03*
X018803Y009784D03*
X018803Y009036D03*
X018803Y012036D03*
X018803Y012784D03*
D23*
X005144Y013160D03*
X003963Y013160D03*
D24*
X009640Y007160D03*
X010467Y007160D03*
D25*
X010866Y003910D03*
X008740Y003910D03*
M02*
